<?xml version="1.0" encoding="UTF-8" standalone="no"?>
<!DOCTYPE svg PUBLIC "-//W3C//DTD SVG 1.1//EN"
 "http://www.w3.org/Graphics/SVG/1.1/DTD/svg11.dtd">
<!-- Generated by graphviz version 2.38.0 (20140413.2041)
 -->
<!-- Title: std_types.h Pages: 1 -->
<svg width="2332pt" height="364pt"
 viewBox="0.00 0.00 2331.88 364.00" xmlns="http://www.w3.org/2000/svg" xmlns:xlink="http://www.w3.org/1999/xlink">
<g id="graph0" class="graph" transform="scale(1 1) rotate(0) translate(4 360)">
<title>std_types.h</title>
<polygon fill="white" stroke="none" points="-4,4 -4,-360 2327.88,-360 2327.88,4 -4,4"/>
<!-- Node4 -->
<g id="node1" class="node"><title>Node4</title>
<polygon fill="#bfbfbf" stroke="black" points="613.378,-336.5 613.378,-355.5 685.378,-355.5 685.378,-336.5 613.378,-336.5"/>
<text text-anchor="middle" x="649.378" y="-343.5" font-family="Helvetica,sans-Serif" font-size="10.00">std_types.h</text>
</g>
<!-- Node5 -->
<g id="node2" class="node"><title>Node5</title>
<g id="a_node2"><a xlink:href="arch_2arm32-linux_2odp_2api_2abi_2std__types_8h_source.html" target="_top" xlink:title="std_types.h">
<polygon fill="white" stroke="black" points="343.378,-280.5 343.378,-299.5 415.378,-299.5 415.378,-280.5 343.378,-280.5"/>
<text text-anchor="middle" x="379.378" y="-287.5" font-family="Helvetica,sans-Serif" font-size="10.00">std_types.h</text>
</a>
</g>
</g>
<!-- Node4&#45;&gt;Node5 -->
<g id="edge1" class="edge"><title>Node4&#45;&gt;Node5</title>
<path fill="none" stroke="midnightblue" d="M603.425,-335.809C550.404,-325.205 464.304,-307.985 415.728,-298.27"/>
<polygon fill="midnightblue" stroke="midnightblue" points="602.753,-339.244 613.245,-337.773 604.125,-332.38 602.753,-339.244"/>
</g>
<!-- Node6 -->
<g id="node3" class="node"><title>Node6</title>
<g id="a_node3"><a xlink:href="arch_2arm64-linux_2odp_2api_2abi_2std__types_8h_source.html" target="_top" xlink:title="std_types.h">
<polygon fill="white" stroke="black" points="433.378,-280.5 433.378,-299.5 505.378,-299.5 505.378,-280.5 433.378,-280.5"/>
<text text-anchor="middle" x="469.378" y="-287.5" font-family="Helvetica,sans-Serif" font-size="10.00">std_types.h</text>
</a>
</g>
</g>
<!-- Node4&#45;&gt;Node6 -->
<g id="edge2" class="edge"><title>Node4&#45;&gt;Node6</title>
<path fill="none" stroke="midnightblue" d="M611.271,-333.568C577.315,-323.381 528.39,-308.703 497.766,-299.516"/>
<polygon fill="midnightblue" stroke="midnightblue" points="610.273,-336.922 620.857,-336.444 612.284,-330.218 610.273,-336.922"/>
</g>
<!-- Node7 -->
<g id="node4" class="node"><title>Node7</title>
<g id="a_node4"><a xlink:href="arch_2default-linux_2odp_2api_2abi_2std__types_8h_source.html" target="_top" xlink:title="std_types.h">
<polygon fill="white" stroke="black" points="523.378,-280.5 523.378,-299.5 595.378,-299.5 595.378,-280.5 523.378,-280.5"/>
<text text-anchor="middle" x="559.378" y="-287.5" font-family="Helvetica,sans-Serif" font-size="10.00">std_types.h</text>
</a>
</g>
</g>
<!-- Node4&#45;&gt;Node7 -->
<g id="edge3" class="edge"><title>Node4&#45;&gt;Node7</title>
<path fill="none" stroke="midnightblue" d="M626.34,-331.177C609.779,-321.241 587.96,-308.149 573.802,-299.655"/>
<polygon fill="midnightblue" stroke="midnightblue" points="624.542,-334.18 634.918,-336.324 628.144,-328.178 624.542,-334.18"/>
</g>
<!-- Node8 -->
<g id="node5" class="node"><title>Node8</title>
<g id="a_node5"><a xlink:href="arch_2mips64-linux_2odp_2api_2abi_2std__types_8h_source.html" target="_top" xlink:title="std_types.h">
<polygon fill="white" stroke="black" points="613.378,-280.5 613.378,-299.5 685.378,-299.5 685.378,-280.5 613.378,-280.5"/>
<text text-anchor="middle" x="649.378" y="-287.5" font-family="Helvetica,sans-Serif" font-size="10.00">std_types.h</text>
</a>
</g>
</g>
<!-- Node4&#45;&gt;Node8 -->
<g id="edge4" class="edge"><title>Node4&#45;&gt;Node8</title>
<path fill="none" stroke="midnightblue" d="M649.378,-325.805C649.378,-316.91 649.378,-306.78 649.378,-299.751"/>
<polygon fill="midnightblue" stroke="midnightblue" points="645.878,-326.083 649.378,-336.083 652.878,-326.083 645.878,-326.083"/>
</g>
<!-- Node9 -->
<g id="node6" class="node"><title>Node9</title>
<g id="a_node6"><a xlink:href="arch_2power64-linux_2odp_2api_2abi_2std__types_8h_source.html" target="_top" xlink:title="std_types.h">
<polygon fill="white" stroke="black" points="703.378,-280.5 703.378,-299.5 775.378,-299.5 775.378,-280.5 703.378,-280.5"/>
<text text-anchor="middle" x="739.378" y="-287.5" font-family="Helvetica,sans-Serif" font-size="10.00">std_types.h</text>
</a>
</g>
</g>
<!-- Node4&#45;&gt;Node9 -->
<g id="edge5" class="edge"><title>Node4&#45;&gt;Node9</title>
<path fill="none" stroke="midnightblue" d="M672.416,-331.177C688.977,-321.241 710.796,-308.149 724.954,-299.655"/>
<polygon fill="midnightblue" stroke="midnightblue" points="670.612,-328.178 663.838,-336.324 674.214,-334.18 670.612,-328.178"/>
</g>
<!-- Node10 -->
<g id="node7" class="node"><title>Node10</title>
<g id="a_node7"><a xlink:href="arch_2x86__32-linux_2odp_2api_2abi_2std__types_8h_source.html" target="_top" xlink:title="std_types.h">
<polygon fill="white" stroke="black" points="793.378,-280.5 793.378,-299.5 865.378,-299.5 865.378,-280.5 793.378,-280.5"/>
<text text-anchor="middle" x="829.378" y="-287.5" font-family="Helvetica,sans-Serif" font-size="10.00">std_types.h</text>
</a>
</g>
</g>
<!-- Node4&#45;&gt;Node10 -->
<g id="edge6" class="edge"><title>Node4&#45;&gt;Node10</title>
<path fill="none" stroke="midnightblue" d="M687.486,-333.568C721.442,-323.381 770.367,-308.703 800.99,-299.516"/>
<polygon fill="midnightblue" stroke="midnightblue" points="686.472,-330.218 677.9,-336.444 688.484,-336.922 686.472,-330.218"/>
</g>
<!-- Node11 -->
<g id="node8" class="node"><title>Node11</title>
<g id="a_node8"><a xlink:href="arch_2x86__64-linux_2odp_2api_2abi_2std__types_8h_source.html" target="_top" xlink:title="std_types.h">
<polygon fill="white" stroke="black" points="883.378,-280.5 883.378,-299.5 955.378,-299.5 955.378,-280.5 883.378,-280.5"/>
<text text-anchor="middle" x="919.378" y="-287.5" font-family="Helvetica,sans-Serif" font-size="10.00">std_types.h</text>
</a>
</g>
</g>
<!-- Node4&#45;&gt;Node11 -->
<g id="edge7" class="edge"><title>Node4&#45;&gt;Node11</title>
<path fill="none" stroke="midnightblue" d="M695.332,-335.809C748.352,-325.205 834.452,-307.985 883.028,-298.27"/>
<polygon fill="midnightblue" stroke="midnightblue" points="694.631,-332.38 685.511,-337.773 696.004,-339.244 694.631,-332.38"/>
</g>
<!-- Node12 -->
<g id="node9" class="node"><title>Node12</title>
<g id="a_node9"><a xlink:href="api_2std__clib_8h_source.html" target="_top" xlink:title="std_clib.h">
<polygon fill="white" stroke="black" points="556.378,-224.5 556.378,-243.5 618.378,-243.5 618.378,-224.5 556.378,-224.5"/>
<text text-anchor="middle" x="587.378" y="-231.5" font-family="Helvetica,sans-Serif" font-size="10.00">std_clib.h</text>
</a>
</g>
</g>
<!-- Node11&#45;&gt;Node12 -->
<g id="edge8" class="edge"><title>Node11&#45;&gt;Node12</title>
<path fill="none" stroke="midnightblue" d="M872.914,-279.797C774.265,-262.365 669.437,-246.81 618.452,-239.437"/>
<polygon fill="midnightblue" stroke="midnightblue" points="872.595,-283.295 883.054,-281.599 873.82,-276.403 872.595,-283.295"/>
</g>
<!-- Node15 -->
<g id="node12" class="node"><title>Node15</title>
<g id="a_node12"><a xlink:href="api_2std__types_8h.html" target="_top" xlink:title="Standard C language types and definitions for ODP. ">
<polygon fill="white" stroke="black" points="1214.38,-224.5 1214.38,-243.5 1286.38,-243.5 1286.38,-224.5 1214.38,-224.5"/>
<text text-anchor="middle" x="1250.38" y="-231.5" font-family="Helvetica,sans-Serif" font-size="10.00">std_types.h</text>
</a>
</g>
</g>
<!-- Node11&#45;&gt;Node15 -->
<g id="edge11" class="edge"><title>Node11&#45;&gt;Node15</title>
<path fill="none" stroke="midnightblue" d="M965.639,-281.453C1032.29,-270.579 1153.96,-250.729 1214.37,-240.874"/>
<polygon fill="midnightblue" stroke="midnightblue" points="964.737,-278.054 955.431,-283.118 965.864,-284.962 964.737,-278.054"/>
</g>
<!-- Node13 -->
<g id="node10" class="node"><title>Node13</title>
<g id="a_node10"><a xlink:href="odp__api_8h.html" target="_top" xlink:title="The OpenDataPlane API. ">
<polygon fill="white" stroke="black" points="1285.88,-56.5 1285.88,-75.5 1348.88,-75.5 1348.88,-56.5 1285.88,-56.5"/>
<text text-anchor="middle" x="1317.38" y="-63.5" font-family="Helvetica,sans-Serif" font-size="10.00">odp_api.h</text>
</a>
</g>
</g>
<!-- Node12&#45;&gt;Node13 -->
<g id="edge9" class="edge"><title>Node12&#45;&gt;Node13</title>
<path fill="none" stroke="midnightblue" d="M545.921,-232.439C440.2,-230.517 162.935,-222.262 78.3781,-188 36.0951,-170.867 -22.3222,-144.81 9.37808,-112 55.1142,-64.6633 1089.98,-66.1535 1285.62,-66.8606"/>
<polygon fill="midnightblue" stroke="midnightblue" points="546.133,-235.943 556.192,-232.615 546.253,-228.944 546.133,-235.943"/>
</g>
<!-- Node14 -->
<g id="node11" class="node"><title>Node14</title>
<g id="a_node11"><a xlink:href="odp_8h.html" target="_top" xlink:title="WARNING: THIS FILE IS DEPRECATED AND WILL BE REMOVED!!! ODP APPLICATIONS SHOULD NOW INCLUDE odp_api...">
<polygon fill="white" stroke="black" points="1295.38,-0.5 1295.38,-19.5 1339.38,-19.5 1339.38,-0.5 1295.38,-0.5"/>
<text text-anchor="middle" x="1317.38" y="-7.5" font-family="Helvetica,sans-Serif" font-size="10.00">odp.h</text>
</a>
</g>
</g>
<!-- Node13&#45;&gt;Node14 -->
<g id="edge10" class="edge"><title>Node13&#45;&gt;Node14</title>
<path fill="none" stroke="midnightblue" d="M1317.38,-45.8045C1317.38,-36.9102 1317.38,-26.7798 1317.38,-19.7511"/>
<polygon fill="midnightblue" stroke="midnightblue" points="1313.88,-46.083 1317.38,-56.083 1320.88,-46.083 1313.88,-46.083"/>
</g>
<!-- Node15&#45;&gt;Node13 -->
<g id="edge64" class="edge"><title>Node15&#45;&gt;Node13</title>
<path fill="none" stroke="midnightblue" d="M1222.93,-219.669C1193.28,-203.553 1147.71,-173.358 1128.38,-132 1124.61,-123.948 1122.87,-118.975 1128.38,-112 1147.61,-87.6486 1236.84,-75.0553 1285.5,-69.8977"/>
<polygon fill="midnightblue" stroke="midnightblue" points="1221.46,-222.851 1231.94,-224.403 1224.71,-216.654 1221.46,-222.851"/>
</g>
<!-- Node16 -->
<g id="node13" class="node"><title>Node16</title>
<g id="a_node13"><a xlink:href="api_2abi-default_2atomic_8h.html" target="_top" xlink:title="ODP atomic operations. ">
<polygon fill="white" stroke="red" points="121.878,-168.5 121.878,-187.5 180.878,-187.5 180.878,-168.5 121.878,-168.5"/>
<text text-anchor="middle" x="151.378" y="-175.5" font-family="Helvetica,sans-Serif" font-size="10.00">atomic.h</text>
</a>
</g>
</g>
<!-- Node15&#45;&gt;Node16 -->
<g id="edge12" class="edge"><title>Node15&#45;&gt;Node16</title>
<path fill="none" stroke="midnightblue" d="M1204.1,-232.171C1026.8,-228.819 390.704,-215.131 190.378,-188 187.348,-187.59 184.208,-187.055 181.084,-186.45"/>
<polygon fill="midnightblue" stroke="midnightblue" points="1204.08,-235.671 1214.14,-232.359 1204.21,-228.673 1204.08,-235.671"/>
</g>
<!-- Node25 -->
<g id="node20" class="node"><title>Node25</title>
<g id="a_node20"><a xlink:href="api_2abi-default_2barrier_8h.html" target="_top" xlink:title="ODP barrier. ">
<polygon fill="white" stroke="red" points="199.378,-168.5 199.378,-187.5 255.378,-187.5 255.378,-168.5 199.378,-168.5"/>
<text text-anchor="middle" x="227.378" y="-175.5" font-family="Helvetica,sans-Serif" font-size="10.00">barrier.h</text>
</a>
</g>
</g>
<!-- Node15&#45;&gt;Node25 -->
<g id="edge19" class="edge"><title>Node15&#45;&gt;Node25</title>
<path fill="none" stroke="midnightblue" d="M1204.3,-232.077C1035.25,-228.509 449.431,-214.476 264.378,-188 261.499,-187.588 258.516,-187.052 255.551,-186.446"/>
<polygon fill="midnightblue" stroke="midnightblue" points="1204.29,-235.578 1214.36,-232.288 1204.44,-228.579 1204.29,-235.578"/>
</g>
<!-- Node61 -->
<g id="node21" class="node"><title>Node61</title>
<g id="a_node21"><a xlink:href="api_2abi-default_2byteorder_8h.html" target="_top" xlink:title="ODP byteorder. ">
<polygon fill="white" stroke="red" points="273.878,-168.5 273.878,-187.5 344.878,-187.5 344.878,-168.5 273.878,-168.5"/>
<text text-anchor="middle" x="309.378" y="-175.5" font-family="Helvetica,sans-Serif" font-size="10.00">byteorder.h</text>
</a>
</g>
</g>
<!-- Node15&#45;&gt;Node61 -->
<g id="edge20" class="edge"><title>Node15&#45;&gt;Node61</title>
<path fill="none" stroke="midnightblue" d="M1204.1,-233.146C1071.2,-233.037 677.192,-228.999 353.378,-188 350.748,-187.667 348.041,-187.264 345.322,-186.815"/>
<polygon fill="midnightblue" stroke="midnightblue" points="1204.32,-236.646 1214.32,-233.147 1204.32,-229.646 1204.32,-236.646"/>
</g>
<!-- Node70 -->
<g id="node22" class="node"><title>Node70</title>
<g id="a_node22"><a xlink:href="api_2abi-default_2cpumask_8h.html" target="_top" xlink:title="ODP CPU masks and enumeration. ">
<polygon fill="white" stroke="red" points="362.878,-168.5 362.878,-187.5 431.878,-187.5 431.878,-168.5 362.878,-168.5"/>
<text text-anchor="middle" x="397.378" y="-175.5" font-family="Helvetica,sans-Serif" font-size="10.00">cpumask.h</text>
</a>
</g>
</g>
<!-- Node15&#45;&gt;Node70 -->
<g id="edge21" class="edge"><title>Node15&#45;&gt;Node70</title>
<path fill="none" stroke="midnightblue" d="M1204.05,-232.787C1079.94,-231.708 729.771,-225.312 441.378,-188 438.285,-187.6 435.084,-187.105 431.885,-186.555"/>
<polygon fill="midnightblue" stroke="midnightblue" points="1204.29,-236.289 1214.32,-232.869 1204.35,-229.289 1204.29,-236.289"/>
</g>
<!-- Node94 -->
<g id="node23" class="node"><title>Node94</title>
<g id="a_node23"><a xlink:href="api_2abi-default_2init_8h.html" target="_top" xlink:title="ODP initialization. ">
<polygon fill="white" stroke="red" points="450.378,-168.5 450.378,-187.5 490.378,-187.5 490.378,-168.5 450.378,-168.5"/>
<text text-anchor="middle" x="470.378" y="-175.5" font-family="Helvetica,sans-Serif" font-size="10.00">init.h</text>
</a>
</g>
</g>
<!-- Node15&#45;&gt;Node94 -->
<g id="edge22" class="edge"><title>Node15&#45;&gt;Node94</title>
<path fill="none" stroke="midnightblue" d="M1203.9,-231.682C1061.99,-227.425 635.706,-212.862 499.378,-188 496.474,-187.47 493.453,-186.742 490.504,-185.927"/>
<polygon fill="midnightblue" stroke="midnightblue" points="1203.91,-235.184 1214.01,-231.982 1204.12,-228.187 1203.91,-235.184"/>
</g>
<!-- Node102 -->
<g id="node24" class="node"><title>Node102</title>
<g id="a_node24"><a xlink:href="api_2abi-default_2ipsec_8h.html" target="_top" xlink:title="ODP IPSEC API &#45; platform specific types. ">
<polygon fill="white" stroke="red" points="508.378,-168.5 508.378,-187.5 558.378,-187.5 558.378,-168.5 508.378,-168.5"/>
<text text-anchor="middle" x="533.378" y="-175.5" font-family="Helvetica,sans-Serif" font-size="10.00">ipsec.h</text>
</a>
</g>
</g>
<!-- Node15&#45;&gt;Node102 -->
<g id="edge23" class="edge"><title>Node15&#45;&gt;Node102</title>
<path fill="none" stroke="midnightblue" d="M1204.02,-233.017C1093.21,-232.392 804.534,-226.827 567.378,-188 564.486,-187.526 561.483,-186.914 558.512,-186.232"/>
<polygon fill="midnightblue" stroke="midnightblue" points="1204.17,-236.518 1214.18,-233.063 1204.2,-229.518 1204.17,-236.518"/>
</g>
<!-- Node111 -->
<g id="node25" class="node"><title>Node111</title>
<g id="a_node25"><a xlink:href="api_2abi-default_2packet__io_8h.html" target="_top" xlink:title="ODP Packet IO. ">
<polygon fill="white" stroke="red" points="576.878,-168.5 576.878,-187.5 647.878,-187.5 647.878,-168.5 576.878,-168.5"/>
<text text-anchor="middle" x="612.378" y="-175.5" font-family="Helvetica,sans-Serif" font-size="10.00">packet_io.h</text>
</a>
</g>
</g>
<!-- Node15&#45;&gt;Node111 -->
<g id="edge24" class="edge"><title>Node15&#45;&gt;Node111</title>
<path fill="none" stroke="midnightblue" d="M1204.03,-231.403C1103.87,-227.53 859.897,-215.831 657.378,-188 654.379,-187.588 651.278,-187.1 648.173,-186.567"/>
<polygon fill="midnightblue" stroke="midnightblue" points="1203.99,-234.903 1214.12,-231.785 1204.26,-227.908 1203.99,-234.903"/>
</g>
<!-- Node43 -->
<g id="node26" class="node"><title>Node43</title>
<g id="a_node26"><a xlink:href="api_2abi-default_2rwlock__recursive_8h.html" target="_top" xlink:title="ODP recursive read/write lock. ">
<polygon fill="white" stroke="red" points="666.378,-168.5 666.378,-187.5 770.378,-187.5 770.378,-168.5 666.378,-168.5"/>
<text text-anchor="middle" x="718.378" y="-175.5" font-family="Helvetica,sans-Serif" font-size="10.00">rwlock_recursive.h</text>
</a>
</g>
</g>
<!-- Node15&#45;&gt;Node43 -->
<g id="edge25" class="edge"><title>Node15&#45;&gt;Node43</title>
<path fill="none" stroke="midnightblue" d="M1204.23,-229.381C1119.78,-222.582 934.762,-206.873 779.378,-188 776.509,-187.652 773.566,-187.276 770.598,-186.884"/>
<polygon fill="midnightblue" stroke="midnightblue" points="1204.02,-232.875 1214.27,-230.185 1204.58,-225.897 1204.02,-232.875"/>
</g>
<!-- Node137 -->
<g id="node27" class="node"><title>Node137</title>
<g id="a_node27"><a xlink:href="api_2abi-default_2schedule_8h.html" target="_top" xlink:title="ODP schedule. ">
<polygon fill="white" stroke="red" points="788.378,-168.5 788.378,-187.5 856.378,-187.5 856.378,-168.5 788.378,-168.5"/>
<text text-anchor="middle" x="822.378" y="-175.5" font-family="Helvetica,sans-Serif" font-size="10.00">schedule.h</text>
</a>
</g>
</g>
<!-- Node15&#45;&gt;Node137 -->
<g id="edge26" class="edge"><title>Node15&#45;&gt;Node137</title>
<path fill="none" stroke="midnightblue" d="M1204.1,-228.86C1131.77,-222.101 987.659,-207.474 866.378,-188 863.145,-187.481 859.788,-186.89 856.435,-186.264"/>
<polygon fill="midnightblue" stroke="midnightblue" points="1203.96,-232.362 1214.24,-229.8 1204.6,-225.392 1203.96,-232.362"/>
</g>
<!-- Node145 -->
<g id="node28" class="node"><title>Node145</title>
<g id="a_node28"><a xlink:href="api_2abi-default_2spinlock__recursive_8h.html" target="_top" xlink:title="ODP recursive spinlock. ">
<polygon fill="white" stroke="red" points="874.878,-168.5 874.878,-187.5 987.878,-187.5 987.878,-168.5 874.878,-168.5"/>
<text text-anchor="middle" x="931.378" y="-175.5" font-family="Helvetica,sans-Serif" font-size="10.00">spinlock_recursive.h</text>
</a>
</g>
</g>
<!-- Node15&#45;&gt;Node145 -->
<g id="edge27" class="edge"><title>Node15&#45;&gt;Node145</title>
<path fill="none" stroke="midnightblue" d="M1203.91,-225.134C1144.72,-215.114 1042.78,-197.859 981.767,-187.53"/>
<polygon fill="midnightblue" stroke="midnightblue" points="1203.65,-228.64 1214.1,-226.858 1204.82,-221.738 1203.65,-228.64"/>
</g>
<!-- Node154 -->
<g id="node29" class="node"><title>Node154</title>
<g id="a_node29"><a xlink:href="api_2abi-default_2traffic__mngr_8h.html" target="_top" xlink:title="ODP traffic mngr. ">
<polygon fill="white" stroke="red" points="1005.88,-168.5 1005.88,-187.5 1088.88,-187.5 1088.88,-168.5 1005.88,-168.5"/>
<text text-anchor="middle" x="1047.38" y="-175.5" font-family="Helvetica,sans-Serif" font-size="10.00">traffic_mngr.h</text>
</a>
</g>
</g>
<!-- Node15&#45;&gt;Node154 -->
<g id="edge28" class="edge"><title>Node15&#45;&gt;Node154</title>
<path fill="none" stroke="midnightblue" d="M1208.38,-221.829C1170.06,-211.633 1114.23,-196.782 1079.39,-187.516"/>
<polygon fill="midnightblue" stroke="midnightblue" points="1207.65,-225.255 1218.21,-224.444 1209.45,-218.49 1207.65,-225.255"/>
</g>
<!-- Node33 -->
<g id="node30" class="node"><title>Node33</title>
<g id="a_node30"><a xlink:href="api_2barrier_8h.html" target="_top" xlink:title="ODP execution barriers. ">
<polygon fill="white" stroke="black" points="1137.38,-112.5 1137.38,-131.5 1193.38,-131.5 1193.38,-112.5 1137.38,-112.5"/>
<text text-anchor="middle" x="1165.38" y="-119.5" font-family="Helvetica,sans-Serif" font-size="10.00">barrier.h</text>
</a>
</g>
</g>
<!-- Node15&#45;&gt;Node33 -->
<g id="edge29" class="edge"><title>Node15&#45;&gt;Node33</title>
<path fill="none" stroke="midnightblue" d="M1237.45,-216.272C1219.08,-192.494 1186.08,-149.789 1172.02,-131.591"/>
<polygon fill="midnightblue" stroke="midnightblue" points="1234.82,-218.596 1243.71,-224.368 1240.36,-214.316 1234.82,-218.596"/>
</g>
<!-- Node162 -->
<g id="node31" class="node"><title>Node162</title>
<g id="a_node31"><a xlink:href="api_2buffer_8h.html" target="_top" xlink:title="ODP buffer descriptor. ">
<polygon fill="white" stroke="black" points="1211.88,-112.5 1211.88,-131.5 1264.88,-131.5 1264.88,-112.5 1211.88,-112.5"/>
<text text-anchor="middle" x="1238.38" y="-119.5" font-family="Helvetica,sans-Serif" font-size="10.00">buffer.h</text>
</a>
</g>
</g>
<!-- Node15&#45;&gt;Node162 -->
<g id="edge31" class="edge"><title>Node15&#45;&gt;Node162</title>
<path fill="none" stroke="midnightblue" d="M1248.34,-214.348C1245.71,-190.254 1241.25,-149.308 1239.32,-131.591"/>
<polygon fill="midnightblue" stroke="midnightblue" points="1244.87,-214.807 1249.44,-224.368 1251.83,-214.048 1244.87,-214.807"/>
</g>
<!-- Node119 -->
<g id="node32" class="node"><title>Node119</title>
<g id="a_node32"><a xlink:href="api_2classification_8h.html" target="_top" xlink:title="ODP classification descriptor. ">
<polygon fill="white" stroke="red" points="1425.38,-112.5 1425.38,-131.5 1511.38,-131.5 1511.38,-112.5 1425.38,-112.5"/>
<text text-anchor="middle" x="1468.38" y="-119.5" font-family="Helvetica,sans-Serif" font-size="10.00">classification.h</text>
</a>
</g>
</g>
<!-- Node15&#45;&gt;Node119 -->
<g id="edge33" class="edge"><title>Node15&#45;&gt;Node119</title>
<path fill="none" stroke="midnightblue" d="M1285.51,-221.02C1308.42,-212.749 1338.73,-200.941 1364.38,-188 1399.17,-170.448 1437.36,-144.775 1456.32,-131.56"/>
<polygon fill="midnightblue" stroke="midnightblue" points="1284.11,-217.802 1275.86,-224.451 1286.46,-224.398 1284.11,-217.802"/>
</g>
<!-- Node125 -->
<g id="node33" class="node"><title>Node125</title>
<g id="a_node33"><a xlink:href="api_2crypto_8h.html" target="_top" xlink:title="ODP crypto. ">
<polygon fill="white" stroke="red" points="2166.38,-112.5 2166.38,-131.5 2222.38,-131.5 2222.38,-112.5 2166.38,-112.5"/>
<text text-anchor="middle" x="2194.38" y="-119.5" font-family="Helvetica,sans-Serif" font-size="10.00">crypto.h</text>
</a>
</g>
</g>
<!-- Node15&#45;&gt;Node125 -->
<g id="edge35" class="edge"><title>Node15&#45;&gt;Node125</title>
<path fill="none" stroke="midnightblue" d="M1296.81,-232.619C1486.34,-230.839 2192.97,-221.941 2225.38,-188 2241.27,-171.363 2218.3,-145.062 2204.13,-131.585"/>
<polygon fill="midnightblue" stroke="midnightblue" points="1296.59,-229.12 1286.62,-232.712 1296.65,-236.12 1296.59,-229.12"/>
</g>
<!-- Node121 -->
<g id="node34" class="node"><title>Node121</title>
<g id="a_node34"><a xlink:href="api_2packet_8h.html" target="_top" xlink:title="ODP packet descriptor. ">
<polygon fill="white" stroke="red" points="1297.38,-168.5 1297.38,-187.5 1355.38,-187.5 1355.38,-168.5 1297.38,-168.5"/>
<text text-anchor="middle" x="1326.38" y="-175.5" font-family="Helvetica,sans-Serif" font-size="10.00">packet.h</text>
</a>
</g>
</g>
<!-- Node15&#45;&gt;Node121 -->
<g id="edge37" class="edge"><title>Node15&#45;&gt;Node121</title>
<path fill="none" stroke="midnightblue" d="M1270.95,-218.38C1284.69,-208.62 1302.3,-196.106 1313.95,-187.834"/>
<polygon fill="midnightblue" stroke="midnightblue" points="1268.71,-215.679 1262.59,-224.324 1272.77,-221.385 1268.71,-215.679"/>
</g>
<!-- Node135 -->
<g id="node35" class="node"><title>Node135</title>
<g id="a_node35"><a xlink:href="api_2spec_2packet__flags_8h.html" target="_top" xlink:title="ODP packet flags. ">
<polygon fill="white" stroke="red" points="1283.38,-112.5 1283.38,-131.5 1369.38,-131.5 1369.38,-112.5 1283.38,-112.5"/>
<text text-anchor="middle" x="1326.38" y="-119.5" font-family="Helvetica,sans-Serif" font-size="10.00">packet_flags.h</text>
</a>
</g>
</g>
<!-- Node15&#45;&gt;Node135 -->
<g id="edge52" class="edge"><title>Node15&#45;&gt;Node135</title>
<path fill="none" stroke="midnightblue" d="M1259.68,-215.232C1266.93,-201.872 1277.56,-183.313 1288.38,-168 1297.82,-154.638 1310.3,-140.401 1318.34,-131.601"/>
<polygon fill="midnightblue" stroke="midnightblue" points="1256.47,-213.825 1254.85,-224.296 1262.64,-217.12 1256.47,-213.825"/>
</g>
<!-- Node131 -->
<g id="node36" class="node"><title>Node131</title>
<g id="a_node36"><a xlink:href="api_2packet__io_8h.html" target="_top" xlink:title="ODP Packet IO. ">
<polygon fill="white" stroke="red" points="1449.88,-168.5 1449.88,-187.5 1520.88,-187.5 1520.88,-168.5 1449.88,-168.5"/>
<text text-anchor="middle" x="1485.38" y="-175.5" font-family="Helvetica,sans-Serif" font-size="10.00">packet_io.h</text>
</a>
</g>
</g>
<!-- Node15&#45;&gt;Node131 -->
<g id="edge40" class="edge"><title>Node15&#45;&gt;Node131</title>
<path fill="none" stroke="midnightblue" d="M1296.35,-222.436C1341.2,-212.13 1408.49,-196.668 1449.52,-187.24"/>
<polygon fill="midnightblue" stroke="midnightblue" points="1295.54,-219.03 1286.58,-224.681 1297.11,-225.852 1295.54,-219.03"/>
</g>
<!-- Node133 -->
<g id="node37" class="node"><title>Node133</title>
<g id="a_node37"><a xlink:href="api_2spec_2traffic__mngr_8h.html" target="_top" xlink:title="Copyright (c) 2015&#45;2018, Linaro Limited All rights reserved. ">
<polygon fill="white" stroke="red" points="1529.88,-112.5 1529.88,-131.5 1612.88,-131.5 1612.88,-112.5 1529.88,-112.5"/>
<text text-anchor="middle" x="1571.38" y="-119.5" font-family="Helvetica,sans-Serif" font-size="10.00">traffic_mngr.h</text>
</a>
</g>
</g>
<!-- Node15&#45;&gt;Node133 -->
<g id="edge57" class="edge"><title>Node15&#45;&gt;Node133</title>
<path fill="none" stroke="midnightblue" d="M1291.13,-221.647C1320.41,-213.176 1360.68,-200.885 1395.38,-188 1416.28,-180.24 1420.61,-176.097 1441.38,-168 1476.76,-154.208 1518.34,-140.189 1544.77,-131.546"/>
<polygon fill="midnightblue" stroke="midnightblue" points="1289.9,-218.357 1281.26,-224.478 1291.83,-225.085 1289.9,-218.357"/>
</g>
<!-- Node129 -->
<g id="node38" class="node"><title>Node129</title>
<g id="a_node38"><a xlink:href="api_2queue_8h.html" target="_top" xlink:title="ODP queue. ">
<polygon fill="white" stroke="red" points="2160.38,-168.5 2160.38,-187.5 2216.38,-187.5 2216.38,-168.5 2160.38,-168.5"/>
<text text-anchor="middle" x="2188.38" y="-175.5" font-family="Helvetica,sans-Serif" font-size="10.00">queue.h</text>
</a>
</g>
</g>
<!-- Node15&#45;&gt;Node129 -->
<g id="edge43" class="edge"><title>Node15&#45;&gt;Node129</title>
<path fill="none" stroke="midnightblue" d="M1296.62,-233.293C1429.42,-233.574 1823.12,-230.471 2146.38,-188 2150.81,-187.417 2155.48,-186.613 2160.02,-185.724"/>
<polygon fill="midnightblue" stroke="midnightblue" points="1296.43,-229.793 1286.42,-233.264 1296.41,-236.793 1296.43,-229.793"/>
</g>
<!-- Node88 -->
<g id="node39" class="node"><title>Node88</title>
<g id="a_node39"><a xlink:href="api_2spec_2schedule_8h.html" target="_top" xlink:title="ODP schedule. ">
<polygon fill="white" stroke="red" points="2042.38,-112.5 2042.38,-131.5 2110.38,-131.5 2110.38,-112.5 2042.38,-112.5"/>
<text text-anchor="middle" x="2076.38" y="-119.5" font-family="Helvetica,sans-Serif" font-size="10.00">schedule.h</text>
</a>
</g>
</g>
<!-- Node15&#45;&gt;Node88 -->
<g id="edge54" class="edge"><title>Node15&#45;&gt;Node88</title>
<path fill="none" stroke="midnightblue" d="M1296.83,-232.329C1472.13,-229.572 2085.07,-217.825 2113.38,-188 2129.74,-170.766 2103.8,-144.956 2087.68,-131.638"/>
<polygon fill="midnightblue" stroke="midnightblue" points="1296.58,-228.832 1286.64,-232.486 1296.69,-235.831 1296.58,-228.832"/>
</g>
<!-- Node163 -->
<g id="node40" class="node"><title>Node163</title>
<g id="a_node40"><a xlink:href="spec_2chksum_8h.html" target="_top" xlink:title="ODP Hash functions. ">
<polygon fill="white" stroke="red" points="1538.88,-168.5 1538.88,-187.5 1601.88,-187.5 1601.88,-168.5 1538.88,-168.5"/>
<text text-anchor="middle" x="1570.38" y="-175.5" font-family="Helvetica,sans-Serif" font-size="10.00">chksum.h</text>
</a>
</g>
</g>
<!-- Node15&#45;&gt;Node163 -->
<g id="edge47" class="edge"><title>Node15&#45;&gt;Node163</title>
<path fill="none" stroke="midnightblue" d="M1296.66,-226.46C1352.3,-218.389 1448.45,-203.784 1530.38,-188 1533.03,-187.488 1535.78,-186.93 1538.54,-186.351"/>
<polygon fill="midnightblue" stroke="midnightblue" points="1296.15,-222.997 1286.75,-227.89 1297.15,-229.925 1296.15,-222.997"/>
</g>
<!-- Node165 -->
<g id="node41" class="node"><title>Node165</title>
<g id="a_node41"><a xlink:href="api_2spec_2cpu_8h.html" target="_top" xlink:title="ODP CPU API. ">
<polygon fill="white" stroke="red" points="1619.88,-168.5 1619.88,-187.5 1662.88,-187.5 1662.88,-168.5 1619.88,-168.5"/>
<text text-anchor="middle" x="1641.38" y="-175.5" font-family="Helvetica,sans-Serif" font-size="10.00">cpu.h</text>
</a>
</g>
</g>
<!-- Node15&#45;&gt;Node165 -->
<g id="edge48" class="edge"><title>Node15&#45;&gt;Node165</title>
<path fill="none" stroke="midnightblue" d="M1296.69,-229.722C1365.79,-224.271 1499.69,-211.541 1611.38,-188 1614.14,-187.417 1617.03,-186.699 1619.86,-185.926"/>
<polygon fill="midnightblue" stroke="midnightblue" points="1296.28,-226.244 1286.58,-230.504 1296.82,-233.223 1296.28,-226.244"/>
</g>
<!-- Node167 -->
<g id="node42" class="node"><title>Node167</title>
<g id="a_node42"><a xlink:href="spec_2feature_8h.html" target="_top" xlink:title="ODP features. ">
<polygon fill="white" stroke="red" points="1681.38,-168.5 1681.38,-187.5 1741.38,-187.5 1741.38,-168.5 1681.38,-168.5"/>
<text text-anchor="middle" x="1711.38" y="-175.5" font-family="Helvetica,sans-Serif" font-size="10.00">feature.h</text>
</a>
</g>
</g>
<!-- Node15&#45;&gt;Node167 -->
<g id="edge49" class="edge"><title>Node15&#45;&gt;Node167</title>
<path fill="none" stroke="midnightblue" d="M1296.86,-229.885C1374.87,-224.247 1536.88,-210.773 1672.38,-188 1675.26,-187.516 1678.24,-186.949 1681.22,-186.339"/>
<polygon fill="midnightblue" stroke="midnightblue" points="1296.15,-226.427 1286.42,-230.629 1296.65,-233.409 1296.15,-226.427"/>
</g>
<!-- Node169 -->
<g id="node43" class="node"><title>Node169</title>
<g id="a_node43"><a xlink:href="spec_2hash_8h.html" target="_top" xlink:title="ODP Hash functions. ">
<polygon fill="white" stroke="red" points="1759.88,-168.5 1759.88,-187.5 1808.88,-187.5 1808.88,-168.5 1759.88,-168.5"/>
<text text-anchor="middle" x="1784.38" y="-175.5" font-family="Helvetica,sans-Serif" font-size="10.00">hash.h</text>
</a>
</g>
</g>
<!-- Node15&#45;&gt;Node169 -->
<g id="edge50" class="edge"><title>Node15&#45;&gt;Node169</title>
<path fill="none" stroke="midnightblue" d="M1296.68,-231.446C1385.34,-227.895 1585,-217.115 1750.38,-188 1753.38,-187.471 1756.51,-186.805 1759.6,-186.076"/>
<polygon fill="midnightblue" stroke="midnightblue" points="1296.28,-227.959 1286.42,-231.844 1296.55,-234.953 1296.28,-227.959"/>
</g>
<!-- Node90 -->
<g id="node44" class="node"><title>Node90</title>
<g id="a_node44"><a xlink:href="api_2spec_2init_8h.html" target="_top" xlink:title="init.h">
<polygon fill="white" stroke="red" points="1827.38,-168.5 1827.38,-187.5 1867.38,-187.5 1867.38,-168.5 1827.38,-168.5"/>
<text text-anchor="middle" x="1847.38" y="-175.5" font-family="Helvetica,sans-Serif" font-size="10.00">init.h</text>
</a>
</g>
</g>
<!-- Node15&#45;&gt;Node90 -->
<g id="edge51" class="edge"><title>Node15&#45;&gt;Node90</title>
<path fill="none" stroke="midnightblue" d="M1296.74,-232.792C1394.22,-231.599 1627.18,-224.769 1818.38,-188 1821.28,-187.442 1824.3,-186.698 1827.24,-185.876"/>
<polygon fill="midnightblue" stroke="midnightblue" points="1296.6,-229.293 1286.64,-232.901 1296.67,-236.293 1296.6,-229.293"/>
</g>
<!-- Node171 -->
<g id="node45" class="node"><title>Node171</title>
<g id="a_node45"><a xlink:href="api_2spec_2pool_8h.html" target="_top" xlink:title="ODP pool. ">
<polygon fill="white" stroke="red" points="1885.38,-168.5 1885.38,-187.5 1931.38,-187.5 1931.38,-168.5 1885.38,-168.5"/>
<text text-anchor="middle" x="1908.38" y="-175.5" font-family="Helvetica,sans-Serif" font-size="10.00">pool.h</text>
</a>
</g>
</g>
<!-- Node15&#45;&gt;Node171 -->
<g id="edge53" class="edge"><title>Node15&#45;&gt;Node171</title>
<path fill="none" stroke="midnightblue" d="M1296.88,-232.861C1401.31,-231.852 1662.09,-225.438 1876.38,-188 1879.22,-187.503 1882.17,-186.857 1885.09,-186.139"/>
<polygon fill="midnightblue" stroke="midnightblue" points="1296.65,-229.362 1286.68,-232.947 1296.71,-236.362 1296.65,-229.362"/>
</g>
<!-- Node173 -->
<g id="node46" class="node"><title>Node173</title>
<g id="a_node46"><a xlink:href="spec_2threshold_8h.html" target="_top" xlink:title="ODP threshold descriptor. ">
<polygon fill="white" stroke="red" points="1949.88,-168.5 1949.88,-187.5 2020.88,-187.5 2020.88,-168.5 1949.88,-168.5"/>
<text text-anchor="middle" x="1985.38" y="-175.5" font-family="Helvetica,sans-Serif" font-size="10.00">threshold.h</text>
</a>
</g>
</g>
<!-- Node15&#45;&gt;Node173 -->
<g id="edge55" class="edge"><title>Node15&#45;&gt;Node173</title>
<path fill="none" stroke="midnightblue" d="M1296.66,-232.093C1408,-229.452 1699.41,-219.812 1940.38,-188 1943.38,-187.604 1946.48,-187.127 1949.59,-186.602"/>
<polygon fill="midnightblue" stroke="midnightblue" points="1296.38,-228.599 1286.46,-232.327 1296.54,-235.597 1296.38,-228.599"/>
</g>
<!-- Node175 -->
<g id="node47" class="node"><title>Node175</title>
<g id="a_node47"><a xlink:href="api_2spec_2thrmask_8h.html" target="_top" xlink:title="ODP thread masks. ">
<polygon fill="white" stroke="red" points="2038.88,-168.5 2038.88,-187.5 2103.88,-187.5 2103.88,-168.5 2038.88,-168.5"/>
<text text-anchor="middle" x="2071.38" y="-175.5" font-family="Helvetica,sans-Serif" font-size="10.00">thrmask.h</text>
</a>
</g>
</g>
<!-- Node15&#45;&gt;Node175 -->
<g id="edge56" class="edge"><title>Node15&#45;&gt;Node175</title>
<path fill="none" stroke="midnightblue" d="M1296.78,-232.88C1417.99,-232.016 1753.9,-226.076 2030.38,-188 2033.12,-187.622 2035.95,-187.158 2038.79,-186.642"/>
<polygon fill="midnightblue" stroke="midnightblue" points="1296.71,-229.381 1286.73,-232.944 1296.75,-236.38 1296.71,-229.381"/>
</g>
<!-- Node176 -->
<g id="node48" class="node"><title>Node176</title>
<g id="a_node48"><a xlink:href="system__info_8h.html" target="_top" xlink:title="ODP system information. ">
<polygon fill="white" stroke="black" points="2240.88,-112.5 2240.88,-131.5 2323.88,-131.5 2323.88,-112.5 2240.88,-112.5"/>
<text text-anchor="middle" x="2282.38" y="-119.5" font-family="Helvetica,sans-Serif" font-size="10.00">system_info.h</text>
</a>
</g>
</g>
<!-- Node15&#45;&gt;Node176 -->
<g id="edge58" class="edge"><title>Node15&#45;&gt;Node176</title>
<path fill="none" stroke="midnightblue" d="M1296.68,-233.392C1481.33,-234.618 2159.18,-235.799 2241.38,-188 2263.06,-175.391 2275.01,-146.246 2279.83,-131.653"/>
<polygon fill="midnightblue" stroke="midnightblue" points="1296.51,-229.89 1286.49,-233.321 1296.46,-236.89 1296.51,-229.89"/>
</g>
<!-- Node177 -->
<g id="node49" class="node"><title>Node177</title>
<g id="a_node49"><a xlink:href="api_2time_8h.html" target="_top" xlink:title="ODP time. ">
<polygon fill="white" stroke="red" points="18.8781,-112.5 18.8781,-131.5 65.8781,-131.5 65.8781,-112.5 18.8781,-112.5"/>
<text text-anchor="middle" x="42.3781" y="-119.5" font-family="Helvetica,sans-Serif" font-size="10.00">time.h</text>
</a>
</g>
</g>
<!-- Node15&#45;&gt;Node177 -->
<g id="edge60" class="edge"><title>Node15&#45;&gt;Node177</title>
<path fill="none" stroke="midnightblue" d="M1203.82,-232.061C996.296,-227.763 163.496,-209.249 112.378,-188 83.5881,-176.033 59.3319,-146.587 48.4772,-131.789"/>
<polygon fill="midnightblue" stroke="midnightblue" points="1204,-235.566 1214.07,-232.273 1204.15,-228.567 1204,-235.566"/>
</g>
<!-- Node179 -->
<g id="node50" class="node"><title>Node179</title>
<g id="a_node50"><a xlink:href="api_2timer_8h.html" target="_top" xlink:title="ODP timer service. ">
<polygon fill="white" stroke="black" points="1031.38,-112.5 1031.38,-131.5 1081.38,-131.5 1081.38,-112.5 1031.38,-112.5"/>
<text text-anchor="middle" x="1056.38" y="-119.5" font-family="Helvetica,sans-Serif" font-size="10.00">timer.h</text>
</a>
</g>
</g>
<!-- Node15&#45;&gt;Node179 -->
<g id="edge62" class="edge"><title>Node15&#45;&gt;Node179</title>
<path fill="none" stroke="midnightblue" d="M1214.82,-221.007C1192.97,-212.989 1164.77,-201.46 1141.38,-188 1111.91,-171.043 1081.14,-145.114 1065.98,-131.705"/>
<polygon fill="midnightblue" stroke="midnightblue" points="1213.79,-224.353 1224.38,-224.439 1216.15,-217.765 1213.79,-224.353"/>
</g>
<!-- Node17 -->
<g id="node14" class="node"><title>Node17</title>
<g id="a_node14"><a xlink:href="arch_2arm32-linux_2odp_2api_2abi_2atomic_8h_source.html" target="_top" xlink:title="atomic.h">
<polygon fill="white" stroke="black" points="391.878,-112.5 391.878,-131.5 450.878,-131.5 450.878,-112.5 391.878,-112.5"/>
<text text-anchor="middle" x="421.378" y="-119.5" font-family="Helvetica,sans-Serif" font-size="10.00">atomic.h</text>
</a>
</g>
</g>
<!-- Node16&#45;&gt;Node17 -->
<g id="edge13" class="edge"><title>Node16&#45;&gt;Node17</title>
<path fill="none" stroke="midnightblue" d="M191.096,-167.925C277.036,-150.178 300.465,-149.123 382.378,-132 385.371,-131.374 388.487,-130.698 391.596,-130.007"/>
<polygon fill="midnightblue" stroke="midnightblue" points="190.237,-164.529 181.161,-169.993 191.664,-171.382 190.237,-164.529"/>
</g>
<!-- Node18 -->
<g id="node15" class="node"><title>Node18</title>
<g id="a_node15"><a xlink:href="arch_2arm64-linux_2odp_2api_2abi_2atomic_8h_source.html" target="_top" xlink:title="atomic.h">
<polygon fill="white" stroke="black" points="468.878,-112.5 468.878,-131.5 527.878,-131.5 527.878,-112.5 468.878,-112.5"/>
<text text-anchor="middle" x="498.378" y="-119.5" font-family="Helvetica,sans-Serif" font-size="10.00">atomic.h</text>
</a>
</g>
</g>
<!-- Node16&#45;&gt;Node18 -->
<g id="edge14" class="edge"><title>Node16&#45;&gt;Node18</title>
<path fill="none" stroke="midnightblue" d="M191.051,-168.042C310.782,-146.773 343.833,-153.016 459.378,-132 462.386,-131.453 465.512,-130.828 468.627,-130.168"/>
<polygon fill="midnightblue" stroke="midnightblue" points="190.349,-164.612 181.129,-169.832 191.592,-171.501 190.349,-164.612"/>
</g>
<!-- Node19 -->
<g id="node16" class="node"><title>Node19</title>
<g id="a_node16"><a xlink:href="arch_2default-linux_2odp_2api_2abi_2atomic_8h_source.html" target="_top" xlink:title="atomic.h">
<polygon fill="white" stroke="black" points="83.8781,-112.5 83.8781,-131.5 142.878,-131.5 142.878,-112.5 83.8781,-112.5"/>
<text text-anchor="middle" x="113.378" y="-119.5" font-family="Helvetica,sans-Serif" font-size="10.00">atomic.h</text>
</a>
</g>
</g>
<!-- Node16&#45;&gt;Node19 -->
<g id="edge15" class="edge"><title>Node16&#45;&gt;Node19</title>
<path fill="none" stroke="midnightblue" d="M139.313,-159.855C132.733,-150.505 124.867,-139.327 119.536,-131.751"/>
<polygon fill="midnightblue" stroke="midnightblue" points="136.486,-161.919 145.103,-168.083 142.211,-157.891 136.486,-161.919"/>
</g>
<!-- Node20 -->
<g id="node17" class="node"><title>Node20</title>
<g id="a_node17"><a xlink:href="arch_2mips64-linux_2odp_2api_2abi_2atomic_8h_source.html" target="_top" xlink:title="atomic.h">
<polygon fill="white" stroke="black" points="160.878,-112.5 160.878,-131.5 219.878,-131.5 219.878,-112.5 160.878,-112.5"/>
<text text-anchor="middle" x="190.378" y="-119.5" font-family="Helvetica,sans-Serif" font-size="10.00">atomic.h</text>
</a>
</g>
</g>
<!-- Node16&#45;&gt;Node20 -->
<g id="edge16" class="edge"><title>Node16&#45;&gt;Node20</title>
<path fill="none" stroke="midnightblue" d="M163.76,-159.855C170.513,-150.505 178.587,-139.327 184.058,-131.751"/>
<polygon fill="midnightblue" stroke="midnightblue" points="160.836,-157.927 157.818,-168.083 166.51,-162.025 160.836,-157.927"/>
</g>
<!-- Node21 -->
<g id="node18" class="node"><title>Node21</title>
<g id="a_node18"><a xlink:href="arch_2power64-linux_2odp_2api_2abi_2atomic_8h_source.html" target="_top" xlink:title="atomic.h">
<polygon fill="white" stroke="black" points="237.878,-112.5 237.878,-131.5 296.878,-131.5 296.878,-112.5 237.878,-112.5"/>
<text text-anchor="middle" x="267.378" y="-119.5" font-family="Helvetica,sans-Serif" font-size="10.00">atomic.h</text>
</a>
</g>
</g>
<!-- Node16&#45;&gt;Node21 -->
<g id="edge17" class="edge"><title>Node16&#45;&gt;Node21</title>
<path fill="none" stroke="midnightblue" d="M179.098,-164.096C200.77,-154.007 230.28,-140.27 249.084,-131.516"/>
<polygon fill="midnightblue" stroke="midnightblue" points="177.347,-161.05 169.759,-168.444 180.302,-167.396 177.347,-161.05"/>
</g>
<!-- Node22 -->
<g id="node19" class="node"><title>Node22</title>
<g id="a_node19"><a xlink:href="arch_2x86__32-linux_2odp_2api_2abi_2atomic_8h_source.html" target="_top" xlink:title="atomic.h">
<polygon fill="white" stroke="black" points="314.878,-112.5 314.878,-131.5 373.878,-131.5 373.878,-112.5 314.878,-112.5"/>
<text text-anchor="middle" x="344.378" y="-119.5" font-family="Helvetica,sans-Serif" font-size="10.00">atomic.h</text>
</a>
</g>
</g>
<!-- Node16&#45;&gt;Node22 -->
<g id="edge18" class="edge"><title>Node16&#45;&gt;Node22</title>
<path fill="none" stroke="midnightblue" d="M190.977,-165.92C227.673,-155.653 281.446,-140.608 314.611,-131.329"/>
<polygon fill="midnightblue" stroke="midnightblue" points="189.798,-162.616 181.111,-168.681 191.685,-169.357 189.798,-162.616"/>
</g>
<!-- Node33&#45;&gt;Node13 -->
<g id="edge30" class="edge"><title>Node33&#45;&gt;Node13</title>
<path fill="none" stroke="midnightblue" d="M1199.05,-109.039C1227.65,-98.8786 1267.99,-84.5457 1293.41,-75.5164"/>
<polygon fill="midnightblue" stroke="midnightblue" points="1197.71,-105.798 1189.46,-112.444 1200.06,-112.394 1197.71,-105.798"/>
</g>
<!-- Node162&#45;&gt;Node13 -->
<g id="edge32" class="edge"><title>Node162&#45;&gt;Node13</title>
<path fill="none" stroke="midnightblue" d="M1259.41,-106.622C1273.84,-96.7574 1292.52,-83.9919 1304.72,-75.6545"/>
<polygon fill="midnightblue" stroke="midnightblue" points="1257.35,-103.791 1251.07,-112.324 1261.3,-109.57 1257.35,-103.791"/>
</g>
<!-- Node119&#45;&gt;Node13 -->
<g id="edge34" class="edge"><title>Node119&#45;&gt;Node13</title>
<path fill="none" stroke="midnightblue" d="M1434.93,-109.039C1406.52,-98.8786 1366.44,-84.5457 1341.19,-75.5164"/>
<polygon fill="midnightblue" stroke="midnightblue" points="1433.86,-112.372 1444.45,-112.444 1436.21,-105.781 1433.86,-112.372"/>
</g>
<!-- Node125&#45;&gt;Node13 -->
<g id="edge36" class="edge"><title>Node125&#45;&gt;Node13</title>
<path fill="none" stroke="midnightblue" d="M2156.17,-112.547C2154.89,-112.35 2153.63,-112.166 2152.38,-112 1841.19,-70.5346 1459.91,-67.0127 1349.01,-66.9187"/>
<polygon fill="midnightblue" stroke="midnightblue" points="2155.56,-115.994 2166.02,-114.291 2156.78,-109.101 2155.56,-115.994"/>
</g>
<!-- Node121&#45;&gt;Node13 -->
<g id="edge39" class="edge"><title>Node121&#45;&gt;Node13</title>
<path fill="none" stroke="midnightblue" d="M1350.63,-162.846C1368.51,-150.439 1388.17,-131.401 1378.38,-112 1369.84,-95.0837 1351.6,-82.96 1337.28,-75.5896"/>
<polygon fill="midnightblue" stroke="midnightblue" points="1348.6,-159.99 1342.13,-168.376 1352.42,-165.857 1348.6,-159.99"/>
</g>
<!-- Node121&#45;&gt;Node135 -->
<g id="edge38" class="edge"><title>Node121&#45;&gt;Node135</title>
<path fill="none" stroke="midnightblue" d="M1326.38,-157.805C1326.38,-148.91 1326.38,-138.78 1326.38,-131.751"/>
<polygon fill="midnightblue" stroke="midnightblue" points="1322.88,-158.083 1326.38,-168.083 1329.88,-158.083 1322.88,-158.083"/>
</g>
<!-- Node131&#45;&gt;Node13 -->
<g id="edge42" class="edge"><title>Node131&#45;&gt;Node13</title>
<path fill="none" stroke="midnightblue" d="M1527.77,-165.765C1565.82,-155.253 1616.58,-140.004 1622.38,-132 1627.59,-124.8 1628.19,-118.728 1622.38,-112 1587.27,-71.3324 1419.67,-66.774 1348.96,-66.7007"/>
<polygon fill="midnightblue" stroke="midnightblue" points="1526.63,-162.446 1517.91,-168.461 1528.48,-169.198 1526.63,-162.446"/>
</g>
<!-- Node131&#45;&gt;Node133 -->
<g id="edge41" class="edge"><title>Node131&#45;&gt;Node133</title>
<path fill="none" stroke="midnightblue" d="M1507.83,-162.901C1523.6,-152.999 1544.19,-140.071 1557.59,-131.655"/>
<polygon fill="midnightblue" stroke="midnightblue" points="1505.8,-160.042 1499.2,-168.324 1509.53,-165.97 1505.8,-160.042"/>
</g>
<!-- Node129&#45;&gt;Node13 -->
<g id="edge46" class="edge"><title>Node129&#45;&gt;Node13</title>
<path fill="none" stroke="midnightblue" d="M2176.09,-159.979C2163.73,-144.38 2143.14,-122.21 2119.38,-112 2047.71,-81.2059 1488.66,-69.8651 1348.94,-67.4964"/>
<polygon fill="midnightblue" stroke="midnightblue" points="2173.54,-162.413 2182.38,-168.263 2179.12,-158.181 2173.54,-162.413"/>
</g>
<!-- Node129&#45;&gt;Node125 -->
<g id="edge44" class="edge"><title>Node129&#45;&gt;Node125</title>
<path fill="none" stroke="midnightblue" d="M2190.48,-158.101C2191.47,-149.136 2192.62,-138.858 2193.41,-131.751"/>
<polygon fill="midnightblue" stroke="midnightblue" points="2186.99,-157.758 2189.37,-168.083 2193.95,-158.531 2186.99,-157.758"/>
</g>
<!-- Node129&#45;&gt;Node88 -->
<g id="edge45" class="edge"><title>Node129&#45;&gt;Node88</title>
<path fill="none" stroke="midnightblue" d="M2161.13,-163.862C2140.36,-153.849 2112.35,-140.346 2094.33,-131.655"/>
<polygon fill="midnightblue" stroke="midnightblue" points="2159.86,-167.134 2170.38,-168.324 2162.9,-160.828 2159.86,-167.134"/>
</g>
<!-- Node176&#45;&gt;Node13 -->
<g id="edge59" class="edge"><title>Node176&#45;&gt;Node13</title>
<path fill="none" stroke="midnightblue" d="M2230.58,-112.074C1879.22,-73.2106 1465.29,-67.8756 1349.07,-67.123"/>
<polygon fill="midnightblue" stroke="midnightblue" points="2230.36,-115.572 2240.69,-113.204 2231.14,-108.616 2230.36,-115.572"/>
</g>
<!-- Node177&#45;&gt;Node13 -->
<g id="edge61" class="edge"><title>Node177&#45;&gt;Node13</title>
<path fill="none" stroke="midnightblue" d="M76.2587,-112.122C339.081,-73.7145 1119.26,-67.9456 1285.87,-67.1262"/>
<polygon fill="midnightblue" stroke="midnightblue" points="75.366,-108.717 66.0047,-113.678 76.4168,-115.638 75.366,-108.717"/>
</g>
<!-- Node179&#45;&gt;Node13 -->
<g id="edge63" class="edge"><title>Node179&#45;&gt;Node13</title>
<path fill="none" stroke="midnightblue" d="M1091.54,-112.84C1092.83,-112.554 1094.12,-112.273 1095.38,-112 1163.02,-97.3421 1242.58,-81.5693 1285.71,-73.1427"/>
<polygon fill="midnightblue" stroke="midnightblue" points="1090.52,-109.482 1081.53,-115.091 1092.06,-116.311 1090.52,-109.482"/>
</g>
</g>
</svg>
