<?xml version="1.0" encoding="UTF-8" standalone="no"?>
<!DOCTYPE svg PUBLIC "-//W3C//DTD SVG 1.1//EN"
 "http://www.w3.org/Graphics/SVG/1.1/DTD/svg11.dtd">
<!-- Generated by graphviz version 2.38.0 (20140413.2041)
 -->
<!-- Title: std_types.h Pages: 1 -->
<svg width="3079pt" height="252pt"
 viewBox="0.00 0.00 3078.50 252.00" xmlns="http://www.w3.org/2000/svg" xmlns:xlink="http://www.w3.org/1999/xlink">
<g id="graph0" class="graph" transform="scale(1 1) rotate(0) translate(4 248)">
<title>std_types.h</title>
<polygon fill="white" stroke="none" points="-4,4 -4,-248 3074.5,-248 3074.5,4 -4,4"/>
<!-- Node6 -->
<g id="node1" class="node"><title>Node6</title>
<polygon fill="#bfbfbf" stroke="black" points="2093.5,-224.5 2093.5,-243.5 2165.5,-243.5 2165.5,-224.5 2093.5,-224.5"/>
<text text-anchor="middle" x="2129.5" y="-231.5" font-family="Helvetica,sans-Serif" font-size="10.00">std_types.h</text>
</g>
<!-- Node7 -->
<g id="node2" class="node"><title>Node7</title>
<g id="a_node2"><a xlink:href="api_2abi-default_2atomic_8h.html" target="_top" xlink:title="ODP atomic operations. ">
<polygon fill="white" stroke="black" points="269,-168.5 269,-187.5 328,-187.5 328,-168.5 269,-168.5"/>
<text text-anchor="middle" x="298.5" y="-175.5" font-family="Helvetica,sans-Serif" font-size="10.00">atomic.h</text>
</a>
</g>
</g>
<!-- Node6&#45;&gt;Node7 -->
<g id="edge1" class="edge"><title>Node6&#45;&gt;Node7</title>
<path fill="none" stroke="midnightblue" d="M2083.07,-231.631C1821.97,-223.93 540.663,-186.142 328.335,-179.88"/>
<polygon fill="midnightblue" stroke="midnightblue" points="2083.24,-235.137 2093.34,-231.933 2083.44,-228.14 2083.24,-235.137"/>
</g>
<!-- Node16 -->
<g id="node10" class="node"><title>Node16</title>
<g id="a_node10"><a xlink:href="api_2abi-default_2barrier_8h.html" target="_top" xlink:title="ODP barrier. ">
<polygon fill="white" stroke="black" points="798.5,-168.5 798.5,-187.5 854.5,-187.5 854.5,-168.5 798.5,-168.5"/>
<text text-anchor="middle" x="826.5" y="-175.5" font-family="Helvetica,sans-Serif" font-size="10.00">barrier.h</text>
</a>
</g>
</g>
<!-- Node6&#45;&gt;Node16 -->
<g id="edge9" class="edge"><title>Node6&#45;&gt;Node16</title>
<path fill="none" stroke="midnightblue" d="M2083.26,-231.084C1874.29,-222.423 1020.99,-187.06 854.676,-180.168"/>
<polygon fill="midnightblue" stroke="midnightblue" points="2083.15,-234.582 2093.29,-231.499 2083.44,-227.588 2083.15,-234.582"/>
</g>
<!-- Node24 -->
<g id="node18" class="node"><title>Node24</title>
<g id="a_node18"><a xlink:href="api_2barrier_8h.html" target="_top" xlink:title="ODP execution barriers. ">
<polygon fill="white" stroke="black" points="1021.5,-56.5 1021.5,-75.5 1077.5,-75.5 1077.5,-56.5 1021.5,-56.5"/>
<text text-anchor="middle" x="1049.5" y="-63.5" font-family="Helvetica,sans-Serif" font-size="10.00">barrier.h</text>
</a>
</g>
</g>
<!-- Node6&#45;&gt;Node24 -->
<g id="edge30" class="edge"><title>Node6&#45;&gt;Node24</title>
<path fill="none" stroke="midnightblue" d="M2082.98,-232.43C1886.35,-229.838 1131.74,-217.964 1091.5,-188 1054.58,-160.511 1049.91,-98.3642 1049.47,-75.5807"/>
<polygon fill="midnightblue" stroke="midnightblue" points="2083.21,-235.933 2093.25,-232.564 2083.3,-228.934 2083.21,-235.933"/>
</g>
<!-- Node25 -->
<g id="node19" class="node"><title>Node25</title>
<g id="a_node19"><a xlink:href="odp__api_8h.html" target="_top" xlink:title="The OpenDataPlane API. ">
<polygon fill="white" stroke="red" points="2164,-0.5 2164,-19.5 2227,-19.5 2227,-0.5 2164,-0.5"/>
<text text-anchor="middle" x="2195.5" y="-7.5" font-family="Helvetica,sans-Serif" font-size="10.00">odp_api.h</text>
</a>
</g>
</g>
<!-- Node6&#45;&gt;Node25 -->
<g id="edge64" class="edge"><title>Node6&#45;&gt;Node25</title>
<path fill="none" stroke="midnightblue" d="M2083.22,-232.687C1890.24,-231.157 1158.02,-223.055 1124.5,-188 1101.16,-163.587 1101.76,-136.981 1124.5,-112 1196.35,-33.055 1994.06,-14.5619 2163.84,-11.5096"/>
<polygon fill="midnightblue" stroke="midnightblue" points="2083.29,-236.187 2093.32,-232.764 2083.35,-229.187 2083.29,-236.187"/>
</g>
<!-- Node54 -->
<g id="node20" class="node"><title>Node54</title>
<g id="a_node20"><a xlink:href="api_2abi-default_2byteorder_8h.html" target="_top" xlink:title="ODP byteorder. ">
<polygon fill="white" stroke="red" points="1134,-168.5 1134,-187.5 1205,-187.5 1205,-168.5 1134,-168.5"/>
<text text-anchor="middle" x="1169.5" y="-175.5" font-family="Helvetica,sans-Serif" font-size="10.00">byteorder.h</text>
</a>
</g>
</g>
<!-- Node6&#45;&gt;Node54 -->
<g id="edge19" class="edge"><title>Node6&#45;&gt;Node54</title>
<path fill="none" stroke="midnightblue" d="M2082.71,-233.215C1947.47,-233.298 1544.56,-229.743 1213.5,-188 1210.87,-187.668 1208.16,-187.266 1205.44,-186.818"/>
<polygon fill="midnightblue" stroke="midnightblue" points="2083.11,-236.715 2093.11,-233.201 2083.1,-229.715 2083.11,-236.715"/>
</g>
<!-- Node63 -->
<g id="node23" class="node"><title>Node63</title>
<g id="a_node23"><a xlink:href="api_2abi-default_2cpumask_8h.html" target="_top" xlink:title="ODP CPU masks and enumeration. ">
<polygon fill="white" stroke="red" points="1223,-168.5 1223,-187.5 1292,-187.5 1292,-168.5 1223,-168.5"/>
<text text-anchor="middle" x="1257.5" y="-175.5" font-family="Helvetica,sans-Serif" font-size="10.00">cpumask.h</text>
</a>
</g>
</g>
<!-- Node6&#45;&gt;Node63 -->
<g id="edge22" class="edge"><title>Node6&#45;&gt;Node63</title>
<path fill="none" stroke="midnightblue" d="M2083.36,-232.872C1957.46,-232.011 1597.66,-226.126 1301.5,-188 1298.41,-187.602 1295.21,-187.108 1292.01,-186.559"/>
<polygon fill="midnightblue" stroke="midnightblue" points="2083.39,-236.373 2093.41,-232.934 2083.44,-229.373 2083.39,-236.373"/>
</g>
<!-- Node87 -->
<g id="node24" class="node"><title>Node87</title>
<g id="a_node24"><a xlink:href="api_2abi-default_2init_8h.html" target="_top" xlink:title="ODP initialization. ">
<polygon fill="white" stroke="red" points="1310.5,-168.5 1310.5,-187.5 1350.5,-187.5 1350.5,-168.5 1310.5,-168.5"/>
<text text-anchor="middle" x="1330.5" y="-175.5" font-family="Helvetica,sans-Serif" font-size="10.00">init.h</text>
</a>
</g>
</g>
<!-- Node6&#45;&gt;Node87 -->
<g id="edge23" class="edge"><title>Node6&#45;&gt;Node87</title>
<path fill="none" stroke="midnightblue" d="M2082.85,-231.756C1938.36,-227.67 1499.61,-213.444 1359.5,-188 1356.6,-187.473 1353.57,-186.745 1350.63,-185.931"/>
<polygon fill="midnightblue" stroke="midnightblue" points="2083.04,-235.263 2093.13,-232.044 2083.23,-228.265 2083.04,-235.263"/>
</g>
<!-- Node95 -->
<g id="node25" class="node"><title>Node95</title>
<g id="a_node25"><a xlink:href="api_2abi-default_2ipsec_8h.html" target="_top" xlink:title="ODP IPSEC API &#45; platform specific types. ">
<polygon fill="white" stroke="red" points="1368.5,-168.5 1368.5,-187.5 1418.5,-187.5 1418.5,-168.5 1368.5,-168.5"/>
<text text-anchor="middle" x="1393.5" y="-175.5" font-family="Helvetica,sans-Serif" font-size="10.00">ipsec.h</text>
</a>
</g>
</g>
<!-- Node6&#45;&gt;Node95 -->
<g id="edge24" class="edge"><title>Node6&#45;&gt;Node95</title>
<path fill="none" stroke="midnightblue" d="M2083.42,-233.136C1970.7,-232.799 1672.38,-227.869 1427.5,-188 1424.61,-187.529 1421.6,-186.918 1418.63,-186.237"/>
<polygon fill="midnightblue" stroke="midnightblue" points="2083.42,-236.636 2093.43,-233.155 2083.43,-229.636 2083.42,-236.636"/>
</g>
<!-- Node104 -->
<g id="node26" class="node"><title>Node104</title>
<g id="a_node26"><a xlink:href="api_2abi-default_2packet__io_8h.html" target="_top" xlink:title="ODP Packet IO. ">
<polygon fill="white" stroke="red" points="1437,-168.5 1437,-187.5 1508,-187.5 1508,-168.5 1437,-168.5"/>
<text text-anchor="middle" x="1472.5" y="-175.5" font-family="Helvetica,sans-Serif" font-size="10.00">packet_io.h</text>
</a>
</g>
</g>
<!-- Node6&#45;&gt;Node104 -->
<g id="edge25" class="edge"><title>Node6&#45;&gt;Node104</title>
<path fill="none" stroke="midnightblue" d="M2083.17,-231.555C1980.75,-227.931 1727.52,-216.612 1517.5,-188 1514.5,-187.591 1511.4,-187.106 1508.29,-186.575"/>
<polygon fill="midnightblue" stroke="midnightblue" points="2083.35,-235.063 2093.47,-231.911 2083.59,-228.067 2083.35,-235.063"/>
</g>
<!-- Node36 -->
<g id="node27" class="node"><title>Node36</title>
<g id="a_node27"><a xlink:href="api_2abi-default_2rwlock__recursive_8h.html" target="_top" xlink:title="ODP recursive read/write lock. ">
<polygon fill="white" stroke="red" points="1526.5,-168.5 1526.5,-187.5 1630.5,-187.5 1630.5,-168.5 1526.5,-168.5"/>
<text text-anchor="middle" x="1578.5" y="-175.5" font-family="Helvetica,sans-Serif" font-size="10.00">rwlock_recursive.h</text>
</a>
</g>
</g>
<!-- Node6&#45;&gt;Node36 -->
<g id="edge26" class="edge"><title>Node6&#45;&gt;Node36</title>
<path fill="none" stroke="midnightblue" d="M2083.4,-229.615C1996.45,-223.043 1802.32,-207.472 1639.5,-188 1636.63,-187.657 1633.69,-187.286 1630.72,-186.897"/>
<polygon fill="midnightblue" stroke="midnightblue" points="2083.23,-233.112 2093.47,-230.372 2083.76,-226.132 2083.23,-233.112"/>
</g>
<!-- Node130 -->
<g id="node28" class="node"><title>Node130</title>
<g id="a_node28"><a xlink:href="api_2abi-default_2schedule_8h.html" target="_top" xlink:title="ODP schedule. ">
<polygon fill="white" stroke="red" points="1648.5,-168.5 1648.5,-187.5 1716.5,-187.5 1716.5,-168.5 1648.5,-168.5"/>
<text text-anchor="middle" x="1682.5" y="-175.5" font-family="Helvetica,sans-Serif" font-size="10.00">schedule.h</text>
</a>
</g>
</g>
<!-- Node6&#45;&gt;Node130 -->
<g id="edge27" class="edge"><title>Node6&#45;&gt;Node130</title>
<path fill="none" stroke="midnightblue" d="M2083.32,-229.3C2008.07,-222.947 1854.45,-208.629 1725.5,-188 1722.64,-187.542 1719.68,-187.022 1716.71,-186.468"/>
<polygon fill="midnightblue" stroke="midnightblue" points="2083.15,-232.798 2093.4,-230.143 2083.73,-225.822 2083.15,-232.798"/>
</g>
<!-- Node138 -->
<g id="node29" class="node"><title>Node138</title>
<g id="a_node29"><a xlink:href="api_2abi-default_2spinlock__recursive_8h.html" target="_top" xlink:title="ODP recursive spinlock. ">
<polygon fill="white" stroke="red" points="1735,-168.5 1735,-187.5 1848,-187.5 1848,-168.5 1735,-168.5"/>
<text text-anchor="middle" x="1791.5" y="-175.5" font-family="Helvetica,sans-Serif" font-size="10.00">spinlock_recursive.h</text>
</a>
</g>
</g>
<!-- Node6&#45;&gt;Node138 -->
<g id="edge28" class="edge"><title>Node6&#45;&gt;Node138</title>
<path fill="none" stroke="midnightblue" d="M2083.4,-225.635C2021.18,-215.695 1910.56,-198.022 1844.83,-187.52"/>
<polygon fill="midnightblue" stroke="midnightblue" points="2082.9,-229.1 2093.33,-227.221 2084.01,-222.187 2082.9,-229.1"/>
</g>
<!-- Node147 -->
<g id="node30" class="node"><title>Node147</title>
<g id="a_node30"><a xlink:href="api_2abi-default_2traffic__mngr_8h.html" target="_top" xlink:title="ODP traffic mngr. ">
<polygon fill="white" stroke="red" points="1866,-168.5 1866,-187.5 1949,-187.5 1949,-168.5 1866,-168.5"/>
<text text-anchor="middle" x="1907.5" y="-175.5" font-family="Helvetica,sans-Serif" font-size="10.00">traffic_mngr.h</text>
</a>
</g>
</g>
<!-- Node6&#45;&gt;Node147 -->
<g id="edge29" class="edge"><title>Node6&#45;&gt;Node147</title>
<path fill="none" stroke="midnightblue" d="M2084.38,-222.024C2042.44,-211.823 1980.85,-196.841 1942.51,-187.516"/>
<polygon fill="midnightblue" stroke="midnightblue" points="2083.78,-225.481 2094.32,-224.444 2085.43,-218.679 2083.78,-225.481"/>
</g>
<!-- Node155 -->
<g id="node31" class="node"><title>Node155</title>
<g id="a_node31"><a xlink:href="api_2buffer_8h.html" target="_top" xlink:title="ODP buffer descriptor. ">
<polygon fill="white" stroke="black" points="1901,-56.5 1901,-75.5 1954,-75.5 1954,-56.5 1901,-56.5"/>
<text text-anchor="middle" x="1927.5" y="-63.5" font-family="Helvetica,sans-Serif" font-size="10.00">buffer.h</text>
</a>
</g>
</g>
<!-- Node6&#45;&gt;Node155 -->
<g id="edge31" class="edge"><title>Node6&#45;&gt;Node155</title>
<path fill="none" stroke="midnightblue" d="M2086.87,-221.196C2065.54,-213.913 2040.15,-203.043 2020.5,-188 1977.38,-154.978 1943.68,-97.2514 1931.97,-75.5616"/>
<polygon fill="midnightblue" stroke="midnightblue" points="2086.07,-224.616 2096.66,-224.389 2088.24,-217.961 2086.07,-224.616"/>
</g>
<!-- Node112 -->
<g id="node32" class="node"><title>Node112</title>
<g id="a_node32"><a xlink:href="api_2classification_8h.html" target="_top" xlink:title="ODP classification descriptor. ">
<polygon fill="white" stroke="red" points="1972.5,-56.5 1972.5,-75.5 2058.5,-75.5 2058.5,-56.5 1972.5,-56.5"/>
<text text-anchor="middle" x="2015.5" y="-63.5" font-family="Helvetica,sans-Serif" font-size="10.00">classification.h</text>
</a>
</g>
</g>
<!-- Node6&#45;&gt;Node112 -->
<g id="edge33" class="edge"><title>Node6&#45;&gt;Node112</title>
<path fill="none" stroke="midnightblue" d="M2083.62,-221.414C2065.64,-214.586 2046.49,-204.031 2034.5,-188 2008.52,-153.26 2011.88,-97.0506 2014.32,-75.649"/>
<polygon fill="midnightblue" stroke="midnightblue" points="2082.84,-224.849 2093.44,-224.835 2085.15,-218.239 2082.84,-224.849"/>
</g>
<!-- Node118 -->
<g id="node33" class="node"><title>Node118</title>
<g id="a_node33"><a xlink:href="api_2crypto_8h.html" target="_top" xlink:title="ODP crypto. ">
<polygon fill="white" stroke="red" points="2325.5,-112.5 2325.5,-131.5 2381.5,-131.5 2381.5,-112.5 2325.5,-112.5"/>
<text text-anchor="middle" x="2353.5" y="-119.5" font-family="Helvetica,sans-Serif" font-size="10.00">crypto.h</text>
</a>
</g>
</g>
<!-- Node6&#45;&gt;Node118 -->
<g id="edge35" class="edge"><title>Node6&#45;&gt;Node118</title>
<path fill="none" stroke="midnightblue" d="M2171.06,-221.568C2196.92,-213.716 2230.47,-202.165 2258.5,-188 2291.32,-171.418 2326.04,-145.093 2342.97,-131.598"/>
<polygon fill="midnightblue" stroke="midnightblue" points="2169.79,-218.294 2161.2,-224.496 2171.78,-225.004 2169.79,-218.294"/>
</g>
<!-- Node114 -->
<g id="node34" class="node"><title>Node114</title>
<g id="a_node34"><a xlink:href="api_2packet_8h.html" target="_top" xlink:title="ODP packet descriptor. ">
<polygon fill="white" stroke="red" points="2043.5,-168.5 2043.5,-187.5 2101.5,-187.5 2101.5,-168.5 2043.5,-168.5"/>
<text text-anchor="middle" x="2072.5" y="-175.5" font-family="Helvetica,sans-Serif" font-size="10.00">packet.h</text>
</a>
</g>
</g>
<!-- Node6&#45;&gt;Node114 -->
<g id="edge37" class="edge"><title>Node6&#45;&gt;Node114</title>
<path fill="none" stroke="midnightblue" d="M2112.88,-217.253C2102.77,-207.673 2090.22,-195.791 2081.82,-187.834"/>
<polygon fill="midnightblue" stroke="midnightblue" points="2110.68,-219.987 2120.34,-224.324 2115.49,-214.906 2110.68,-219.987"/>
</g>
<!-- Node128 -->
<g id="node35" class="node"><title>Node128</title>
<g id="a_node35"><a xlink:href="api_2spec_2packet__flags_8h.html" target="_top" xlink:title="ODP packet flags. ">
<polygon fill="white" stroke="red" points="2081.5,-112.5 2081.5,-131.5 2167.5,-131.5 2167.5,-112.5 2081.5,-112.5"/>
<text text-anchor="middle" x="2124.5" y="-119.5" font-family="Helvetica,sans-Serif" font-size="10.00">packet_flags.h</text>
</a>
</g>
</g>
<!-- Node6&#45;&gt;Node128 -->
<g id="edge52" class="edge"><title>Node6&#45;&gt;Node128</title>
<path fill="none" stroke="midnightblue" d="M2128.65,-214.348C2127.56,-190.254 2125.7,-149.308 2124.89,-131.591"/>
<polygon fill="midnightblue" stroke="midnightblue" points="2125.16,-214.538 2129.11,-224.368 2132.15,-214.22 2125.16,-214.538"/>
</g>
<!-- Node124 -->
<g id="node36" class="node"><title>Node124</title>
<g id="a_node36"><a xlink:href="api_2packet__io_8h.html" target="_top" xlink:title="ODP Packet IO. ">
<polygon fill="white" stroke="red" points="2158,-168.5 2158,-187.5 2229,-187.5 2229,-168.5 2158,-168.5"/>
<text text-anchor="middle" x="2193.5" y="-175.5" font-family="Helvetica,sans-Serif" font-size="10.00">packet_io.h</text>
</a>
</g>
</g>
<!-- Node6&#45;&gt;Node124 -->
<g id="edge40" class="edge"><title>Node6&#45;&gt;Node124</title>
<path fill="none" stroke="midnightblue" d="M2147.49,-217.82C2158.96,-208.145 2173.41,-195.948 2183.03,-187.834"/>
<polygon fill="midnightblue" stroke="midnightblue" points="2145.17,-215.2 2139.78,-224.324 2149.68,-220.55 2145.17,-215.2"/>
</g>
<!-- Node126 -->
<g id="node37" class="node"><title>Node126</title>
<g id="a_node37"><a xlink:href="api_2spec_2traffic__mngr_8h.html" target="_top" xlink:title="Copyright (c) 2015&#45;2018, Linaro Limited All rights reserved. ">
<polygon fill="white" stroke="red" points="2224,-112.5 2224,-131.5 2307,-131.5 2307,-112.5 2224,-112.5"/>
<text text-anchor="middle" x="2265.5" y="-119.5" font-family="Helvetica,sans-Serif" font-size="10.00">traffic_mngr.h</text>
</a>
</g>
</g>
<!-- Node6&#45;&gt;Node126 -->
<g id="edge57" class="edge"><title>Node6&#45;&gt;Node126</title>
<path fill="none" stroke="midnightblue" d="M2175.51,-222.376C2196.59,-215.534 2220.6,-204.7 2237.5,-188 2253.58,-172.109 2261.01,-145.482 2263.92,-131.762"/>
<polygon fill="midnightblue" stroke="midnightblue" points="2174.3,-219.084 2165.75,-225.334 2176.33,-225.783 2174.3,-219.084"/>
</g>
<!-- Node122 -->
<g id="node38" class="node"><title>Node122</title>
<g id="a_node38"><a xlink:href="api_2queue_8h.html" target="_top" xlink:title="ODP queue. ">
<polygon fill="white" stroke="red" points="2323.5,-168.5 2323.5,-187.5 2379.5,-187.5 2379.5,-168.5 2323.5,-168.5"/>
<text text-anchor="middle" x="2351.5" y="-175.5" font-family="Helvetica,sans-Serif" font-size="10.00">queue.h</text>
</a>
</g>
</g>
<!-- Node6&#45;&gt;Node122 -->
<g id="edge43" class="edge"><title>Node6&#45;&gt;Node122</title>
<path fill="none" stroke="midnightblue" d="M2174.64,-222.019C2219.12,-211.202 2285.68,-195.01 2323.18,-185.889"/>
<polygon fill="midnightblue" stroke="midnightblue" points="2173.57,-218.679 2164.68,-224.444 2175.22,-225.481 2173.57,-218.679"/>
</g>
<!-- Node81 -->
<g id="node39" class="node"><title>Node81</title>
<g id="a_node39"><a xlink:href="api_2spec_2schedule_8h.html" target="_top" xlink:title="ODP schedule. ">
<polygon fill="white" stroke="red" points="2437.5,-112.5 2437.5,-131.5 2505.5,-131.5 2505.5,-112.5 2437.5,-112.5"/>
<text text-anchor="middle" x="2471.5" y="-119.5" font-family="Helvetica,sans-Serif" font-size="10.00">schedule.h</text>
</a>
</g>
</g>
<!-- Node6&#45;&gt;Node81 -->
<g id="edge54" class="edge"><title>Node6&#45;&gt;Node81</title>
<path fill="none" stroke="midnightblue" d="M2176.06,-231.707C2229.49,-228.712 2318.71,-219.017 2388.5,-188 2419.61,-174.175 2449.33,-146.126 2463.25,-131.821"/>
<polygon fill="midnightblue" stroke="midnightblue" points="2175.68,-228.222 2165.87,-232.221 2176.03,-235.213 2175.68,-228.222"/>
</g>
<!-- Node156 -->
<g id="node40" class="node"><title>Node156</title>
<g id="a_node40"><a xlink:href="spec_2chksum_8h.html" target="_top" xlink:title="ODP Hash functions. ">
<polygon fill="white" stroke="red" points="2436,-168.5 2436,-187.5 2499,-187.5 2499,-168.5 2436,-168.5"/>
<text text-anchor="middle" x="2467.5" y="-175.5" font-family="Helvetica,sans-Serif" font-size="10.00">chksum.h</text>
</a>
</g>
</g>
<!-- Node6&#45;&gt;Node156 -->
<g id="edge47" class="edge"><title>Node6&#45;&gt;Node156</title>
<path fill="none" stroke="midnightblue" d="M2175.78,-226.455C2233.44,-218.167 2334.93,-203.133 2421.5,-188 2426.15,-187.187 2431.05,-186.281 2435.86,-185.365"/>
<polygon fill="midnightblue" stroke="midnightblue" points="2174.94,-223.04 2165.54,-227.923 2175.93,-229.969 2174.94,-223.04"/>
</g>
<!-- Node158 -->
<g id="node41" class="node"><title>Node158</title>
<g id="a_node41"><a xlink:href="api_2spec_2cpu_8h.html" target="_top" xlink:title="ODP CPU API. ">
<polygon fill="white" stroke="red" points="2517,-168.5 2517,-187.5 2560,-187.5 2560,-168.5 2517,-168.5"/>
<text text-anchor="middle" x="2538.5" y="-175.5" font-family="Helvetica,sans-Serif" font-size="10.00">cpu.h</text>
</a>
</g>
</g>
<!-- Node6&#45;&gt;Node158 -->
<g id="edge48" class="edge"><title>Node6&#45;&gt;Node158</title>
<path fill="none" stroke="midnightblue" d="M2175.55,-229.965C2247.12,-224.701 2389.14,-212.058 2507.5,-188 2510.58,-187.375 2513.79,-186.593 2516.93,-185.752"/>
<polygon fill="midnightblue" stroke="midnightblue" points="2175.23,-226.479 2165.51,-230.689 2175.74,-233.461 2175.23,-226.479"/>
</g>
<!-- Node160 -->
<g id="node42" class="node"><title>Node160</title>
<g id="a_node42"><a xlink:href="spec_2feature_8h.html" target="_top" xlink:title="ODP features. ">
<polygon fill="white" stroke="red" points="2578.5,-168.5 2578.5,-187.5 2638.5,-187.5 2638.5,-168.5 2578.5,-168.5"/>
<text text-anchor="middle" x="2608.5" y="-175.5" font-family="Helvetica,sans-Serif" font-size="10.00">feature.h</text>
</a>
</g>
</g>
<!-- Node6&#45;&gt;Node160 -->
<g id="edge49" class="edge"><title>Node6&#45;&gt;Node160</title>
<path fill="none" stroke="midnightblue" d="M2175.81,-230.076C2256.12,-224.599 2426.3,-211.201 2568.5,-188 2571.73,-187.473 2575.09,-186.844 2578.43,-186.168"/>
<polygon fill="midnightblue" stroke="midnightblue" points="2175.28,-226.603 2165.54,-230.766 2175.75,-233.587 2175.28,-226.603"/>
</g>
<!-- Node162 -->
<g id="node43" class="node"><title>Node162</title>
<g id="a_node43"><a xlink:href="spec_2hash_8h.html" target="_top" xlink:title="ODP Hash functions. ">
<polygon fill="white" stroke="red" points="2657,-168.5 2657,-187.5 2706,-187.5 2706,-168.5 2657,-168.5"/>
<text text-anchor="middle" x="2681.5" y="-175.5" font-family="Helvetica,sans-Serif" font-size="10.00">hash.h</text>
</a>
</g>
</g>
<!-- Node6&#45;&gt;Node162 -->
<g id="edge50" class="edge"><title>Node6&#45;&gt;Node162</title>
<path fill="none" stroke="midnightblue" d="M2175.82,-231.647C2266.83,-228.402 2475.14,-218.069 2647.5,-188 2650.51,-187.475 2653.64,-186.812 2656.73,-186.085"/>
<polygon fill="midnightblue" stroke="midnightblue" points="2175.45,-228.158 2165.57,-232 2175.69,-235.154 2175.45,-228.158"/>
</g>
<!-- Node83 -->
<g id="node44" class="node"><title>Node83</title>
<g id="a_node44"><a xlink:href="api_2spec_2init_8h.html" target="_top" xlink:title="init.h">
<polygon fill="white" stroke="red" points="2724.5,-168.5 2724.5,-187.5 2764.5,-187.5 2764.5,-168.5 2724.5,-168.5"/>
<text text-anchor="middle" x="2744.5" y="-175.5" font-family="Helvetica,sans-Serif" font-size="10.00">init.h</text>
</a>
</g>
</g>
<!-- Node6&#45;&gt;Node83 -->
<g id="edge51" class="edge"><title>Node6&#45;&gt;Node83</title>
<path fill="none" stroke="midnightblue" d="M2175.82,-232.799C2275.31,-231.634 2516.47,-224.878 2714.5,-188 2717.71,-187.403 2721.06,-186.591 2724.31,-185.698"/>
<polygon fill="midnightblue" stroke="midnightblue" points="2175.76,-229.299 2165.8,-232.902 2175.83,-236.299 2175.76,-229.299"/>
</g>
<!-- Node164 -->
<g id="node45" class="node"><title>Node164</title>
<g id="a_node45"><a xlink:href="api_2spec_2pool_8h.html" target="_top" xlink:title="ODP pool. ">
<polygon fill="white" stroke="red" points="2782.5,-168.5 2782.5,-187.5 2828.5,-187.5 2828.5,-168.5 2782.5,-168.5"/>
<text text-anchor="middle" x="2805.5" y="-175.5" font-family="Helvetica,sans-Serif" font-size="10.00">pool.h</text>
</a>
</g>
</g>
<!-- Node6&#45;&gt;Node164 -->
<g id="edge53" class="edge"><title>Node6&#45;&gt;Node164</title>
<path fill="none" stroke="midnightblue" d="M2175.85,-232.995C2282.28,-232.281 2552.02,-226.467 2773.5,-188 2776.34,-187.506 2779.3,-186.862 2782.21,-186.145"/>
<polygon fill="midnightblue" stroke="midnightblue" points="2175.75,-229.495 2165.77,-233.05 2175.79,-236.495 2175.75,-229.495"/>
</g>
<!-- Node166 -->
<g id="node46" class="node"><title>Node166</title>
<g id="a_node46"><a xlink:href="spec_2threshold_8h.html" target="_top" xlink:title="ODP threshold descriptor. ">
<polygon fill="white" stroke="red" points="2847,-168.5 2847,-187.5 2918,-187.5 2918,-168.5 2847,-168.5"/>
<text text-anchor="middle" x="2882.5" y="-175.5" font-family="Helvetica,sans-Serif" font-size="10.00">threshold.h</text>
</a>
</g>
</g>
<!-- Node6&#45;&gt;Node166 -->
<g id="edge55" class="edge"><title>Node6&#45;&gt;Node166</title>
<path fill="none" stroke="midnightblue" d="M2175.83,-232.199C2289.2,-229.775 2589.41,-220.545 2837.5,-188 2840.5,-187.606 2843.6,-187.131 2846.71,-186.607"/>
<polygon fill="midnightblue" stroke="midnightblue" points="2175.69,-228.701 2165.77,-232.407 2175.84,-235.7 2175.69,-228.701"/>
</g>
<!-- Node168 -->
<g id="node47" class="node"><title>Node168</title>
<g id="a_node47"><a xlink:href="api_2spec_2thrmask_8h.html" target="_top" xlink:title="ODP thread masks. ">
<polygon fill="white" stroke="red" points="2936,-168.5 2936,-187.5 3001,-187.5 3001,-168.5 2936,-168.5"/>
<text text-anchor="middle" x="2968.5" y="-175.5" font-family="Helvetica,sans-Serif" font-size="10.00">thrmask.h</text>
</a>
</g>
</g>
<!-- Node6&#45;&gt;Node168 -->
<g id="edge56" class="edge"><title>Node6&#45;&gt;Node168</title>
<path fill="none" stroke="midnightblue" d="M2176.09,-232.965C2299.35,-232.313 2643.97,-226.86 2927.5,-188 2930.24,-187.624 2933.08,-187.161 2935.91,-186.646"/>
<polygon fill="midnightblue" stroke="midnightblue" points="2175.87,-229.466 2165.89,-233.01 2175.9,-236.466 2175.87,-229.466"/>
</g>
<!-- Node169 -->
<g id="node48" class="node"><title>Node169</title>
<g id="a_node48"><a xlink:href="system__info_8h.html" target="_top" xlink:title="ODP system information. ">
<polygon fill="white" stroke="black" points="2676,-56.5 2676,-75.5 2759,-75.5 2759,-56.5 2676,-56.5"/>
<text text-anchor="middle" x="2717.5" y="-63.5" font-family="Helvetica,sans-Serif" font-size="10.00">system_info.h</text>
</a>
</g>
</g>
<!-- Node6&#45;&gt;Node169 -->
<g id="edge58" class="edge"><title>Node6&#45;&gt;Node169</title>
<path fill="none" stroke="midnightblue" d="M2175.75,-232.383C2353.14,-229.795 2981.52,-218.496 3010.5,-188 3087.65,-106.812 2857,-78.2402 2759.15,-69.9359"/>
<polygon fill="midnightblue" stroke="midnightblue" points="2175.65,-228.884 2165.7,-232.527 2175.75,-235.883 2175.65,-228.884"/>
</g>
<!-- Node170 -->
<g id="node49" class="node"><title>Node170</title>
<g id="a_node49"><a xlink:href="api_2time_8h.html" target="_top" xlink:title="ODP time. ">
<polygon fill="white" stroke="red" points="2896,-56.5 2896,-75.5 2943,-75.5 2943,-56.5 2896,-56.5"/>
<text text-anchor="middle" x="2919.5" y="-63.5" font-family="Helvetica,sans-Serif" font-size="10.00">time.h</text>
</a>
</g>
</g>
<!-- Node6&#45;&gt;Node170 -->
<g id="edge60" class="edge"><title>Node6&#45;&gt;Node170</title>
<path fill="none" stroke="midnightblue" d="M2175.9,-232.436C2356.06,-230.022 3000.8,-219.222 3030.5,-188 3048.05,-169.548 3028.72,-134.216 3008.5,-112 2990.9,-92.6667 2963.1,-80.4845 2943.25,-73.7436"/>
<polygon fill="midnightblue" stroke="midnightblue" points="2175.64,-228.939 2165.69,-232.57 2175.74,-235.938 2175.64,-228.939"/>
</g>
<!-- Node172 -->
<g id="node50" class="node"><title>Node172</title>
<g id="a_node50"><a xlink:href="api_2timer_8h.html" target="_top" xlink:title="ODP timer service. ">
<polygon fill="white" stroke="black" points="3020.5,-56.5 3020.5,-75.5 3070.5,-75.5 3070.5,-56.5 3020.5,-56.5"/>
<text text-anchor="middle" x="3045.5" y="-63.5" font-family="Helvetica,sans-Serif" font-size="10.00">timer.h</text>
</a>
</g>
</g>
<!-- Node6&#45;&gt;Node172 -->
<g id="edge62" class="edge"><title>Node6&#45;&gt;Node172</title>
<path fill="none" stroke="midnightblue" d="M2175.58,-232.484C2357.48,-230.227 3017.16,-219.865 3047.5,-188 3077.2,-156.808 3058.05,-97.9807 3049.24,-75.7795"/>
<polygon fill="midnightblue" stroke="midnightblue" points="2175.5,-228.985 2165.54,-232.607 2175.58,-235.984 2175.5,-228.985"/>
</g>
<!-- Node8 -->
<g id="node3" class="node"><title>Node8</title>
<g id="a_node3"><a xlink:href="arch_2arm32-linux_2odp_2api_2abi_2atomic_8h_source.html" target="_top" xlink:title="atomic.h">
<polygon fill="white" stroke="black" points="385,-112.5 385,-131.5 444,-131.5 444,-112.5 385,-112.5"/>
<text text-anchor="middle" x="414.5" y="-119.5" font-family="Helvetica,sans-Serif" font-size="10.00">atomic.h</text>
</a>
</g>
</g>
<!-- Node7&#45;&gt;Node8 -->
<g id="edge2" class="edge"><title>Node7&#45;&gt;Node8</title>
<path fill="none" stroke="midnightblue" d="M326.22,-164.096C347.892,-154.007 377.402,-140.27 396.205,-131.516"/>
<polygon fill="midnightblue" stroke="midnightblue" points="324.469,-161.05 316.881,-168.444 327.423,-167.396 324.469,-161.05"/>
</g>
<!-- Node9 -->
<g id="node4" class="node"><title>Node9</title>
<g id="a_node4"><a xlink:href="arch_2arm64-linux_2odp_2api_2abi_2atomic_8h_source.html" target="_top" xlink:title="atomic.h">
<polygon fill="white" stroke="black" points="462,-112.5 462,-131.5 521,-131.5 521,-112.5 462,-112.5"/>
<text text-anchor="middle" x="491.5" y="-119.5" font-family="Helvetica,sans-Serif" font-size="10.00">atomic.h</text>
</a>
</g>
</g>
<!-- Node7&#45;&gt;Node9 -->
<g id="edge3" class="edge"><title>Node7&#45;&gt;Node9</title>
<path fill="none" stroke="midnightblue" d="M338.099,-165.92C374.795,-155.653 428.567,-140.608 461.733,-131.329"/>
<polygon fill="midnightblue" stroke="midnightblue" points="336.92,-162.616 328.233,-168.681 338.807,-169.357 336.92,-162.616"/>
</g>
<!-- Node10 -->
<g id="node5" class="node"><title>Node10</title>
<g id="a_node5"><a xlink:href="arch_2default-linux_2odp_2api_2abi_2atomic_8h_source.html" target="_top" xlink:title="atomic.h">
<polygon fill="white" stroke="black" points="0,-112.5 0,-131.5 59,-131.5 59,-112.5 0,-112.5"/>
<text text-anchor="middle" x="29.5" y="-119.5" font-family="Helvetica,sans-Serif" font-size="10.00">atomic.h</text>
</a>
</g>
</g>
<!-- Node7&#45;&gt;Node10 -->
<g id="edge4" class="edge"><title>Node7&#45;&gt;Node10</title>
<path fill="none" stroke="midnightblue" d="M259.006,-169.806C212.934,-161.298 134.521,-146.459 67.5,-132 64.8491,-131.428 62.0989,-130.815 59.3451,-130.188"/>
<polygon fill="midnightblue" stroke="midnightblue" points="258.417,-173.256 268.886,-171.625 259.685,-166.372 258.417,-173.256"/>
</g>
<!-- Node11 -->
<g id="node6" class="node"><title>Node11</title>
<g id="a_node6"><a xlink:href="arch_2mips64-linux_2odp_2api_2abi_2atomic_8h_source.html" target="_top" xlink:title="atomic.h">
<polygon fill="white" stroke="black" points="77,-112.5 77,-131.5 136,-131.5 136,-112.5 77,-112.5"/>
<text text-anchor="middle" x="106.5" y="-119.5" font-family="Helvetica,sans-Serif" font-size="10.00">atomic.h</text>
</a>
</g>
</g>
<!-- Node7&#45;&gt;Node11 -->
<g id="edge5" class="edge"><title>Node7&#45;&gt;Node11</title>
<path fill="none" stroke="midnightblue" d="M259.106,-165.92C222.601,-155.653 169.106,-140.608 136.113,-131.329"/>
<polygon fill="midnightblue" stroke="midnightblue" points="258.347,-169.343 268.921,-168.681 260.242,-162.604 258.347,-169.343"/>
</g>
<!-- Node12 -->
<g id="node7" class="node"><title>Node12</title>
<g id="a_node7"><a xlink:href="arch_2power64-linux_2odp_2api_2abi_2atomic_8h_source.html" target="_top" xlink:title="atomic.h">
<polygon fill="white" stroke="black" points="154,-112.5 154,-131.5 213,-131.5 213,-112.5 154,-112.5"/>
<text text-anchor="middle" x="183.5" y="-119.5" font-family="Helvetica,sans-Serif" font-size="10.00">atomic.h</text>
</a>
</g>
</g>
<!-- Node7&#45;&gt;Node12 -->
<g id="edge6" class="edge"><title>Node7&#45;&gt;Node12</title>
<path fill="none" stroke="midnightblue" d="M271.019,-164.096C249.534,-154.007 220.278,-140.27 201.637,-131.516"/>
<polygon fill="midnightblue" stroke="midnightblue" points="269.738,-167.361 280.278,-168.444 272.714,-161.025 269.738,-167.361"/>
</g>
<!-- Node13 -->
<g id="node8" class="node"><title>Node13</title>
<g id="a_node8"><a xlink:href="arch_2x86__32-linux_2odp_2api_2abi_2atomic_8h_source.html" target="_top" xlink:title="atomic.h">
<polygon fill="white" stroke="black" points="231,-112.5 231,-131.5 290,-131.5 290,-112.5 231,-112.5"/>
<text text-anchor="middle" x="260.5" y="-119.5" font-family="Helvetica,sans-Serif" font-size="10.00">atomic.h</text>
</a>
</g>
</g>
<!-- Node7&#45;&gt;Node13 -->
<g id="edge7" class="edge"><title>Node7&#45;&gt;Node13</title>
<path fill="none" stroke="midnightblue" d="M286.435,-159.855C279.855,-150.505 271.989,-139.327 266.658,-131.751"/>
<polygon fill="midnightblue" stroke="midnightblue" points="283.608,-161.919 292.225,-168.083 289.332,-157.891 283.608,-161.919"/>
</g>
<!-- Node14 -->
<g id="node9" class="node"><title>Node14</title>
<g id="a_node9"><a xlink:href="arch_2x86__64-linux_2odp_2api_2abi_2atomic_8h_source.html" target="_top" xlink:title="atomic.h">
<polygon fill="white" stroke="red" points="308,-112.5 308,-131.5 367,-131.5 367,-112.5 308,-112.5"/>
<text text-anchor="middle" x="337.5" y="-119.5" font-family="Helvetica,sans-Serif" font-size="10.00">atomic.h</text>
</a>
</g>
</g>
<!-- Node7&#45;&gt;Node14 -->
<g id="edge8" class="edge"><title>Node7&#45;&gt;Node14</title>
<path fill="none" stroke="midnightblue" d="M310.882,-159.855C317.635,-150.505 325.709,-139.327 331.18,-131.751"/>
<polygon fill="midnightblue" stroke="midnightblue" points="307.958,-157.927 304.94,-168.083 313.632,-162.025 307.958,-157.927"/>
</g>
<!-- Node17 -->
<g id="node11" class="node"><title>Node17</title>
<g id="a_node11"><a xlink:href="arch_2arm32-linux_2odp_2api_2abi_2barrier_8h_source.html" target="_top" xlink:title="barrier.h">
<polygon fill="white" stroke="black" points="909.5,-112.5 909.5,-131.5 965.5,-131.5 965.5,-112.5 909.5,-112.5"/>
<text text-anchor="middle" x="937.5" y="-119.5" font-family="Helvetica,sans-Serif" font-size="10.00">barrier.h</text>
</a>
</g>
</g>
<!-- Node16&#45;&gt;Node17 -->
<g id="edge10" class="edge"><title>Node16&#45;&gt;Node17</title>
<path fill="none" stroke="midnightblue" d="M853.505,-163.862C874.088,-153.849 901.845,-140.346 919.71,-131.655"/>
<polygon fill="midnightblue" stroke="midnightblue" points="851.795,-160.802 844.334,-168.324 854.858,-167.097 851.795,-160.802"/>
</g>
<!-- Node18 -->
<g id="node12" class="node"><title>Node18</title>
<g id="a_node12"><a xlink:href="arch_2arm64-linux_2odp_2api_2abi_2barrier_8h_source.html" target="_top" xlink:title="barrier.h">
<polygon fill="white" stroke="black" points="983.5,-112.5 983.5,-131.5 1039.5,-131.5 1039.5,-112.5 983.5,-112.5"/>
<text text-anchor="middle" x="1011.5" y="-119.5" font-family="Helvetica,sans-Serif" font-size="10.00">barrier.h</text>
</a>
</g>
</g>
<!-- Node16&#45;&gt;Node18 -->
<g id="edge11" class="edge"><title>Node16&#45;&gt;Node18</title>
<path fill="none" stroke="midnightblue" d="M864.549,-165.894C899.897,-155.576 951.719,-140.45 983.442,-131.19"/>
<polygon fill="midnightblue" stroke="midnightblue" points="863.216,-162.637 854.598,-168.799 865.178,-169.356 863.216,-162.637"/>
</g>
<!-- Node19 -->
<g id="node13" class="node"><title>Node19</title>
<g id="a_node13"><a xlink:href="arch_2default-linux_2odp_2api_2abi_2barrier_8h_source.html" target="_top" xlink:title="barrier.h">
<polygon fill="white" stroke="black" points="539.5,-112.5 539.5,-131.5 595.5,-131.5 595.5,-112.5 539.5,-112.5"/>
<text text-anchor="middle" x="567.5" y="-119.5" font-family="Helvetica,sans-Serif" font-size="10.00">barrier.h</text>
</a>
</g>
</g>
<!-- Node16&#45;&gt;Node19 -->
<g id="edge12" class="edge"><title>Node16&#45;&gt;Node19</title>
<path fill="none" stroke="midnightblue" d="M788.353,-169.732C744.051,-161.184 668.818,-146.336 604.5,-132 601.661,-131.367 598.705,-130.686 595.756,-129.992"/>
<polygon fill="midnightblue" stroke="midnightblue" points="787.909,-173.211 798.391,-171.663 789.232,-166.337 787.909,-173.211"/>
</g>
<!-- Node20 -->
<g id="node14" class="node"><title>Node20</title>
<g id="a_node14"><a xlink:href="arch_2mips64-linux_2odp_2api_2abi_2barrier_8h_source.html" target="_top" xlink:title="barrier.h">
<polygon fill="white" stroke="black" points="613.5,-112.5 613.5,-131.5 669.5,-131.5 669.5,-112.5 613.5,-112.5"/>
<text text-anchor="middle" x="641.5" y="-119.5" font-family="Helvetica,sans-Serif" font-size="10.00">barrier.h</text>
</a>
</g>
</g>
<!-- Node16&#45;&gt;Node20 -->
<g id="edge13" class="edge"><title>Node16&#45;&gt;Node20</title>
<path fill="none" stroke="midnightblue" d="M788.451,-165.894C753.103,-155.576 701.281,-140.45 669.558,-131.19"/>
<polygon fill="midnightblue" stroke="midnightblue" points="787.822,-169.356 798.402,-168.799 789.784,-162.637 787.822,-169.356"/>
</g>
<!-- Node21 -->
<g id="node15" class="node"><title>Node21</title>
<g id="a_node15"><a xlink:href="arch_2power64-linux_2odp_2api_2abi_2barrier_8h_source.html" target="_top" xlink:title="barrier.h">
<polygon fill="white" stroke="black" points="687.5,-112.5 687.5,-131.5 743.5,-131.5 743.5,-112.5 687.5,-112.5"/>
<text text-anchor="middle" x="715.5" y="-119.5" font-family="Helvetica,sans-Serif" font-size="10.00">barrier.h</text>
</a>
</g>
</g>
<!-- Node16&#45;&gt;Node21 -->
<g id="edge14" class="edge"><title>Node16&#45;&gt;Node21</title>
<path fill="none" stroke="midnightblue" d="M799.495,-163.862C778.912,-153.849 751.155,-140.346 733.29,-131.655"/>
<polygon fill="midnightblue" stroke="midnightblue" points="798.142,-167.097 808.666,-168.324 801.205,-160.802 798.142,-167.097"/>
</g>
<!-- Node22 -->
<g id="node16" class="node"><title>Node22</title>
<g id="a_node16"><a xlink:href="arch_2x86__32-linux_2odp_2api_2abi_2barrier_8h_source.html" target="_top" xlink:title="barrier.h">
<polygon fill="white" stroke="black" points="761.5,-112.5 761.5,-131.5 817.5,-131.5 817.5,-112.5 761.5,-112.5"/>
<text text-anchor="middle" x="789.5" y="-119.5" font-family="Helvetica,sans-Serif" font-size="10.00">barrier.h</text>
</a>
</g>
</g>
<!-- Node16&#45;&gt;Node22 -->
<g id="edge15" class="edge"><title>Node16&#45;&gt;Node22</title>
<path fill="none" stroke="midnightblue" d="M814.554,-159.566C808.188,-150.275 800.633,-139.248 795.496,-131.751"/>
<polygon fill="midnightblue" stroke="midnightblue" points="811.851,-161.812 820.39,-168.083 817.625,-157.855 811.851,-161.812"/>
</g>
<!-- Node23 -->
<g id="node17" class="node"><title>Node23</title>
<g id="a_node17"><a xlink:href="arch_2x86__64-linux_2odp_2api_2abi_2barrier_8h_source.html" target="_top" xlink:title="barrier.h">
<polygon fill="white" stroke="black" points="835.5,-112.5 835.5,-131.5 891.5,-131.5 891.5,-112.5 835.5,-112.5"/>
<text text-anchor="middle" x="863.5" y="-119.5" font-family="Helvetica,sans-Serif" font-size="10.00">barrier.h</text>
</a>
</g>
</g>
<!-- Node16&#45;&gt;Node23 -->
<g id="edge16" class="edge"><title>Node16&#45;&gt;Node23</title>
<path fill="none" stroke="midnightblue" d="M838.446,-159.566C844.812,-150.275 852.367,-139.248 857.504,-131.751"/>
<polygon fill="midnightblue" stroke="midnightblue" points="835.375,-157.855 832.61,-168.083 841.149,-161.812 835.375,-157.855"/>
</g>
<!-- Node23&#45;&gt;Node24 -->
<g id="edge17" class="edge"><title>Node23&#45;&gt;Node24</title>
<path fill="none" stroke="midnightblue" d="M901.754,-109.894C937.294,-99.576 989.396,-84.4497 1021.29,-75.19"/>
<polygon fill="midnightblue" stroke="midnightblue" points="900.377,-106.649 891.749,-112.799 902.329,-113.372 900.377,-106.649"/>
</g>
<!-- Node24&#45;&gt;Node25 -->
<g id="edge18" class="edge"><title>Node24&#45;&gt;Node25</title>
<path fill="none" stroke="midnightblue" d="M1087.71,-56.5258C1088.99,-56.3343 1090.25,-56.158 1091.5,-56 1307.14,-28.7029 2006.16,-14.4702 2163.75,-11.5633"/>
<polygon fill="midnightblue" stroke="midnightblue" points="1087.11,-53.0779 1077.85,-58.2395 1088.31,-59.9744 1087.11,-53.0779"/>
</g>
<!-- Node55 -->
<g id="node21" class="node"><title>Node55</title>
<g id="a_node21"><a xlink:href="arch_2arm32-linux_2odp_2api_2abi_2byteorder_8h_source.html" target="_top" xlink:title="byteorder.h">
<polygon fill="white" stroke="black" points="1134,-112.5 1134,-131.5 1205,-131.5 1205,-112.5 1134,-112.5"/>
<text text-anchor="middle" x="1169.5" y="-119.5" font-family="Helvetica,sans-Serif" font-size="10.00">byteorder.h</text>
</a>
</g>
</g>
<!-- Node54&#45;&gt;Node55 -->
<g id="edge20" class="edge"><title>Node54&#45;&gt;Node55</title>
<path fill="none" stroke="midnightblue" d="M1169.5,-157.805C1169.5,-148.91 1169.5,-138.78 1169.5,-131.751"/>
<polygon fill="midnightblue" stroke="midnightblue" points="1166,-158.083 1169.5,-168.083 1173,-158.083 1166,-158.083"/>
</g>
<!-- Node56 -->
<g id="node22" class="node"><title>Node56</title>
<g id="a_node22"><a xlink:href="arch_2arm64-linux_2odp_2api_2abi_2byteorder_8h_source.html" target="_top" xlink:title="byteorder.h">
<polygon fill="white" stroke="black" points="1223,-112.5 1223,-131.5 1294,-131.5 1294,-112.5 1223,-112.5"/>
<text text-anchor="middle" x="1258.5" y="-119.5" font-family="Helvetica,sans-Serif" font-size="10.00">byteorder.h</text>
</a>
</g>
</g>
<!-- Node54&#45;&gt;Node56 -->
<g id="edge21" class="edge"><title>Node54&#45;&gt;Node56</title>
<path fill="none" stroke="midnightblue" d="M1192.74,-162.901C1209.06,-152.999 1230.37,-140.071 1244.24,-131.655"/>
<polygon fill="midnightblue" stroke="midnightblue" points="1190.53,-160.144 1183.8,-168.324 1194.16,-166.129 1190.53,-160.144"/>
</g>
<!-- Node155&#45;&gt;Node25 -->
<g id="edge32" class="edge"><title>Node155&#45;&gt;Node25</title>
<path fill="none" stroke="midnightblue" d="M1964.13,-55.9579C2041.65,-38.9198 2120.95,-24.2779 2163.87,-16.5824"/>
<polygon fill="midnightblue" stroke="midnightblue" points="1963.21,-52.578 1954.2,-58.1568 1964.72,-59.4126 1963.21,-52.578"/>
</g>
<!-- Node112&#45;&gt;Node25 -->
<g id="edge34" class="edge"><title>Node112&#45;&gt;Node25</title>
<path fill="none" stroke="midnightblue" d="M2053.61,-53.5677C2087.56,-43.381 2136.49,-28.7034 2167.11,-19.5164"/>
<polygon fill="midnightblue" stroke="midnightblue" points="2052.59,-50.2176 2044.02,-56.4435 2054.61,-56.9224 2052.59,-50.2176"/>
</g>
<!-- Node118&#45;&gt;Node25 -->
<g id="edge36" class="edge"><title>Node118&#45;&gt;Node25</title>
<path fill="none" stroke="midnightblue" d="M2332.55,-106.417C2299.14,-83.1513 2234.78,-38.3501 2207.84,-19.5914"/>
<polygon fill="midnightblue" stroke="midnightblue" points="2330.9,-109.527 2341.1,-112.368 2334.89,-103.782 2330.9,-109.527"/>
</g>
<!-- Node114&#45;&gt;Node25 -->
<g id="edge39" class="edge"><title>Node114&#45;&gt;Node25</title>
<path fill="none" stroke="midnightblue" d="M2068.37,-158.035C2066.39,-144.545 2065.72,-126.346 2072.5,-112 2094.23,-66.0374 2148.27,-33.9693 2176.94,-19.5667"/>
<polygon fill="midnightblue" stroke="midnightblue" points="2064.96,-158.864 2070.2,-168.071 2071.85,-157.604 2064.96,-158.864"/>
</g>
<!-- Node114&#45;&gt;Node128 -->
<g id="edge38" class="edge"><title>Node114&#45;&gt;Node128</title>
<path fill="none" stroke="midnightblue" d="M2088.18,-160.718C2097.34,-151.2 2108.55,-139.561 2116.07,-131.751"/>
<polygon fill="midnightblue" stroke="midnightblue" points="2085.5,-158.452 2081.09,-168.083 2090.54,-163.308 2085.5,-158.452"/>
</g>
<!-- Node124&#45;&gt;Node25 -->
<g id="edge42" class="edge"><title>Node124&#45;&gt;Node25</title>
<path fill="none" stroke="midnightblue" d="M2193.73,-157.93C2194.16,-121.92 2195.09,-45.2312 2195.4,-19.5681"/>
<polygon fill="midnightblue" stroke="midnightblue" points="2190.23,-158.034 2193.61,-168.075 2197.23,-158.118 2190.23,-158.034"/>
</g>
<!-- Node124&#45;&gt;Node126 -->
<g id="edge41" class="edge"><title>Node124&#45;&gt;Node126</title>
<path fill="none" stroke="midnightblue" d="M2213.37,-162.101C2226.32,-152.382 2242.8,-140.027 2253.72,-131.834"/>
<polygon fill="midnightblue" stroke="midnightblue" points="2210.97,-159.524 2205.07,-168.324 2215.17,-165.124 2210.97,-159.524"/>
</g>
<!-- Node122&#45;&gt;Node25 -->
<g id="edge46" class="edge"><title>Node122&#45;&gt;Node25</title>
<path fill="none" stroke="midnightblue" d="M2370.9,-161.805C2385.23,-148.651 2400.62,-129.105 2390.5,-112 2355.45,-52.7763 2272.89,-26.8566 2227.23,-16.7193"/>
<polygon fill="midnightblue" stroke="midnightblue" points="2368.53,-159.229 2363.22,-168.398 2373.09,-164.54 2368.53,-159.229"/>
</g>
<!-- Node122&#45;&gt;Node118 -->
<g id="edge44" class="edge"><title>Node122&#45;&gt;Node118</title>
<path fill="none" stroke="midnightblue" d="M2352.21,-157.805C2352.54,-148.91 2352.92,-138.78 2353.18,-131.751"/>
<polygon fill="midnightblue" stroke="midnightblue" points="2348.7,-157.96 2351.83,-168.083 2355.7,-158.219 2348.7,-157.96"/>
</g>
<!-- Node122&#45;&gt;Node81 -->
<g id="edge45" class="edge"><title>Node122&#45;&gt;Node81</title>
<path fill="none" stroke="midnightblue" d="M2379.87,-164.232C2402.32,-154.131 2433.04,-140.309 2452.57,-131.516"/>
<polygon fill="midnightblue" stroke="midnightblue" points="2378.2,-161.148 2370.51,-168.444 2381.07,-167.532 2378.2,-161.148"/>
</g>
<!-- Node169&#45;&gt;Node25 -->
<g id="edge59" class="edge"><title>Node169&#45;&gt;Node25</title>
<path fill="none" stroke="midnightblue" d="M2665.72,-59.643C2558.39,-48.5408 2314.45,-23.3056 2227.24,-14.2832"/>
<polygon fill="midnightblue" stroke="midnightblue" points="2665.36,-63.1246 2675.66,-60.6722 2666.08,-56.1617 2665.36,-63.1246"/>
</g>
<!-- Node170&#45;&gt;Node25 -->
<g id="edge61" class="edge"><title>Node170&#45;&gt;Node25</title>
<path fill="none" stroke="midnightblue" d="M2885.57,-62.4693C2763.25,-53.3459 2345.88,-22.2159 2227.21,-13.3649"/>
<polygon fill="midnightblue" stroke="midnightblue" points="2885.59,-65.9804 2895.82,-63.234 2886.11,-58.9998 2885.59,-65.9804"/>
</g>
<!-- Node172&#45;&gt;Node25 -->
<g id="edge63" class="edge"><title>Node172&#45;&gt;Node25</title>
<path fill="none" stroke="midnightblue" d="M3010.02,-61.2546C2992.69,-59.5047 2971.52,-57.4849 2952.5,-56 2671.61,-34.0675 2331.35,-17.3578 2227.26,-12.4653"/>
<polygon fill="midnightblue" stroke="midnightblue" points="3009.96,-64.7664 3020.26,-62.3021 3010.67,-57.8027 3009.96,-64.7664"/>
</g>
</g>
</svg>
