<?xml version="1.0" encoding="UTF-8" standalone="no"?>
<!DOCTYPE svg PUBLIC "-//W3C//DTD SVG 1.1//EN"
 "http://www.w3.org/Graphics/SVG/1.1/DTD/svg11.dtd">
<!-- Generated by graphviz version 2.38.0 (20140413.2041)
 -->
<!-- Title: odp_api.h Pages: 1 -->
<svg width="4901pt" height="252pt"
 viewBox="0.00 0.00 4900.50 252.00" xmlns="http://www.w3.org/2000/svg" xmlns:xlink="http://www.w3.org/1999/xlink">
<g id="graph0" class="graph" transform="scale(1 1) rotate(0) translate(4 248)">
<title>odp_api.h</title>
<polygon fill="white" stroke="none" points="-4,4 -4,-248 4896.5,-248 4896.5,4 -4,4"/>
<!-- Node0 -->
<g id="node1" class="node"><title>Node0</title>
<polygon fill="#bfbfbf" stroke="black" points="2228.5,-224.5 2228.5,-243.5 2291.5,-243.5 2291.5,-224.5 2228.5,-224.5"/>
<text text-anchor="middle" x="2260" y="-231.5" font-family="Helvetica,sans-Serif" font-size="10.00">odp_api.h</text>
</g>
<!-- Node1 -->
<g id="node2" class="node"><title>Node1</title>
<g id="a_node2"><a xlink:href="deprecated_8h.html" target="_top" xlink:title="Control deprecated API definitions. ">
<polygon fill="white" stroke="black" points="93.5,-168.5 93.5,-187.5 212.5,-187.5 212.5,-168.5 93.5,-168.5"/>
<text text-anchor="middle" x="153" y="-175.5" font-family="Helvetica,sans-Serif" font-size="10.00">odp/api/deprecated.h</text>
</a>
</g>
</g>
<!-- Node0&#45;&gt;Node1 -->
<g id="edge1" class="edge"><title>Node0&#45;&gt;Node1</title>
<path fill="none" stroke="midnightblue" d="M2228.33,-232.705C2043.5,-230.894 1085.43,-220.266 304,-188 277.361,-186.9 248.102,-185.257 222.492,-183.675"/>
<polygon fill="midnightblue" stroke="midnightblue" points="222.7,-180.181 212.5,-183.049 222.262,-187.167 222.7,-180.181"/>
</g>
<!-- Node5 -->
<g id="node4" class="node"><title>Node5</title>
<g id="a_node4"><a xlink:href="api_2version_8h.html" target="_top" xlink:title="ODP version. ">
<polygon fill="white" stroke="black" points="313,-168.5 313,-187.5 411,-187.5 411,-168.5 313,-168.5"/>
<text text-anchor="middle" x="362" y="-175.5" font-family="Helvetica,sans-Serif" font-size="10.00">odp/api/version.h</text>
</a>
</g>
</g>
<!-- Node0&#45;&gt;Node5 -->
<g id="edge3" class="edge"><title>Node0&#45;&gt;Node5</title>
<path fill="none" stroke="midnightblue" d="M2228.47,-232.654C2055,-230.652 1199.46,-219.534 501,-188 474.894,-186.821 446.06,-185.034 421.453,-183.362"/>
<polygon fill="midnightblue" stroke="midnightblue" points="421.403,-179.85 411.186,-182.655 420.922,-186.834 421.403,-179.85"/>
</g>
<!-- Node8 -->
<g id="node7" class="node"><title>Node8</title>
<g id="a_node7"><a xlink:href="api_2std__types_8h.html" target="_top" xlink:title="Standard C language types and definitions for ODP. ">
<polygon fill="white" stroke="black" points="1010,-56.5 1010,-75.5 1120,-75.5 1120,-56.5 1010,-56.5"/>
<text text-anchor="middle" x="1065" y="-63.5" font-family="Helvetica,sans-Serif" font-size="10.00">odp/api/std_types.h</text>
</a>
</g>
</g>
<!-- Node0&#45;&gt;Node8 -->
<g id="edge6" class="edge"><title>Node0&#45;&gt;Node8</title>
<path fill="none" stroke="midnightblue" d="M2228.33,-232.913C2045.16,-232.268 1127.97,-227.089 1084,-188 1055.35,-162.536 1057.63,-112.943 1061.48,-85.8244"/>
<polygon fill="midnightblue" stroke="midnightblue" points="1064.97,-86.1493 1063.14,-75.7138 1058.07,-85.0132 1064.97,-86.1493"/>
</g>
<!-- Node12 -->
<g id="node10" class="node"><title>Node12</title>
<g id="a_node10"><a xlink:href="api_2align_8h.html" target="_top" xlink:title="ODP alignments. ">
<polygon fill="white" stroke="red" points="1509,-168.5 1509,-187.5 1595,-187.5 1595,-168.5 1509,-168.5"/>
<text text-anchor="middle" x="1552" y="-175.5" font-family="Helvetica,sans-Serif" font-size="10.00">odp/api/align.h</text>
</a>
</g>
</g>
<!-- Node0&#45;&gt;Node12 -->
<g id="edge9" class="edge"><title>Node0&#45;&gt;Node12</title>
<path fill="none" stroke="midnightblue" d="M2228.48,-231.989C2135.01,-228.747 1851.05,-217.143 1605.28,-188.028"/>
<polygon fill="midnightblue" stroke="midnightblue" points="1605.43,-184.521 1595.08,-186.808 1604.59,-191.472 1605.43,-184.521"/>
</g>
<!-- Node15 -->
<g id="node11" class="node"><title>Node15</title>
<g id="a_node11"><a xlink:href="hash_8h.html" target="_top" xlink:title="ODP Hash function. ">
<polygon fill="white" stroke="red" points="1613.5,-168.5 1613.5,-187.5 1700.5,-187.5 1700.5,-168.5 1613.5,-168.5"/>
<text text-anchor="middle" x="1657" y="-175.5" font-family="Helvetica,sans-Serif" font-size="10.00">odp/api/hash.h</text>
</a>
</g>
</g>
<!-- Node0&#45;&gt;Node15 -->
<g id="edge10" class="edge"><title>Node0&#45;&gt;Node15</title>
<path fill="none" stroke="midnightblue" d="M2228.22,-231.406C2144.92,-227.017 1913.24,-213.439 1710.58,-188.102"/>
<polygon fill="midnightblue" stroke="midnightblue" points="1711.01,-184.628 1700.65,-186.848 1710.13,-191.573 1711.01,-184.628"/>
</g>
<!-- Node17 -->
<g id="node12" class="node"><title>Node17</title>
<g id="a_node12"><a xlink:href="chksum_8h.html" target="_top" xlink:title="ODP checksum functions. ">
<polygon fill="white" stroke="red" points="1718.5,-168.5 1718.5,-187.5 1819.5,-187.5 1819.5,-168.5 1718.5,-168.5"/>
<text text-anchor="middle" x="1769" y="-175.5" font-family="Helvetica,sans-Serif" font-size="10.00">odp/api/chksum.h</text>
</a>
</g>
</g>
<!-- Node0&#45;&gt;Node17 -->
<g id="edge11" class="edge"><title>Node0&#45;&gt;Node17</title>
<path fill="none" stroke="midnightblue" d="M2228.23,-230.213C2158.2,-223.957 1985.05,-207.876 1829.71,-188.169"/>
<polygon fill="midnightblue" stroke="midnightblue" points="1829.87,-184.661 1819.51,-186.866 1828.98,-191.605 1829.87,-184.661"/>
</g>
<!-- Node19 -->
<g id="node13" class="node"><title>Node19</title>
<g id="a_node13"><a xlink:href="api_2comp_8h.html" target="_top" xlink:title="ODP crypto. ">
<polygon fill="white" stroke="red" points="1837.5,-168.5 1837.5,-187.5 1928.5,-187.5 1928.5,-168.5 1837.5,-168.5"/>
<text text-anchor="middle" x="1883" y="-175.5" font-family="Helvetica,sans-Serif" font-size="10.00">odp/api/comp.h</text>
</a>
</g>
</g>
<!-- Node0&#45;&gt;Node19 -->
<g id="edge12" class="edge"><title>Node0&#45;&gt;Node19</title>
<path fill="none" stroke="midnightblue" d="M2228.32,-228.873C2172.11,-221.487 2050.99,-205.294 1938.78,-188.243"/>
<polygon fill="midnightblue" stroke="midnightblue" points="1939.06,-184.745 1928.65,-186.697 1938.01,-191.665 1939.06,-184.745"/>
</g>
<!-- Node35 -->
<g id="node14" class="node"><title>Node35</title>
<g id="a_node14"><a xlink:href="hints_8h.html" target="_top" xlink:title="ODP compiler hints. ">
<polygon fill="white" stroke="red" points="1946.5,-168.5 1946.5,-187.5 2033.5,-187.5 2033.5,-168.5 1946.5,-168.5"/>
<text text-anchor="middle" x="1990" y="-175.5" font-family="Helvetica,sans-Serif" font-size="10.00">odp/api/hints.h</text>
</a>
</g>
</g>
<!-- Node0&#45;&gt;Node35 -->
<g id="edge13" class="edge"><title>Node0&#45;&gt;Node35</title>
<path fill="none" stroke="midnightblue" d="M2228.5,-226.7C2182.93,-217.585 2098.03,-200.605 2042.79,-189.557"/>
<polygon fill="midnightblue" stroke="midnightblue" points="2043.33,-186.096 2032.83,-187.567 2041.95,-192.96 2043.33,-186.096"/>
</g>
<!-- Node37 -->
<g id="node15" class="node"><title>Node37</title>
<g id="a_node15"><a xlink:href="api_2debug_8h.html" target="_top" xlink:title="ODP debug. ">
<polygon fill="white" stroke="red" points="2052,-168.5 2052,-187.5 2146,-187.5 2146,-168.5 2052,-168.5"/>
<text text-anchor="middle" x="2099" y="-175.5" font-family="Helvetica,sans-Serif" font-size="10.00">odp/api/debug.h</text>
</a>
</g>
</g>
<!-- Node0&#45;&gt;Node37 -->
<g id="edge14" class="edge"><title>Node0&#45;&gt;Node37</title>
<path fill="none" stroke="midnightblue" d="M2234.49,-224.444C2207.4,-215.359 2164.41,-200.939 2134.13,-190.783"/>
<polygon fill="midnightblue" stroke="midnightblue" points="2134.99,-187.378 2124.39,-187.516 2132.76,-194.015 2134.99,-187.378"/>
</g>
<!-- Node40 -->
<g id="node16" class="node"><title>Node40</title>
<g id="a_node16"><a xlink:href="api_2byteorder_8h.html" target="_top" xlink:title="ODP byteorder. ">
<polygon fill="white" stroke="red" points="2164,-168.5 2164,-187.5 2274,-187.5 2274,-168.5 2164,-168.5"/>
<text text-anchor="middle" x="2219" y="-175.5" font-family="Helvetica,sans-Serif" font-size="10.00">odp/api/byteorder.h</text>
</a>
</g>
</g>
<!-- Node0&#45;&gt;Node40 -->
<g id="edge15" class="edge"><title>Node0&#45;&gt;Node40</title>
<path fill="none" stroke="midnightblue" d="M2253.23,-224.083C2247.44,-216.455 2238.94,-205.264 2231.86,-195.941"/>
<polygon fill="midnightblue" stroke="midnightblue" points="2234.48,-193.599 2225.64,-187.751 2228.9,-197.832 2234.48,-193.599"/>
</g>
<!-- Node43 -->
<g id="node17" class="node"><title>Node43</title>
<g id="a_node17"><a xlink:href="api_2cpu_8h.html" target="_top" xlink:title="ODP CPU. ">
<polygon fill="white" stroke="red" points="2330.5,-168.5 2330.5,-187.5 2411.5,-187.5 2411.5,-168.5 2330.5,-168.5"/>
<text text-anchor="middle" x="2371" y="-175.5" font-family="Helvetica,sans-Serif" font-size="10.00">odp/api/cpu.h</text>
</a>
</g>
</g>
<!-- Node0&#45;&gt;Node43 -->
<g id="edge16" class="edge"><title>Node0&#45;&gt;Node43</title>
<path fill="none" stroke="midnightblue" d="M2277.83,-224.324C2295.72,-215.625 2323.48,-202.12 2344.05,-192.113"/>
<polygon fill="midnightblue" stroke="midnightblue" points="2345.75,-195.177 2353.21,-187.655 2342.69,-188.882 2345.75,-195.177"/>
</g>
<!-- Node45 -->
<g id="node18" class="node"><title>Node45</title>
<g id="a_node18"><a xlink:href="api_2thread_8h.html" target="_top" xlink:title="ODP thread API. ">
<polygon fill="white" stroke="red" points="2288.5,-112.5 2288.5,-131.5 2383.5,-131.5 2383.5,-112.5 2288.5,-112.5"/>
<text text-anchor="middle" x="2336" y="-119.5" font-family="Helvetica,sans-Serif" font-size="10.00">odp/api/thread.h</text>
</a>
</g>
</g>
<!-- Node0&#45;&gt;Node45 -->
<g id="edge28" class="edge"><title>Node0&#45;&gt;Node45</title>
<path fill="none" stroke="midnightblue" d="M2265.96,-224.368C2278.51,-206.215 2307.81,-163.802 2324.26,-139.99"/>
<polygon fill="midnightblue" stroke="midnightblue" points="2327.26,-141.808 2330.06,-131.591 2321.5,-137.829 2327.26,-141.808"/>
</g>
<!-- Node50 -->
<g id="node19" class="node"><title>Node50</title>
<g id="a_node19"><a xlink:href="api_2cpumask_8h.html" target="_top" xlink:title="ODP CPU masks and enumeration. ">
<polygon fill="white" stroke="red" points="2429.5,-168.5 2429.5,-187.5 2536.5,-187.5 2536.5,-168.5 2429.5,-168.5"/>
<text text-anchor="middle" x="2483" y="-175.5" font-family="Helvetica,sans-Serif" font-size="10.00">odp/api/cpumask.h</text>
</a>
</g>
</g>
<!-- Node0&#45;&gt;Node50 -->
<g id="edge18" class="edge"><title>Node0&#45;&gt;Node50</title>
<path fill="none" stroke="midnightblue" d="M2291.95,-225.263C2330.19,-216.003 2394.49,-200.434 2437.81,-189.944"/>
<polygon fill="midnightblue" stroke="midnightblue" points="2438.9,-193.28 2447.8,-187.524 2437.25,-186.476 2438.9,-193.28"/>
</g>
<!-- Node53 -->
<g id="node20" class="node"><title>Node53</title>
<g id="a_node20"><a xlink:href="api_2barrier_8h.html" target="_top" xlink:title="ODP execution barriers. ">
<polygon fill="white" stroke="red" points="1093.5,-168.5 1093.5,-187.5 1188.5,-187.5 1188.5,-168.5 1093.5,-168.5"/>
<text text-anchor="middle" x="1141" y="-175.5" font-family="Helvetica,sans-Serif" font-size="10.00">odp/api/barrier.h</text>
</a>
</g>
</g>
<!-- Node0&#45;&gt;Node53 -->
<g id="edge19" class="edge"><title>Node0&#45;&gt;Node53</title>
<path fill="none" stroke="midnightblue" d="M2228.36,-232.825C2100.13,-231.869 1606.69,-225.795 1203,-188 1201.69,-187.877 1200.37,-187.746 1199.03,-187.608"/>
<polygon fill="midnightblue" stroke="midnightblue" points="1199,-184.082 1188.67,-186.418 1198.2,-191.036 1199,-184.082"/>
</g>
<!-- Node54 -->
<g id="node21" class="node"><title>Node54</title>
<g id="a_node21"><a xlink:href="api_2atomic_8h.html" target="_top" xlink:title="ODP atomic operations. ">
<polygon fill="white" stroke="red" points="1112.5,-112.5 1112.5,-131.5 1209.5,-131.5 1209.5,-112.5 1112.5,-112.5"/>
<text text-anchor="middle" x="1161" y="-119.5" font-family="Helvetica,sans-Serif" font-size="10.00">odp/api/atomic.h</text>
</a>
</g>
</g>
<!-- Node0&#45;&gt;Node54 -->
<g id="edge23" class="edge"><title>Node0&#45;&gt;Node54</title>
<path fill="none" stroke="midnightblue" d="M2228.03,-233.062C2083.29,-233.101 1488.56,-230.617 1308,-188 1262.08,-177.163 1212.7,-152.29 1184.46,-136.647"/>
<polygon fill="midnightblue" stroke="midnightblue" points="1185.82,-133.397 1175.39,-131.537 1182.38,-139.495 1185.82,-133.397"/>
</g>
<!-- Node60 -->
<g id="node22" class="node"><title>Node60</title>
<g id="a_node22"><a xlink:href="api_2spinlock_8h.html" target="_top" xlink:title="ODP spinlock. ">
<polygon fill="white" stroke="red" points="2554,-168.5 2554,-187.5 2656,-187.5 2656,-168.5 2554,-168.5"/>
<text text-anchor="middle" x="2605" y="-175.5" font-family="Helvetica,sans-Serif" font-size="10.00">odp/api/spinlock.h</text>
</a>
</g>
</g>
<!-- Node0&#45;&gt;Node60 -->
<g id="edge22" class="edge"><title>Node0&#45;&gt;Node60</title>
<path fill="none" stroke="midnightblue" d="M2291.53,-228.065C2348.57,-219.138 2469.79,-200.163 2543.65,-188.602"/>
<polygon fill="midnightblue" stroke="midnightblue" points="2544.41,-192.026 2553.75,-187.022 2543.33,-185.11 2544.41,-192.026"/>
</g>
<!-- Node63 -->
<g id="node23" class="node"><title>Node63</title>
<g id="a_node23"><a xlink:href="feature_8h.html" target="_top" xlink:title="ODP features. ">
<polygon fill="white" stroke="red" points="2674,-168.5 2674,-187.5 2772,-187.5 2772,-168.5 2674,-168.5"/>
<text text-anchor="middle" x="2723" y="-175.5" font-family="Helvetica,sans-Serif" font-size="10.00">odp/api/feature.h</text>
</a>
</g>
</g>
<!-- Node0&#45;&gt;Node63 -->
<g id="edge24" class="edge"><title>Node0&#45;&gt;Node63</title>
<path fill="none" stroke="midnightblue" d="M2291.56,-229.963C2358.28,-223.442 2518.73,-207.228 2663.99,-188.084"/>
<polygon fill="midnightblue" stroke="midnightblue" points="2664.52,-191.544 2673.97,-186.76 2663.6,-184.605 2664.52,-191.544"/>
</g>
<!-- Node65 -->
<g id="node24" class="node"><title>Node65</title>
<g id="a_node24"><a xlink:href="api_2init_8h.html" target="_top" xlink:title="ODP initialization. ">
<polygon fill="white" stroke="red" points="2790,-168.5 2790,-187.5 2868,-187.5 2868,-168.5 2790,-168.5"/>
<text text-anchor="middle" x="2829" y="-175.5" font-family="Helvetica,sans-Serif" font-size="10.00">odp/api/init.h</text>
</a>
</g>
</g>
<!-- Node0&#45;&gt;Node65 -->
<g id="edge25" class="edge"><title>Node0&#45;&gt;Node65</title>
<path fill="none" stroke="midnightblue" d="M2291.54,-231.369C2371.5,-227.002 2588.77,-213.685 2779.82,-188.035"/>
<polygon fill="midnightblue" stroke="midnightblue" points="2780.32,-191.499 2789.76,-186.686 2779.38,-184.563 2780.32,-191.499"/>
</g>
<!-- Node68 -->
<g id="node25" class="node"><title>Node68</title>
<g id="a_node25"><a xlink:href="system__info_8h.html" target="_top" xlink:title="ODP system information. ">
<polygon fill="white" stroke="red" points="1228,-112.5 1228,-131.5 1350,-131.5 1350,-112.5 1228,-112.5"/>
<text text-anchor="middle" x="1289" y="-119.5" font-family="Helvetica,sans-Serif" font-size="10.00">odp/api/system_info.h</text>
</a>
</g>
</g>
<!-- Node0&#45;&gt;Node68 -->
<g id="edge26" class="edge"><title>Node0&#45;&gt;Node68</title>
<path fill="none" stroke="midnightblue" d="M2228.32,-233.128C2074.8,-233.528 1412.4,-232.635 1333,-188 1314.86,-177.8 1302.7,-156.631 1295.84,-141.214"/>
<polygon fill="midnightblue" stroke="midnightblue" points="1298.96,-139.595 1291.94,-131.665 1292.48,-142.246 1298.96,-139.595"/>
</g>
<!-- Node70 -->
<g id="node26" class="node"><title>Node70</title>
<g id="a_node26"><a xlink:href="api_2shared__memory_8h.html" target="_top" xlink:title="ODP shared memory. ">
<polygon fill="white" stroke="red" points="2886.5,-168.5 2886.5,-187.5 3027.5,-187.5 3027.5,-168.5 2886.5,-168.5"/>
<text text-anchor="middle" x="2957" y="-175.5" font-family="Helvetica,sans-Serif" font-size="10.00">odp/api/shared_memory.h</text>
</a>
</g>
</g>
<!-- Node0&#45;&gt;Node70 -->
<g id="edge29" class="edge"><title>Node0&#45;&gt;Node70</title>
<path fill="none" stroke="midnightblue" d="M2291.83,-231.121C2381.7,-225.72 2645.34,-209.233 2876.08,-188.049"/>
<polygon fill="midnightblue" stroke="midnightblue" points="2876.71,-191.505 2886.35,-187.101 2876.07,-184.535 2876.71,-191.505"/>
</g>
<!-- Node72 -->
<g id="node27" class="node"><title>Node72</title>
<g id="a_node27"><a xlink:href="api_2buffer_8h.html" target="_top" xlink:title="ODP buffer descriptor. ">
<polygon fill="white" stroke="red" points="1368.5,-112.5 1368.5,-131.5 1459.5,-131.5 1459.5,-112.5 1368.5,-112.5"/>
<text text-anchor="middle" x="1414" y="-119.5" font-family="Helvetica,sans-Serif" font-size="10.00">odp/api/buffer.h</text>
</a>
</g>
</g>
<!-- Node0&#45;&gt;Node72 -->
<g id="edge30" class="edge"><title>Node0&#45;&gt;Node72</title>
<path fill="none" stroke="midnightblue" d="M2228.27,-232.658C2070.1,-230.8 1373.2,-220.772 1342,-188 1323.61,-168.69 1355.51,-148.402 1382.53,-135.732"/>
<polygon fill="midnightblue" stroke="midnightblue" points="1384.1,-138.865 1391.79,-131.582 1381.23,-132.477 1384.1,-138.865"/>
</g>
<!-- Node74 -->
<g id="node28" class="node"><title>Node74</title>
<g id="a_node28"><a xlink:href="api_2pool_8h.html" target="_top" xlink:title="ODP pool. ">
<polygon fill="white" stroke="red" points="3046,-168.5 3046,-187.5 3130,-187.5 3130,-168.5 3046,-168.5"/>
<text text-anchor="middle" x="3088" y="-175.5" font-family="Helvetica,sans-Serif" font-size="10.00">odp/api/pool.h</text>
</a>
</g>
</g>
<!-- Node0&#45;&gt;Node74 -->
<g id="edge32" class="edge"><title>Node0&#45;&gt;Node74</title>
<path fill="none" stroke="midnightblue" d="M2291.57,-232.493C2396.16,-230.536 2740.92,-221.858 3035.73,-188.01"/>
<polygon fill="midnightblue" stroke="midnightblue" points="3036.23,-191.476 3045.76,-186.847 3035.42,-184.523 3036.23,-191.476"/>
</g>
<!-- Node76 -->
<g id="node29" class="node"><title>Node76</title>
<g id="a_node29"><a xlink:href="api_2queue_8h.html" target="_top" xlink:title="ODP queue. ">
<polygon fill="white" stroke="red" points="1478,-112.5 1478,-131.5 1572,-131.5 1572,-112.5 1478,-112.5"/>
<text text-anchor="middle" x="1525" y="-119.5" font-family="Helvetica,sans-Serif" font-size="10.00">odp/api/queue.h</text>
</a>
</g>
</g>
<!-- Node0&#45;&gt;Node76 -->
<g id="edge33" class="edge"><title>Node0&#45;&gt;Node76</title>
<path fill="none" stroke="midnightblue" d="M2228.29,-232.644C2070.99,-230.725 1380.91,-220.476 1350,-188 1343.87,-181.561 1344.55,-175.025 1350,-168 1357.56,-158.25 1421.91,-143.491 1470.4,-133.56"/>
<polygon fill="midnightblue" stroke="midnightblue" points="1471.37,-136.934 1480.48,-131.518 1469.98,-130.073 1471.37,-136.934"/>
</g>
<!-- Node84 -->
<g id="node30" class="node"><title>Node84</title>
<g id="a_node30"><a xlink:href="api_2ticketlock_8h.html" target="_top" xlink:title="ODP ticketlock. ">
<polygon fill="white" stroke="red" points="3148.5,-168.5 3148.5,-187.5 3257.5,-187.5 3257.5,-168.5 3148.5,-168.5"/>
<text text-anchor="middle" x="3203" y="-175.5" font-family="Helvetica,sans-Serif" font-size="10.00">odp/api/ticketlock.h</text>
</a>
</g>
</g>
<!-- Node0&#45;&gt;Node84 -->
<g id="edge35" class="edge"><title>Node0&#45;&gt;Node84</title>
<path fill="none" stroke="midnightblue" d="M2291.61,-232.393C2404.81,-230.007 2800.71,-219.833 3138.26,-187.977"/>
<polygon fill="midnightblue" stroke="midnightblue" points="3138.6,-191.46 3148.23,-187.028 3137.94,-184.491 3138.6,-191.46"/>
</g>
<!-- Node32 -->
<g id="node31" class="node"><title>Node32</title>
<g id="a_node31"><a xlink:href="api_2time_8h.html" target="_top" xlink:title="ODP time. ">
<polygon fill="white" stroke="red" points="438,-112.5 438,-131.5 524,-131.5 524,-112.5 438,-112.5"/>
<text text-anchor="middle" x="481" y="-119.5" font-family="Helvetica,sans-Serif" font-size="10.00">odp/api/time.h</text>
</a>
</g>
</g>
<!-- Node0&#45;&gt;Node32 -->
<g id="edge36" class="edge"><title>Node0&#45;&gt;Node32</title>
<path fill="none" stroke="midnightblue" d="M2228.46,-233.027C2037.72,-233.049 1036.62,-231.08 733,-188 654.067,-176.8 564.226,-150.16 516.012,-134.684"/>
<polygon fill="midnightblue" stroke="midnightblue" points="516.967,-131.315 506.375,-131.561 514.809,-137.974 516.967,-131.315"/>
</g>
<!-- Node87 -->
<g id="node32" class="node"><title>Node87</title>
<g id="a_node32"><a xlink:href="api_2timer_8h.html" target="_top" xlink:title="ODP timer service. ">
<polygon fill="white" stroke="red" points="542.5,-112.5 542.5,-131.5 631.5,-131.5 631.5,-112.5 542.5,-112.5"/>
<text text-anchor="middle" x="587" y="-119.5" font-family="Helvetica,sans-Serif" font-size="10.00">odp/api/timer.h</text>
</a>
</g>
</g>
<!-- Node0&#45;&gt;Node87 -->
<g id="edge38" class="edge"><title>Node0&#45;&gt;Node87</title>
<path fill="none" stroke="midnightblue" d="M2228.44,-232.982C2045.02,-232.73 1114.7,-229.401 832,-188 755.332,-176.772 668.224,-150.239 621.308,-134.767"/>
<polygon fill="midnightblue" stroke="midnightblue" points="622.244,-131.389 611.65,-131.55 620.032,-138.03 622.244,-131.389"/>
</g>
<!-- Node90 -->
<g id="node33" class="node"><title>Node90</title>
<g id="a_node33"><a xlink:href="api_2schedule_8h.html" target="_top" xlink:title="ODP schedule. ">
<polygon fill="white" stroke="red" points="3275.5,-168.5 3275.5,-187.5 3382.5,-187.5 3382.5,-168.5 3275.5,-168.5"/>
<text text-anchor="middle" x="3329" y="-175.5" font-family="Helvetica,sans-Serif" font-size="10.00">odp/api/schedule.h</text>
</a>
</g>
</g>
<!-- Node0&#45;&gt;Node90 -->
<g id="edge40" class="edge"><title>Node0&#45;&gt;Node90</title>
<path fill="none" stroke="midnightblue" d="M2291.83,-232.729C2415.5,-231.436 2876.18,-224.373 3265.23,-188.078"/>
<polygon fill="midnightblue" stroke="midnightblue" points="3265.64,-191.555 3275.27,-187.133 3264.99,-184.585 3265.64,-191.555"/>
</g>
<!-- Node96 -->
<g id="node34" class="node"><title>Node96</title>
<g id="a_node34"><a xlink:href="api_2sync_8h.html" target="_top" xlink:title="ODP synchronisation. ">
<polygon fill="white" stroke="red" points="3401,-168.5 3401,-187.5 3487,-187.5 3487,-168.5 3401,-168.5"/>
<text text-anchor="middle" x="3444" y="-175.5" font-family="Helvetica,sans-Serif" font-size="10.00">odp/api/sync.h</text>
</a>
</g>
</g>
<!-- Node0&#45;&gt;Node96 -->
<g id="edge41" class="edge"><title>Node0&#45;&gt;Node96</title>
<path fill="none" stroke="midnightblue" d="M2291.62,-233.264C2424.37,-234.054 2949.76,-234.005 3390.85,-187.965"/>
<polygon fill="midnightblue" stroke="midnightblue" points="3391.35,-191.432 3400.93,-186.904 3390.62,-184.471 3391.35,-191.432"/>
</g>
<!-- Node26 -->
<g id="node35" class="node"><title>Node26</title>
<g id="a_node35"><a xlink:href="api_2packet_8h.html" target="_top" xlink:title="ODP packet descriptor. ">
<polygon fill="white" stroke="red" points="650,-112.5 650,-131.5 746,-131.5 746,-112.5 650,-112.5"/>
<text text-anchor="middle" x="698" y="-119.5" font-family="Helvetica,sans-Serif" font-size="10.00">odp/api/packet.h</text>
</a>
</g>
</g>
<!-- Node0&#45;&gt;Node26 -->
<g id="edge42" class="edge"><title>Node0&#45;&gt;Node26</title>
<path fill="none" stroke="midnightblue" d="M2228.45,-232.996C2052.02,-232.817 1186.21,-229.785 923,-188 852.736,-176.845 773.411,-150.574 730.236,-135.061"/>
<polygon fill="midnightblue" stroke="midnightblue" points="731.166,-131.675 720.572,-131.55 728.776,-138.254 731.166,-131.675"/>
</g>
<!-- Node99 -->
<g id="node36" class="node"><title>Node99</title>
<g id="a_node36"><a xlink:href="api_2packet__flags_8h.html" target="_top" xlink:title="ODP packet flags. ">
<polygon fill="white" stroke="red" points="3505,-168.5 3505,-187.5 3629,-187.5 3629,-168.5 3505,-168.5"/>
<text text-anchor="middle" x="3567" y="-175.5" font-family="Helvetica,sans-Serif" font-size="10.00">odp/api/packet_flags.h</text>
</a>
</g>
</g>
<!-- Node0&#45;&gt;Node99 -->
<g id="edge44" class="edge"><title>Node0&#45;&gt;Node99</title>
<path fill="none" stroke="midnightblue" d="M2291.58,-232.891C2431.49,-232.193 3009.69,-227.017 3494.69,-188.029"/>
<polygon fill="midnightblue" stroke="midnightblue" points="3495.01,-191.515 3504.69,-187.219 3494.44,-184.537 3495.01,-191.515"/>
</g>
<!-- Node102 -->
<g id="node37" class="node"><title>Node102</title>
<g id="a_node37"><a xlink:href="api_2packet__io_8h.html" target="_top" xlink:title="ODP Packet IO. ">
<polygon fill="white" stroke="red" points="764,-112.5 764,-131.5 874,-131.5 874,-112.5 764,-112.5"/>
<text text-anchor="middle" x="819" y="-119.5" font-family="Helvetica,sans-Serif" font-size="10.00">odp/api/packet_io.h</text>
</a>
</g>
</g>
<!-- Node0&#45;&gt;Node102 -->
<g id="edge45" class="edge"><title>Node0&#45;&gt;Node102</title>
<path fill="none" stroke="midnightblue" d="M2228.46,-233.223C2057.69,-234.225 1242.45,-236.36 996,-188 940.742,-177.157 879.827,-151.537 845.807,-135.895"/>
<polygon fill="midnightblue" stroke="midnightblue" points="847.092,-132.633 836.55,-131.578 844.134,-138.977 847.092,-132.633"/>
</g>
<!-- Node107 -->
<g id="node38" class="node"><title>Node107</title>
<g id="a_node38"><a xlink:href="api_2crypto_8h.html" target="_top" xlink:title="ODP crypto. ">
<polygon fill="white" stroke="red" points="1359,-168.5 1359,-187.5 1453,-187.5 1453,-168.5 1359,-168.5"/>
<text text-anchor="middle" x="1406" y="-175.5" font-family="Helvetica,sans-Serif" font-size="10.00">odp/api/crypto.h</text>
</a>
</g>
</g>
<!-- Node0&#45;&gt;Node107 -->
<g id="edge47" class="edge"><title>Node0&#45;&gt;Node107</title>
<path fill="none" stroke="midnightblue" d="M2228.19,-232.221C2120.81,-229.371 1761.95,-218.066 1467,-188 1465.74,-187.872 1464.47,-187.736 1463.19,-187.594"/>
<polygon fill="midnightblue" stroke="midnightblue" points="1463.58,-184.117 1453.24,-186.397 1462.75,-191.066 1463.58,-184.117"/>
</g>
<!-- Node110 -->
<g id="node39" class="node"><title>Node110</title>
<g id="a_node39"><a xlink:href="api_2classification_8h.html" target="_top" xlink:title="ODP classification descriptor. ">
<polygon fill="white" stroke="red" points="892.5,-112.5 892.5,-131.5 1017.5,-131.5 1017.5,-112.5 892.5,-112.5"/>
<text text-anchor="middle" x="955" y="-119.5" font-family="Helvetica,sans-Serif" font-size="10.00">odp/api/classification.h</text>
</a>
</g>
</g>
<!-- Node0&#45;&gt;Node110 -->
<g id="edge50" class="edge"><title>Node0&#45;&gt;Node110</title>
<path fill="none" stroke="midnightblue" d="M2228.41,-233.07C2047.45,-233.309 1146.48,-232.253 1032,-188 1006.12,-177.995 982.746,-155.432 968.712,-139.716"/>
<polygon fill="midnightblue" stroke="midnightblue" points="971.091,-137.115 961.919,-131.812 965.782,-141.677 971.091,-137.115"/>
</g>
<!-- Node114 -->
<g id="node40" class="node"><title>Node114</title>
<g id="a_node40"><a xlink:href="api_2rwlock_8h.html" target="_top" xlink:title="ODP RW Locks. ">
<polygon fill="white" stroke="red" points="3646.5,-168.5 3646.5,-187.5 3739.5,-187.5 3739.5,-168.5 3646.5,-168.5"/>
<text text-anchor="middle" x="3693" y="-175.5" font-family="Helvetica,sans-Serif" font-size="10.00">odp/api/rwlock.h</text>
</a>
</g>
</g>
<!-- Node0&#45;&gt;Node114 -->
<g id="edge52" class="edge"><title>Node0&#45;&gt;Node114</title>
<path fill="none" stroke="midnightblue" d="M2291.57,-232.526C2468.91,-229.778 3343.35,-215.11 3636.08,-188.042"/>
<polygon fill="midnightblue" stroke="midnightblue" points="3636.62,-191.506 3646.25,-187.073 3635.96,-184.537 3636.62,-191.506"/>
</g>
<!-- Node78 -->
<g id="node41" class="node"><title>Node78</title>
<g id="a_node41"><a xlink:href="api_2event_8h.html" target="_top" xlink:title="ODP event. ">
<polygon fill="white" stroke="red" points="3757.5,-168.5 3757.5,-187.5 3848.5,-187.5 3848.5,-168.5 3757.5,-168.5"/>
<text text-anchor="middle" x="3803" y="-175.5" font-family="Helvetica,sans-Serif" font-size="10.00">odp/api/event.h</text>
</a>
</g>
</g>
<!-- Node0&#45;&gt;Node78 -->
<g id="edge53" class="edge"><title>Node0&#45;&gt;Node78</title>
<path fill="none" stroke="midnightblue" d="M2291.63,-232.626C2477.59,-230.34 3431.07,-217.399 3747.32,-188.009"/>
<polygon fill="midnightblue" stroke="midnightblue" points="3747.77,-191.482 3757.39,-187.046 3747.1,-184.513 3747.77,-191.482"/>
</g>
<!-- Node117 -->
<g id="node42" class="node"><title>Node117</title>
<g id="a_node42"><a xlink:href="random_8h.html" target="_top" xlink:title="ODP random number API. ">
<polygon fill="white" stroke="red" points="3866.5,-168.5 3866.5,-187.5 3967.5,-187.5 3967.5,-168.5 3866.5,-168.5"/>
<text text-anchor="middle" x="3917" y="-175.5" font-family="Helvetica,sans-Serif" font-size="10.00">odp/api/random.h</text>
</a>
</g>
</g>
<!-- Node0&#45;&gt;Node117 -->
<g id="edge54" class="edge"><title>Node0&#45;&gt;Node117</title>
<path fill="none" stroke="midnightblue" d="M2291.68,-232.641C2485.76,-230.363 3516.76,-217.099 3856.12,-188.042"/>
<polygon fill="midnightblue" stroke="midnightblue" points="3856.54,-191.518 3866.2,-187.156 3855.93,-184.545 3856.54,-191.518"/>
</g>
<!-- Node119 -->
<g id="node43" class="node"><title>Node119</title>
<g id="a_node43"><a xlink:href="errno_8h.html" target="_top" xlink:title="ODP errno API. ">
<polygon fill="white" stroke="red" points="3985.5,-168.5 3985.5,-187.5 4074.5,-187.5 4074.5,-168.5 3985.5,-168.5"/>
<text text-anchor="middle" x="4030" y="-175.5" font-family="Helvetica,sans-Serif" font-size="10.00">odp/api/errno.h</text>
</a>
</g>
</g>
<!-- Node0&#45;&gt;Node119 -->
<g id="edge55" class="edge"><title>Node0&#45;&gt;Node119</title>
<path fill="none" stroke="midnightblue" d="M2291.7,-232.785C2494.3,-231.318 3610.81,-221.839 3975.2,-188.017"/>
<polygon fill="midnightblue" stroke="midnightblue" points="3975.62,-191.493 3985.24,-187.06 3974.95,-184.525 3975.62,-191.493"/>
</g>
<!-- Node93 -->
<g id="node44" class="node"><title>Node93</title>
<g id="a_node44"><a xlink:href="api_2thrmask_8h.html" target="_top" xlink:title="ODP thread masks. ">
<polygon fill="white" stroke="red" points="4093,-168.5 4093,-187.5 4197,-187.5 4197,-168.5 4093,-168.5"/>
<text text-anchor="middle" x="4145" y="-175.5" font-family="Helvetica,sans-Serif" font-size="10.00">odp/api/thrmask.h</text>
</a>
</g>
</g>
<!-- Node0&#45;&gt;Node93 -->
<g id="edge56" class="edge"><title>Node0&#45;&gt;Node93</title>
<path fill="none" stroke="midnightblue" d="M2291.59,-232.748C2501.21,-230.997 3694.49,-219.791 4082.67,-187.979"/>
<polygon fill="midnightblue" stroke="midnightblue" points="4083.13,-191.452 4092.81,-187.128 4082.55,-184.477 4083.13,-191.452"/>
</g>
<!-- Node121 -->
<g id="node45" class="node"><title>Node121</title>
<g id="a_node45"><a xlink:href="api_2traffic__mngr_8h.html" target="_top" xlink:title="ODP Traffic manager. ">
<polygon fill="white" stroke="red" points="4215.5,-168.5 4215.5,-187.5 4336.5,-187.5 4336.5,-168.5 4215.5,-168.5"/>
<text text-anchor="middle" x="4276" y="-175.5" font-family="Helvetica,sans-Serif" font-size="10.00">odp/api/traffic_mngr.h</text>
</a>
</g>
</g>
<!-- Node0&#45;&gt;Node121 -->
<g id="edge57" class="edge"><title>Node0&#45;&gt;Node121</title>
<path fill="none" stroke="midnightblue" d="M2291.56,-232.724C2509.12,-230.754 3790.01,-218.051 4205.09,-187.954"/>
<polygon fill="midnightblue" stroke="midnightblue" points="4205.62,-191.425 4215.33,-187.195 4205.1,-184.444 4205.62,-191.425"/>
</g>
<!-- Node124 -->
<g id="node46" class="node"><title>Node124</title>
<g id="a_node46"><a xlink:href="api_2spinlock__recursive_8h.html" target="_top" xlink:title="ODP resursive spinlock. ">
<polygon fill="white" stroke="red" points="4354.5,-168.5 4354.5,-187.5 4505.5,-187.5 4505.5,-168.5 4354.5,-168.5"/>
<text text-anchor="middle" x="4430" y="-175.5" font-family="Helvetica,sans-Serif" font-size="10.00">odp/api/spinlock_recursive.h</text>
</a>
</g>
</g>
<!-- Node0&#45;&gt;Node124 -->
<g id="edge58" class="edge"><title>Node0&#45;&gt;Node124</title>
<path fill="none" stroke="midnightblue" d="M2291.6,-232.688C2518.27,-230.398 3900.33,-215.5 4344.47,-188.03"/>
<polygon fill="midnightblue" stroke="midnightblue" points="4344.71,-191.522 4354.47,-187.399 4344.27,-184.536 4344.71,-191.522"/>
</g>
<!-- Node127 -->
<g id="node47" class="node"><title>Node127</title>
<g id="a_node47"><a xlink:href="api_2rwlock__recursive_8h.html" target="_top" xlink:title="ODP resursive read/write lock. ">
<polygon fill="white" stroke="red" points="4524,-168.5 4524,-187.5 4666,-187.5 4666,-168.5 4524,-168.5"/>
<text text-anchor="middle" x="4595" y="-175.5" font-family="Helvetica,sans-Serif" font-size="10.00">odp/api/rwlock_recursive.h</text>
</a>
</g>
</g>
<!-- Node0&#45;&gt;Node127 -->
<g id="edge59" class="edge"><title>Node0&#45;&gt;Node127</title>
<path fill="none" stroke="midnightblue" d="M2291.83,-232.768C2529.7,-230.977 4033.18,-218.598 4513.81,-187.996"/>
<polygon fill="midnightblue" stroke="midnightblue" points="4514.18,-191.48 4523.93,-187.339 4513.72,-184.494 4514.18,-191.48"/>
</g>
<!-- Node130 -->
<g id="node48" class="node"><title>Node130</title>
<g id="a_node48"><a xlink:href="api_2std__clib_8h_source.html" target="_top" xlink:title="odp/api/std_clib.h">
<polygon fill="white" stroke="red" points="1487,-56.5 1487,-75.5 1587,-75.5 1587,-56.5 1487,-56.5"/>
<text text-anchor="middle" x="1537" y="-63.5" font-family="Helvetica,sans-Serif" font-size="10.00">odp/api/std_clib.h</text>
</a>
</g>
</g>
<!-- Node0&#45;&gt;Node130 -->
<g id="edge60" class="edge"><title>Node0&#45;&gt;Node130</title>
<path fill="none" stroke="midnightblue" d="M2228.06,-232.318C2086.97,-229.154 1525.36,-214.902 1500,-188 1493.9,-181.532 1494.91,-175.289 1500,-168 1526.56,-129.951 1571.44,-170.049 1598,-132 1611.7,-112.37 1586.57,-92.7301 1564.54,-80.2597"/>
<polygon fill="midnightblue" stroke="midnightblue" points="1566.18,-77.1705 1555.72,-75.5323 1562.88,-83.3405 1566.18,-77.1705"/>
</g>
<!-- Node24 -->
<g id="node49" class="node"><title>Node24</title>
<g id="a_node49"><a xlink:href="support_8h.html" target="_top" xlink:title="ODP support API &#45; platform specific header. ">
<polygon fill="white" stroke="red" points="4684.5,-168.5 4684.5,-187.5 4785.5,-187.5 4785.5,-168.5 4684.5,-168.5"/>
<text text-anchor="middle" x="4735" y="-175.5" font-family="Helvetica,sans-Serif" font-size="10.00">odp/api/support.h</text>
</a>
</g>
</g>
<!-- Node0&#45;&gt;Node24 -->
<g id="edge62" class="edge"><title>Node0&#45;&gt;Node24</title>
<path fill="none" stroke="midnightblue" d="M2291.69,-232.978C2538.72,-232.724 4159.56,-229.507 4674.22,-187.91"/>
<polygon fill="midnightblue" stroke="midnightblue" points="4674.64,-191.387 4684.32,-187.077 4674.06,-184.411 4674.64,-191.387"/>
</g>
<!-- Node133 -->
<g id="node50" class="node"><title>Node133</title>
<g id="a_node50"><a xlink:href="api_2ipsec_8h.html" target="_top" xlink:title="ODP IPSEC API &#45; platform specific header. ">
<polygon fill="white" stroke="red" points="4803.5,-168.5 4803.5,-187.5 4892.5,-187.5 4892.5,-168.5 4803.5,-168.5"/>
<text text-anchor="middle" x="4848" y="-175.5" font-family="Helvetica,sans-Serif" font-size="10.00">odp/api/ipsec.h</text>
</a>
</g>
</g>
<!-- Node0&#45;&gt;Node133 -->
<g id="edge63" class="edge"><title>Node0&#45;&gt;Node133</title>
<path fill="none" stroke="midnightblue" d="M2291.64,-233.094C2545.44,-233.755 4254.03,-236.369 4793.06,-188.02"/>
<polygon fill="midnightblue" stroke="midnightblue" points="4793.6,-191.484 4803.24,-187.087 4792.97,-184.514 4793.6,-191.484"/>
</g>
<!-- Node2 -->
<g id="node3" class="node"><title>Node2</title>
<g id="a_node3"><a xlink:href="spec_2deprecated_8h.html" target="_top" xlink:title="Macro for deprecated API definitions. ">
<polygon fill="white" stroke="red" points="0,-112.5 0,-131.5 144,-131.5 144,-112.5 0,-112.5"/>
<text text-anchor="middle" x="72" y="-119.5" font-family="Helvetica,sans-Serif" font-size="10.00">odp/api/spec/deprecated.h</text>
</a>
</g>
</g>
<!-- Node1&#45;&gt;Node2 -->
<g id="edge2" class="edge"><title>Node1&#45;&gt;Node2</title>
<path fill="none" stroke="midnightblue" d="M139.986,-168.324C127.468,-159.979 108.318,-147.212 93.5286,-137.352"/>
<polygon fill="midnightblue" stroke="midnightblue" points="95.2437,-134.289 84.9818,-131.655 91.3608,-140.114 95.2437,-134.289"/>
</g>
<!-- Node6 -->
<g id="node5" class="node"><title>Node6</title>
<polygon fill="white" stroke="#bfbfbf" points="304,-112.5 304,-131.5 420,-131.5 420,-112.5 304,-112.5"/>
<text text-anchor="middle" x="362" y="-119.5" font-family="Helvetica,sans-Serif" font-size="10.00">odp/api/abi/version.h</text>
</g>
<!-- Node5&#45;&gt;Node6 -->
<g id="edge4" class="edge"><title>Node5&#45;&gt;Node6</title>
<path fill="none" stroke="midnightblue" d="M362,-168.083C362,-161.006 362,-150.861 362,-141.986"/>
<polygon fill="midnightblue" stroke="midnightblue" points="365.5,-141.751 362,-131.751 358.5,-141.751 365.5,-141.751"/>
</g>
<!-- Node7 -->
<g id="node6" class="node"><title>Node7</title>
<g id="a_node6"><a xlink:href="api_2spec_2version_8h.html" target="_top" xlink:title="ODP version. ">
<polygon fill="white" stroke="red" points="162,-112.5 162,-131.5 286,-131.5 286,-112.5 162,-112.5"/>
<text text-anchor="middle" x="224" y="-119.5" font-family="Helvetica,sans-Serif" font-size="10.00">odp/api/spec/version.h</text>
</a>
</g>
</g>
<!-- Node5&#45;&gt;Node7 -->
<g id="edge5" class="edge"><title>Node5&#45;&gt;Node7</title>
<path fill="none" stroke="midnightblue" d="M340.133,-168.444C317.221,-159.478 281.025,-145.314 255.134,-135.183"/>
<polygon fill="midnightblue" stroke="midnightblue" points="256.352,-131.901 245.764,-131.516 253.801,-138.42 256.352,-131.901"/>
</g>
<!-- Node9 -->
<g id="node8" class="node"><title>Node9</title>
<polygon fill="white" stroke="#bfbfbf" points="1252,-0.5 1252,-19.5 1380,-19.5 1380,-0.5 1252,-0.5"/>
<text text-anchor="middle" x="1316" y="-7.5" font-family="Helvetica,sans-Serif" font-size="10.00">odp/api/abi/std_types.h</text>
</g>
<!-- Node8&#45;&gt;Node9 -->
<g id="edge7" class="edge"><title>Node8&#45;&gt;Node9</title>
<path fill="none" stroke="midnightblue" d="M1104.77,-56.4435C1148.56,-47.0234 1219.01,-31.8656 1266.38,-21.6752"/>
<polygon fill="midnightblue" stroke="midnightblue" points="1267.37,-25.0415 1276.41,-19.5164 1265.9,-18.1981 1267.37,-25.0415"/>
</g>
<!-- Node10 -->
<g id="node9" class="node"><title>Node10</title>
<g id="a_node9"><a xlink:href="api_2spec_2std__types_8h.html" target="_top" xlink:title="Standard C language types and definitions for ODP. ">
<polygon fill="white" stroke="red" points="997,-0.5 997,-19.5 1133,-19.5 1133,-0.5 997,-0.5"/>
<text text-anchor="middle" x="1065" y="-7.5" font-family="Helvetica,sans-Serif" font-size="10.00">odp/api/spec/std_types.h</text>
</a>
</g>
</g>
<!-- Node8&#45;&gt;Node10 -->
<g id="edge8" class="edge"><title>Node8&#45;&gt;Node10</title>
<path fill="none" stroke="midnightblue" d="M1065,-56.083C1065,-49.0059 1065,-38.8611 1065,-29.9865"/>
<polygon fill="midnightblue" stroke="midnightblue" points="1068.5,-29.751 1065,-19.7511 1061.5,-29.7511 1068.5,-29.751"/>
</g>
<!-- Node43&#45;&gt;Node45 -->
<g id="edge17" class="edge"><title>Node43&#45;&gt;Node45</title>
<path fill="none" stroke="midnightblue" d="M2365.22,-168.083C2360.33,-160.534 2353.17,-149.495 2347.17,-140.23"/>
<polygon fill="midnightblue" stroke="midnightblue" points="2350.05,-138.239 2341.67,-131.751 2344.17,-142.046 2350.05,-138.239"/>
</g>
<!-- Node53&#45;&gt;Node8 -->
<g id="edge20" class="edge"><title>Node53&#45;&gt;Node8</title>
<path fill="none" stroke="midnightblue" d="M1132.96,-168.399C1124.92,-159.599 1112.44,-145.362 1103,-132 1092.18,-116.687 1081.56,-98.1281 1074.3,-84.7676"/>
<polygon fill="midnightblue" stroke="midnightblue" points="1077.26,-82.8798 1069.47,-75.7041 1071.09,-86.1745 1077.26,-82.8798"/>
</g>
<!-- Node53&#45;&gt;Node54 -->
<g id="edge21" class="edge"><title>Node53&#45;&gt;Node54</title>
<path fill="none" stroke="midnightblue" d="M1144.3,-168.083C1146.98,-160.849 1150.85,-150.409 1154.19,-141.397"/>
<polygon fill="midnightblue" stroke="midnightblue" points="1157.57,-142.344 1157.76,-131.751 1151,-139.913 1157.57,-142.344"/>
</g>
<!-- Node68&#45;&gt;Node8 -->
<g id="edge27" class="edge"><title>Node68&#45;&gt;Node8</title>
<path fill="none" stroke="midnightblue" d="M1253.51,-112.444C1214.68,-103.083 1152.34,-88.0561 1110.08,-77.868"/>
<polygon fill="midnightblue" stroke="midnightblue" points="1110.87,-74.4576 1100.33,-75.5164 1109.23,-81.2626 1110.87,-74.4576"/>
</g>
<!-- Node72&#45;&gt;Node8 -->
<g id="edge31" class="edge"><title>Node72&#45;&gt;Node8</title>
<path fill="none" stroke="midnightblue" d="M1368.39,-113.499C1365.21,-112.988 1362.06,-112.484 1359,-112 1280.29,-99.5374 1189.64,-85.7476 1130.05,-76.7595"/>
<polygon fill="midnightblue" stroke="midnightblue" points="1130.43,-73.2784 1120.02,-75.2489 1129.39,-80.2002 1130.43,-73.2784"/>
</g>
<!-- Node76&#45;&gt;Node8 -->
<g id="edge34" class="edge"><title>Node76&#45;&gt;Node8</title>
<path fill="none" stroke="midnightblue" d="M1477.75,-113.37C1474.45,-112.89 1471.18,-112.428 1468,-112 1349.31,-96.0119 1210.41,-81.4017 1130.57,-73.398"/>
<polygon fill="midnightblue" stroke="midnightblue" points="1130.48,-69.8715 1120.18,-72.3603 1129.78,-76.8368 1130.48,-69.8715"/>
</g>
<!-- Node32&#45;&gt;Node8 -->
<g id="edge37" class="edge"><title>Node32&#45;&gt;Node8</title>
<path fill="none" stroke="midnightblue" d="M524.087,-113.246C527.099,-112.795 530.092,-112.374 533,-112 700.542,-90.4568 899.147,-76.7812 999.684,-70.6891"/>
<polygon fill="midnightblue" stroke="midnightblue" points="999.918,-74.1814 1009.69,-70.0882 999.498,-67.194 999.918,-74.1814"/>
</g>
<!-- Node87&#45;&gt;Node8 -->
<g id="edge39" class="edge"><title>Node87&#45;&gt;Node8</title>
<path fill="none" stroke="midnightblue" d="M631.758,-113.33C634.883,-112.859 637.986,-112.411 641,-112 767.738,-94.7286 916.556,-80.2712 999.907,-72.6977"/>
<polygon fill="midnightblue" stroke="midnightblue" points="1000.34,-76.1725 1009.99,-71.7862 999.714,-69.2009 1000.34,-76.1725"/>
</g>
<!-- Node26&#45;&gt;Node8 -->
<g id="edge43" class="edge"><title>Node26&#45;&gt;Node8</title>
<path fill="none" stroke="midnightblue" d="M746.196,-113.347C749.174,-112.887 752.127,-112.435 755,-112 839.424,-99.208 936.899,-85.18 999.66,-76.2439"/>
<polygon fill="midnightblue" stroke="midnightblue" points="1000.4,-79.6735 1009.81,-74.7999 999.418,-72.7433 1000.4,-79.6735"/>
</g>
<!-- Node102&#45;&gt;Node8 -->
<g id="edge46" class="edge"><title>Node102&#45;&gt;Node8</title>
<path fill="none" stroke="midnightblue" d="M857.979,-112.444C900.894,-103.023 969.946,-87.8656 1016.37,-77.6752"/>
<polygon fill="midnightblue" stroke="midnightblue" points="1017.19,-81.0792 1026.2,-75.5164 1015.69,-74.242 1017.19,-81.0792"/>
</g>
<!-- Node107&#45;&gt;Node8 -->
<g id="edge48" class="edge"><title>Node107&#45;&gt;Node8</title>
<path fill="none" stroke="midnightblue" d="M1450.52,-168.482C1499.65,-158.634 1572.9,-142.443 1581,-132 1586.45,-124.975 1587.01,-118.553 1581,-112 1551.12,-79.4062 1262.6,-70.3334 1130.48,-67.8787"/>
<polygon fill="midnightblue" stroke="midnightblue" points="1130.16,-64.3725 1120.1,-67.6935 1130.03,-71.3714 1130.16,-64.3725"/>
</g>
<!-- Node107&#45;&gt;Node76 -->
<g id="edge49" class="edge"><title>Node107&#45;&gt;Node76</title>
<path fill="none" stroke="midnightblue" d="M1424.86,-168.444C1444.27,-159.636 1474.73,-145.812 1496.96,-135.722"/>
<polygon fill="midnightblue" stroke="midnightblue" points="1498.57,-138.836 1506.23,-131.516 1495.68,-132.462 1498.57,-138.836"/>
</g>
<!-- Node110&#45;&gt;Node8 -->
<g id="edge51" class="edge"><title>Node110&#45;&gt;Node8</title>
<path fill="none" stroke="midnightblue" d="M972.673,-112.324C990.394,-103.625 1017.9,-90.1202 1038.29,-80.113"/>
<polygon fill="midnightblue" stroke="midnightblue" points="1039.94,-83.2031 1047.37,-75.6545 1036.85,-76.9195 1039.94,-83.2031"/>
</g>
<!-- Node130&#45;&gt;Node9 -->
<g id="edge61" class="edge"><title>Node130&#45;&gt;Node9</title>
<path fill="none" stroke="midnightblue" d="M1501.98,-56.4435C1463.75,-47.1024 1402.43,-32.1194 1360.74,-21.9326"/>
<polygon fill="midnightblue" stroke="midnightblue" points="1361.4,-18.4901 1350.85,-19.5164 1359.74,-25.2901 1361.4,-18.4901"/>
</g>
</g>
</svg>
