<?xml version="1.0" encoding="UTF-8" standalone="no"?>
<!DOCTYPE svg PUBLIC "-//W3C//DTD SVG 1.1//EN"
 "http://www.w3.org/Graphics/SVG/1.1/DTD/svg11.dtd">
<!-- Generated by graphviz version 2.38.0 (20140413.2041)
 -->
<!-- Title: std_types.h Pages: 1 -->
<svg width="2373pt" height="420pt"
 viewBox="0.00 0.00 2372.50 420.00" xmlns="http://www.w3.org/2000/svg" xmlns:xlink="http://www.w3.org/1999/xlink">
<g id="graph0" class="graph" transform="scale(1 1) rotate(0) translate(4 416)">
<title>std_types.h</title>
<polygon fill="white" stroke="none" points="-4,4 -4,-416 2368.5,-416 2368.5,4 -4,4"/>
<!-- Node4 -->
<g id="node1" class="node"><title>Node4</title>
<polygon fill="#bfbfbf" stroke="black" points="1238.5,-392.5 1238.5,-411.5 1310.5,-411.5 1310.5,-392.5 1238.5,-392.5"/>
<text text-anchor="middle" x="1274.5" y="-399.5" font-family="Helvetica,sans-Serif" font-size="10.00">std_types.h</text>
</g>
<!-- Node5 -->
<g id="node2" class="node"><title>Node5</title>
<g id="a_node2"><a xlink:href="std__types_8h.html" target="_top" xlink:title="Standard C language types and definitions for ODP. ">
<polygon fill="white" stroke="black" points="1238.5,-336.5 1238.5,-355.5 1310.5,-355.5 1310.5,-336.5 1238.5,-336.5"/>
<text text-anchor="middle" x="1274.5" y="-343.5" font-family="Helvetica,sans-Serif" font-size="10.00">std_types.h</text>
</a>
</g>
</g>
<!-- Node4&#45;&gt;Node5 -->
<g id="edge1" class="edge"><title>Node4&#45;&gt;Node5</title>
<path fill="none" stroke="midnightblue" d="M1274.5,-381.805C1274.5,-372.91 1274.5,-362.78 1274.5,-355.751"/>
<polygon fill="midnightblue" stroke="midnightblue" points="1271,-382.083 1274.5,-392.083 1278,-382.083 1271,-382.083"/>
</g>
<!-- Node6 -->
<g id="node3" class="node"><title>Node6</title>
<g id="a_node3"><a xlink:href="abi-default_2atomic_8h.html" target="_top" xlink:title="ODP atomic operations. ">
<polygon fill="white" stroke="black" points="0,-280.5 0,-299.5 59,-299.5 59,-280.5 0,-280.5"/>
<text text-anchor="middle" x="29.5" y="-287.5" font-family="Helvetica,sans-Serif" font-size="10.00">atomic.h</text>
</a>
</g>
</g>
<!-- Node5&#45;&gt;Node6 -->
<g id="edge2" class="edge"><title>Node5&#45;&gt;Node6</title>
<path fill="none" stroke="midnightblue" d="M1228.32,-344.447C1036.12,-341.966 298.957,-330.609 68.5,-300 65.4692,-299.597 62.3281,-299.067 59.2042,-298.466"/>
<polygon fill="midnightblue" stroke="midnightblue" points="1228.32,-347.947 1238.37,-344.575 1228.41,-340.948 1228.32,-347.947"/>
</g>
<!-- Node7 -->
<g id="node4" class="node"><title>Node7</title>
<g id="a_node4"><a xlink:href="abi-default_2barrier_8h.html" target="_top" xlink:title="ODP barrier. ">
<polygon fill="white" stroke="black" points="77.5,-280.5 77.5,-299.5 133.5,-299.5 133.5,-280.5 77.5,-280.5"/>
<text text-anchor="middle" x="105.5" y="-287.5" font-family="Helvetica,sans-Serif" font-size="10.00">barrier.h</text>
</a>
</g>
</g>
<!-- Node5&#45;&gt;Node7 -->
<g id="edge3" class="edge"><title>Node5&#45;&gt;Node7</title>
<path fill="none" stroke="midnightblue" d="M1228.21,-344.349C1043.44,-341.565 358.356,-329.437 143.5,-300 140.276,-299.558 136.925,-298.966 133.608,-298.295"/>
<polygon fill="midnightblue" stroke="midnightblue" points="1228.35,-347.851 1238.4,-344.5 1228.45,-340.852 1228.35,-347.851"/>
</g>
<!-- Node8 -->
<g id="node5" class="node"><title>Node8</title>
<g id="a_node5"><a xlink:href="abi-default_2byteorder_8h.html" target="_top" xlink:title="ODP byteorder. ">
<polygon fill="white" stroke="black" points="152,-280.5 152,-299.5 223,-299.5 223,-280.5 152,-280.5"/>
<text text-anchor="middle" x="187.5" y="-287.5" font-family="Helvetica,sans-Serif" font-size="10.00">byteorder.h</text>
</a>
</g>
</g>
<!-- Node5&#45;&gt;Node8 -->
<g id="edge4" class="edge"><title>Node5&#45;&gt;Node8</title>
<path fill="none" stroke="midnightblue" d="M1227.92,-345.54C1081.07,-346.697 614.816,-346.207 232.5,-300 229.494,-299.637 226.389,-299.183 223.281,-298.674"/>
<polygon fill="midnightblue" stroke="midnightblue" points="1228.37,-349.036 1238.34,-345.451 1228.31,-342.037 1228.37,-349.036"/>
</g>
<!-- Node9 -->
<g id="node6" class="node"><title>Node9</title>
<g id="a_node6"><a xlink:href="abi-default_2cpumask_8h.html" target="_top" xlink:title="ODP CPU masks and enumeration. ">
<polygon fill="white" stroke="black" points="241,-280.5 241,-299.5 310,-299.5 310,-280.5 241,-280.5"/>
<text text-anchor="middle" x="275.5" y="-287.5" font-family="Helvetica,sans-Serif" font-size="10.00">cpumask.h</text>
</a>
</g>
</g>
<!-- Node5&#45;&gt;Node9 -->
<g id="edge5" class="edge"><title>Node5&#45;&gt;Node9</title>
<path fill="none" stroke="midnightblue" d="M1228.09,-345.348C1089.47,-345.845 666.619,-343.414 319.5,-300 316.405,-299.613 313.203,-299.127 310.004,-298.583"/>
<polygon fill="midnightblue" stroke="midnightblue" points="1228.35,-348.847 1238.34,-345.304 1228.32,-341.847 1228.35,-348.847"/>
</g>
<!-- Node10 -->
<g id="node7" class="node"><title>Node10</title>
<g id="a_node7"><a xlink:href="abi-default_2init_8h.html" target="_top" xlink:title="ODP initialization. ">
<polygon fill="white" stroke="black" points="328.5,-280.5 328.5,-299.5 368.5,-299.5 368.5,-280.5 328.5,-280.5"/>
<text text-anchor="middle" x="348.5" y="-287.5" font-family="Helvetica,sans-Serif" font-size="10.00">init.h</text>
</a>
</g>
</g>
<!-- Node5&#45;&gt;Node10 -->
<g id="edge6" class="edge"><title>Node5&#45;&gt;Node10</title>
<path fill="none" stroke="midnightblue" d="M1227.87,-344.203C1068.08,-341.23 543.339,-329.411 377.5,-300 374.593,-299.484 371.571,-298.764 368.622,-297.953"/>
<polygon fill="midnightblue" stroke="midnightblue" points="1228.24,-347.71 1238.3,-344.394 1228.36,-340.711 1228.24,-347.71"/>
</g>
<!-- Node11 -->
<g id="node8" class="node"><title>Node11</title>
<g id="a_node8"><a xlink:href="abi-default_2ipsec_8h.html" target="_top" xlink:title="ODP IPSEC API &#45; platform specific types. ">
<polygon fill="white" stroke="black" points="386.5,-280.5 386.5,-299.5 436.5,-299.5 436.5,-280.5 386.5,-280.5"/>
<text text-anchor="middle" x="411.5" y="-287.5" font-family="Helvetica,sans-Serif" font-size="10.00">ipsec.h</text>
</a>
</g>
</g>
<!-- Node5&#45;&gt;Node11 -->
<g id="edge7" class="edge"><title>Node5&#45;&gt;Node11</title>
<path fill="none" stroke="midnightblue" d="M1228.25,-345.67C1102.07,-346.813 741.617,-345.506 446.5,-300 443.276,-299.503 439.917,-298.836 436.612,-298.09"/>
<polygon fill="midnightblue" stroke="midnightblue" points="1228.36,-349.169 1238.33,-345.568 1228.29,-342.169 1228.36,-349.169"/>
</g>
<!-- Node12 -->
<g id="node9" class="node"><title>Node12</title>
<g id="a_node9"><a xlink:href="abi-default_2packet__io_8h.html" target="_top" xlink:title="ODP Packet IO. ">
<polygon fill="white" stroke="black" points="455,-280.5 455,-299.5 526,-299.5 526,-280.5 455,-280.5"/>
<text text-anchor="middle" x="490.5" y="-287.5" font-family="Helvetica,sans-Serif" font-size="10.00">packet_io.h</text>
</a>
</g>
</g>
<!-- Node5&#45;&gt;Node12 -->
<g id="edge8" class="edge"><title>Node5&#45;&gt;Node12</title>
<path fill="none" stroke="midnightblue" d="M1228.17,-344.373C1111.44,-342.318 795.956,-333.815 535.5,-300 532.498,-299.61 529.395,-299.138 526.288,-298.616"/>
<polygon fill="midnightblue" stroke="midnightblue" points="1228.13,-347.873 1238.19,-344.542 1228.25,-340.874 1228.13,-347.873"/>
</g>
<!-- Node13 -->
<g id="node10" class="node"><title>Node13</title>
<g id="a_node10"><a xlink:href="abi-default_2rwlock__recursive_8h.html" target="_top" xlink:title="ODP recursive read/write lock. ">
<polygon fill="white" stroke="black" points="544.5,-280.5 544.5,-299.5 648.5,-299.5 648.5,-280.5 544.5,-280.5"/>
<text text-anchor="middle" x="596.5" y="-287.5" font-family="Helvetica,sans-Serif" font-size="10.00">rwlock_recursive.h</text>
</a>
</g>
</g>
<!-- Node5&#45;&gt;Node13 -->
<g id="edge9" class="edge"><title>Node5&#45;&gt;Node13</title>
<path fill="none" stroke="midnightblue" d="M1228.2,-342.792C1125.35,-337.629 870.119,-323.406 657.5,-300 654.627,-299.684 651.682,-299.334 648.711,-298.962"/>
<polygon fill="midnightblue" stroke="midnightblue" points="1228.09,-346.29 1238.25,-343.291 1228.44,-339.299 1228.09,-346.29"/>
</g>
<!-- Node14 -->
<g id="node11" class="node"><title>Node14</title>
<g id="a_node11"><a xlink:href="abi-default_2schedule_8h.html" target="_top" xlink:title="ODP schedule. ">
<polygon fill="white" stroke="black" points="666.5,-280.5 666.5,-299.5 734.5,-299.5 734.5,-280.5 666.5,-280.5"/>
<text text-anchor="middle" x="700.5" y="-287.5" font-family="Helvetica,sans-Serif" font-size="10.00">schedule.h</text>
</a>
</g>
</g>
<!-- Node5&#45;&gt;Node14 -->
<g id="edge10" class="edge"><title>Node5&#45;&gt;Node14</title>
<path fill="none" stroke="midnightblue" d="M1228.22,-342.896C1135.86,-338.295 922.275,-325.639 744.5,-300 741.259,-299.533 737.897,-298.976 734.541,-298.373"/>
<polygon fill="midnightblue" stroke="midnightblue" points="1228.19,-346.398 1238.35,-343.392 1228.53,-339.407 1228.19,-346.398"/>
</g>
<!-- Node15 -->
<g id="node12" class="node"><title>Node15</title>
<g id="a_node12"><a xlink:href="abi-default_2spinlock__recursive_8h.html" target="_top" xlink:title="ODP recursive spinlock. ">
<polygon fill="white" stroke="black" points="753,-280.5 753,-299.5 866,-299.5 866,-280.5 753,-280.5"/>
<text text-anchor="middle" x="809.5" y="-287.5" font-family="Helvetica,sans-Serif" font-size="10.00">spinlock_recursive.h</text>
</a>
</g>
</g>
<!-- Node5&#45;&gt;Node15 -->
<g id="edge11" class="edge"><title>Node5&#45;&gt;Node15</title>
<path fill="none" stroke="midnightblue" d="M1228.46,-340.159C1154.15,-332.266 1003.18,-315.903 875.5,-300 872.402,-299.614 869.223,-299.209 866.014,-298.794"/>
<polygon fill="midnightblue" stroke="midnightblue" points="1228.12,-343.642 1238.43,-341.216 1228.85,-336.681 1228.12,-343.642"/>
</g>
<!-- Node16 -->
<g id="node13" class="node"><title>Node16</title>
<g id="a_node13"><a xlink:href="abi-default_2traffic__mngr_8h.html" target="_top" xlink:title="ODP traffic mngr. ">
<polygon fill="white" stroke="black" points="884,-280.5 884,-299.5 967,-299.5 967,-280.5 884,-280.5"/>
<text text-anchor="middle" x="925.5" y="-287.5" font-family="Helvetica,sans-Serif" font-size="10.00">traffic_mngr.h</text>
</a>
</g>
</g>
<!-- Node5&#45;&gt;Node16 -->
<g id="edge12" class="edge"><title>Node5&#45;&gt;Node16</title>
<path fill="none" stroke="midnightblue" d="M1228.16,-338.365C1169.5,-329.884 1065.4,-314.554 976.5,-300 973.483,-299.506 970.368,-298.985 967.234,-298.452"/>
<polygon fill="midnightblue" stroke="midnightblue" points="1227.82,-341.853 1238.22,-339.817 1228.82,-334.924 1227.82,-341.853"/>
</g>
<!-- Node17 -->
<g id="node14" class="node"><title>Node17</title>
<g id="a_node14"><a xlink:href="barrier_8h.html" target="_top" xlink:title="ODP execution barriers. ">
<polygon fill="white" stroke="black" points="985.5,-280.5 985.5,-299.5 1041.5,-299.5 1041.5,-280.5 985.5,-280.5"/>
<text text-anchor="middle" x="1013.5" y="-287.5" font-family="Helvetica,sans-Serif" font-size="10.00">barrier.h</text>
</a>
</g>
</g>
<!-- Node5&#45;&gt;Node17 -->
<g id="edge13" class="edge"><title>Node5&#45;&gt;Node17</title>
<path fill="none" stroke="midnightblue" d="M1228.03,-336.093C1182.86,-327.323 1112.35,-313.341 1051.5,-300 1048.32,-299.303 1045,-298.551 1041.7,-297.789"/>
<polygon fill="midnightblue" stroke="midnightblue" points="1227.63,-339.58 1238.11,-338.045 1228.96,-332.708 1227.63,-339.58"/>
</g>
<!-- Node18 -->
<g id="node15" class="node"><title>Node18</title>
<g id="a_node15"><a xlink:href="buffer_8h.html" target="_top" xlink:title="ODP buffer descriptor. ">
<polygon fill="white" stroke="black" points="1060,-280.5 1060,-299.5 1113,-299.5 1113,-280.5 1060,-280.5"/>
<text text-anchor="middle" x="1086.5" y="-287.5" font-family="Helvetica,sans-Serif" font-size="10.00">buffer.h</text>
</a>
</g>
</g>
<!-- Node5&#45;&gt;Node18 -->
<g id="edge14" class="edge"><title>Node5&#45;&gt;Node18</title>
<path fill="none" stroke="midnightblue" d="M1234.86,-333.614C1198.24,-323.097 1144.86,-307.764 1113.11,-298.643"/>
<polygon fill="midnightblue" stroke="midnightblue" points="1234.13,-337.047 1244.71,-336.444 1236.07,-330.319 1234.13,-337.047"/>
</g>
<!-- Node19 -->
<g id="node16" class="node"><title>Node19</title>
<g id="a_node16"><a xlink:href="classification_8h.html" target="_top" xlink:title="ODP classification descriptor. ">
<polygon fill="white" stroke="black" points="984.5,-56.5 984.5,-75.5 1070.5,-75.5 1070.5,-56.5 984.5,-56.5"/>
<text text-anchor="middle" x="1027.5" y="-63.5" font-family="Helvetica,sans-Serif" font-size="10.00">classification.h</text>
</a>
</g>
</g>
<!-- Node5&#45;&gt;Node19 -->
<g id="edge15" class="edge"><title>Node5&#45;&gt;Node19</title>
<path fill="none" stroke="midnightblue" d="M1237.71,-333.048C1213.82,-324.812 1182.26,-313.031 1155.5,-300 1140.08,-292.491 1138.62,-285.845 1122.5,-280 1072.42,-261.843 920.225,-284.398 885.5,-244 831.314,-180.962 962.916,-101.596 1010.86,-75.6412"/>
<polygon fill="midnightblue" stroke="midnightblue" points="1236.85,-336.452 1247.44,-336.354 1239.1,-329.824 1236.85,-336.452"/>
</g>
<!-- Node22 -->
<g id="node18" class="node"><title>Node22</title>
<g id="a_node18"><a xlink:href="crypto_8h.html" target="_top" xlink:title="ODP crypto. ">
<polygon fill="white" stroke="black" points="1414.5,-168.5 1414.5,-187.5 1470.5,-187.5 1470.5,-168.5 1414.5,-168.5"/>
<text text-anchor="middle" x="1442.5" y="-175.5" font-family="Helvetica,sans-Serif" font-size="10.00">crypto.h</text>
</a>
</g>
</g>
<!-- Node5&#45;&gt;Node22 -->
<g id="edge17" class="edge"><title>Node5&#45;&gt;Node22</title>
<path fill="none" stroke="midnightblue" d="M1320.38,-336.181C1344.69,-329.588 1373.73,-318.433 1394.5,-300 1429.32,-269.098 1439.18,-209.579 1441.71,-187.508"/>
<polygon fill="midnightblue" stroke="midnightblue" points="1319.47,-332.802 1310.64,-338.653 1321.19,-339.587 1319.47,-332.802"/>
</g>
<!-- Node23 -->
<g id="node19" class="node"><title>Node23</title>
<g id="a_node19"><a xlink:href="packet_8h.html" target="_top" xlink:title="ODP packet descriptor. ">
<polygon fill="white" stroke="black" points="1245.5,-280.5 1245.5,-299.5 1303.5,-299.5 1303.5,-280.5 1245.5,-280.5"/>
<text text-anchor="middle" x="1274.5" y="-287.5" font-family="Helvetica,sans-Serif" font-size="10.00">packet.h</text>
</a>
</g>
</g>
<!-- Node5&#45;&gt;Node23 -->
<g id="edge19" class="edge"><title>Node5&#45;&gt;Node23</title>
<path fill="none" stroke="midnightblue" d="M1274.5,-325.805C1274.5,-316.91 1274.5,-306.78 1274.5,-299.751"/>
<polygon fill="midnightblue" stroke="midnightblue" points="1271,-326.083 1274.5,-336.083 1278,-326.083 1271,-326.083"/>
</g>
<!-- Node38 -->
<g id="node23" class="node"><title>Node38</title>
<g id="a_node23"><a xlink:href="spec_2packet__flags_8h.html" target="_top" xlink:title="ODP packet flags. ">
<polygon fill="white" stroke="black" points="1328.5,-224.5 1328.5,-243.5 1414.5,-243.5 1414.5,-224.5 1328.5,-224.5"/>
<text text-anchor="middle" x="1371.5" y="-231.5" font-family="Helvetica,sans-Serif" font-size="10.00">packet_flags.h</text>
</a>
</g>
</g>
<!-- Node5&#45;&gt;Node38 -->
<g id="edge49" class="edge"><title>Node5&#45;&gt;Node38</title>
<path fill="none" stroke="midnightblue" d="M1320.34,-337.116C1341.84,-330.872 1365.53,-319.749 1378.5,-300 1389.84,-282.735 1381.52,-257.166 1375.76,-243.826"/>
<polygon fill="midnightblue" stroke="midnightblue" points="1319.45,-333.732 1310.66,-339.655 1321.22,-340.502 1319.45,-333.732"/>
</g>
<!-- Node32 -->
<g id="node26" class="node"><title>Node32</title>
<g id="a_node26"><a xlink:href="packet__io_8h.html" target="_top" xlink:title="ODP Packet IO. ">
<polygon fill="white" stroke="black" points="1102,-168.5 1102,-187.5 1173,-187.5 1173,-168.5 1102,-168.5"/>
<text text-anchor="middle" x="1137.5" y="-175.5" font-family="Helvetica,sans-Serif" font-size="10.00">packet_io.h</text>
</a>
</g>
</g>
<!-- Node5&#45;&gt;Node32 -->
<g id="edge32" class="edge"><title>Node5&#45;&gt;Node32</title>
<path fill="none" stroke="midnightblue" d="M1258.98,-329.15C1243.35,-314.137 1217.83,-292.137 1191.5,-280 1118.2,-246.209 1064.6,-306.474 1013.5,-244 986.184,-210.606 1056.36,-192.271 1101.97,-184.167"/>
<polygon fill="midnightblue" stroke="midnightblue" points="1256.63,-331.747 1266.21,-336.275 1261.55,-326.762 1256.63,-331.747"/>
</g>
<!-- Node34 -->
<g id="node28" class="node"><title>Node34</title>
<g id="a_node28"><a xlink:href="spec_2traffic__mngr_8h.html" target="_top" xlink:title="Copyright (c) 2015&#45;2018, Linaro Limited All rights reserved. ">
<polygon fill="white" stroke="red" points="1208,-112.5 1208,-131.5 1291,-131.5 1291,-112.5 1208,-112.5"/>
<text text-anchor="middle" x="1249.5" y="-119.5" font-family="Helvetica,sans-Serif" font-size="10.00">traffic_mngr.h</text>
</a>
</g>
</g>
<!-- Node5&#45;&gt;Node34 -->
<g id="edge57" class="edge"><title>Node5&#45;&gt;Node34</title>
<path fill="none" stroke="midnightblue" d="M1320.61,-341.789C1388.35,-336.347 1510.69,-323.54 1547.5,-300 1598.93,-267.108 1625.7,-213.944 1585.5,-168 1547.71,-124.815 1372.54,-121.31 1291.2,-122.092"/>
<polygon fill="midnightblue" stroke="midnightblue" points="1320.33,-338.301 1310.63,-342.569 1320.88,-345.279 1320.33,-338.301"/>
</g>
<!-- Node30 -->
<g id="node29" class="node"><title>Node30</title>
<g id="a_node29"><a xlink:href="queue_8h.html" target="_top" xlink:title="ODP queue. ">
<polygon fill="white" stroke="black" points="1463.5,-280.5 1463.5,-299.5 1519.5,-299.5 1519.5,-280.5 1463.5,-280.5"/>
<text text-anchor="middle" x="1491.5" y="-287.5" font-family="Helvetica,sans-Serif" font-size="10.00">queue.h</text>
</a>
</g>
</g>
<!-- Node5&#45;&gt;Node30 -->
<g id="edge33" class="edge"><title>Node5&#45;&gt;Node30</title>
<path fill="none" stroke="midnightblue" d="M1318.6,-334.026C1361.94,-323.241 1426.76,-307.109 1463.49,-297.971"/>
<polygon fill="midnightblue" stroke="midnightblue" points="1317.74,-330.632 1308.88,-336.444 1319.43,-337.425 1317.74,-330.632"/>
</g>
<!-- Node36 -->
<g id="node30" class="node"><title>Node36</title>
<g id="a_node30"><a xlink:href="spec_2schedule_8h.html" target="_top" xlink:title="ODP schedule. ">
<polygon fill="white" stroke="black" points="1508.5,-224.5 1508.5,-243.5 1576.5,-243.5 1576.5,-224.5 1508.5,-224.5"/>
<text text-anchor="middle" x="1542.5" y="-231.5" font-family="Helvetica,sans-Serif" font-size="10.00">schedule.h</text>
</a>
</g>
</g>
<!-- Node5&#45;&gt;Node36 -->
<g id="edge52" class="edge"><title>Node5&#45;&gt;Node36</title>
<path fill="none" stroke="midnightblue" d="M1320.83,-342.844C1385.85,-338.84 1499.5,-327.952 1528.5,-300 1543.96,-285.1 1544.34,-257.538 1543.4,-243.58"/>
<polygon fill="midnightblue" stroke="midnightblue" points="1320.61,-339.351 1310.83,-343.429 1321.02,-346.339 1320.61,-339.351"/>
</g>
<!-- Node40 -->
<g id="node32" class="node"><title>Node40</title>
<g id="a_node32"><a xlink:href="spec_2chksum_8h.html" target="_top" xlink:title="ODP Hash functions. ">
<polygon fill="white" stroke="black" points="1633,-280.5 1633,-299.5 1696,-299.5 1696,-280.5 1633,-280.5"/>
<text text-anchor="middle" x="1664.5" y="-287.5" font-family="Helvetica,sans-Serif" font-size="10.00">chksum.h</text>
</a>
</g>
</g>
<!-- Node5&#45;&gt;Node40 -->
<g id="edge38" class="edge"><title>Node5&#45;&gt;Node40</title>
<path fill="none" stroke="midnightblue" d="M1320.87,-339.876C1387.07,-332.347 1512.42,-317.299 1618.5,-300 1623.16,-299.24 1628.07,-298.363 1632.87,-297.46"/>
<polygon fill="midnightblue" stroke="midnightblue" points="1320.31,-336.417 1310.76,-341.019 1321.09,-343.373 1320.31,-336.417"/>
</g>
<!-- Node42 -->
<g id="node34" class="node"><title>Node42</title>
<g id="a_node34"><a xlink:href="spec_2cpu_8h.html" target="_top" xlink:title="ODP CPU API. ">
<polygon fill="white" stroke="black" points="1714,-280.5 1714,-299.5 1757,-299.5 1757,-280.5 1714,-280.5"/>
<text text-anchor="middle" x="1735.5" y="-287.5" font-family="Helvetica,sans-Serif" font-size="10.00">cpu.h</text>
</a>
</g>
</g>
<!-- Node5&#45;&gt;Node42 -->
<g id="edge40" class="edge"><title>Node5&#45;&gt;Node42</title>
<path fill="none" stroke="midnightblue" d="M1320.75,-343.016C1400.14,-338.98 1567.13,-327.724 1705.5,-300 1708.27,-299.444 1711.16,-298.743 1713.99,-297.979"/>
<polygon fill="midnightblue" stroke="midnightblue" points="1320.42,-339.528 1310.6,-343.517 1320.76,-346.52 1320.42,-339.528"/>
</g>
<!-- Node45 -->
<g id="node36" class="node"><title>Node45</title>
<g id="a_node36"><a xlink:href="spec_2feature_8h.html" target="_top" xlink:title="ODP features. ">
<polygon fill="white" stroke="black" points="1813.5,-280.5 1813.5,-299.5 1873.5,-299.5 1873.5,-280.5 1813.5,-280.5"/>
<text text-anchor="middle" x="1843.5" y="-287.5" font-family="Helvetica,sans-Serif" font-size="10.00">feature.h</text>
</a>
</g>
</g>
<!-- Node5&#45;&gt;Node45 -->
<g id="edge42" class="edge"><title>Node5&#45;&gt;Node45</title>
<path fill="none" stroke="midnightblue" d="M1320.69,-342.849C1412.35,-338.182 1623.62,-325.438 1799.5,-300 1803.98,-299.353 1808.68,-298.537 1813.28,-297.662"/>
<polygon fill="midnightblue" stroke="midnightblue" points="1320.44,-339.357 1310.63,-343.353 1320.79,-346.348 1320.44,-339.357"/>
</g>
<!-- Node47 -->
<g id="node38" class="node"><title>Node47</title>
<g id="a_node38"><a xlink:href="spec_2init_8h.html" target="_top" xlink:title="init.h">
<polygon fill="white" stroke="black" points="1794.5,-168.5 1794.5,-187.5 1834.5,-187.5 1834.5,-168.5 1794.5,-168.5"/>
<text text-anchor="middle" x="1814.5" y="-175.5" font-family="Helvetica,sans-Serif" font-size="10.00">init.h</text>
</a>
</g>
</g>
<!-- Node5&#45;&gt;Node47 -->
<g id="edge48" class="edge"><title>Node5&#45;&gt;Node47</title>
<path fill="none" stroke="midnightblue" d="M1320.94,-343.494C1436.7,-339.359 1731.28,-326.341 1766.5,-300 1785.59,-285.72 1805.82,-212.78 1812.34,-187.578"/>
<polygon fill="midnightblue" stroke="midnightblue" points="1320.51,-340.007 1310.64,-343.856 1320.76,-347.003 1320.51,-340.007"/>
</g>
<!-- Node51 -->
<g id="node40" class="node"><title>Node51</title>
<g id="a_node40"><a xlink:href="spec_2hash_8h.html" target="_top" xlink:title="ODP Hash functions. ">
<polygon fill="white" stroke="black" points="1892,-280.5 1892,-299.5 1941,-299.5 1941,-280.5 1892,-280.5"/>
<text text-anchor="middle" x="1916.5" y="-287.5" font-family="Helvetica,sans-Serif" font-size="10.00">hash.h</text>
</a>
</g>
</g>
<!-- Node5&#45;&gt;Node51 -->
<g id="edge46" class="edge"><title>Node5&#45;&gt;Node51</title>
<path fill="none" stroke="midnightblue" d="M1321.04,-344.48C1423.32,-342.698 1675.07,-334.822 1882.5,-300 1885.51,-299.495 1888.64,-298.843 1891.73,-298.122"/>
<polygon fill="midnightblue" stroke="midnightblue" points="1320.7,-340.985 1310.76,-344.647 1320.81,-347.984 1320.7,-340.985"/>
</g>
<!-- Node53 -->
<g id="node42" class="node"><title>Node53</title>
<g id="a_node42"><a xlink:href="spec_2pool_8h.html" target="_top" xlink:title="ODP pool. ">
<polygon fill="white" stroke="black" points="1959.5,-280.5 1959.5,-299.5 2005.5,-299.5 2005.5,-280.5 1959.5,-280.5"/>
<text text-anchor="middle" x="1982.5" y="-287.5" font-family="Helvetica,sans-Serif" font-size="10.00">pool.h</text>
</a>
</g>
</g>
<!-- Node5&#45;&gt;Node53 -->
<g id="edge50" class="edge"><title>Node5&#45;&gt;Node53</title>
<path fill="none" stroke="midnightblue" d="M1320.82,-345.213C1430.87,-345.007 1716.36,-340.268 1950.5,-300 1953.34,-299.511 1956.3,-298.87 1959.21,-298.154"/>
<polygon fill="midnightblue" stroke="midnightblue" points="1320.72,-341.713 1310.72,-345.22 1320.72,-348.713 1320.72,-341.713"/>
</g>
<!-- Node56 -->
<g id="node44" class="node"><title>Node56</title>
<g id="a_node44"><a xlink:href="spec_2threshold_8h.html" target="_top" xlink:title="ODP threshold descriptor. ">
<polygon fill="white" stroke="black" points="894,-224.5 894,-243.5 965,-243.5 965,-224.5 894,-224.5"/>
<text text-anchor="middle" x="929.5" y="-231.5" font-family="Helvetica,sans-Serif" font-size="10.00">threshold.h</text>
</a>
</g>
</g>
<!-- Node5&#45;&gt;Node56 -->
<g id="edge53" class="edge"><title>Node5&#45;&gt;Node56</title>
<path fill="none" stroke="midnightblue" d="M1253.28,-330.812C1230.17,-315.999 1191.67,-293.132 1155.5,-280 1137.83,-273.584 1024.23,-252.322 965.125,-241.48"/>
<polygon fill="midnightblue" stroke="midnightblue" points="1251.62,-333.905 1261.91,-336.429 1255.44,-328.04 1251.62,-333.905"/>
</g>
<!-- Node58 -->
<g id="node46" class="node"><title>Node58</title>
<g id="a_node46"><a xlink:href="spec_2thrmask_8h.html" target="_top" xlink:title="ODP thread masks. ">
<polygon fill="white" stroke="red" points="2024,-280.5 2024,-299.5 2089,-299.5 2089,-280.5 2024,-280.5"/>
<text text-anchor="middle" x="2056.5" y="-287.5" font-family="Helvetica,sans-Serif" font-size="10.00">thrmask.h</text>
</a>
</g>
</g>
<!-- Node5&#45;&gt;Node58 -->
<g id="edge56" class="edge"><title>Node5&#45;&gt;Node58</title>
<path fill="none" stroke="midnightblue" d="M1320.92,-344.595C1437.88,-343.053 1753.93,-335.635 2014.5,-300 2017.46,-299.596 2020.51,-299.098 2023.57,-298.546"/>
<polygon fill="midnightblue" stroke="midnightblue" points="1320.84,-341.096 1310.88,-344.72 1320.92,-348.096 1320.84,-341.096"/>
</g>
<!-- Node60 -->
<g id="node47" class="node"><title>Node60</title>
<g id="a_node47"><a xlink:href="system__info_8h.html" target="_top" xlink:title="ODP system information. ">
<polygon fill="white" stroke="black" points="2107,-280.5 2107,-299.5 2190,-299.5 2190,-280.5 2107,-280.5"/>
<text text-anchor="middle" x="2148.5" y="-287.5" font-family="Helvetica,sans-Serif" font-size="10.00">system_info.h</text>
</a>
</g>
</g>
<!-- Node5&#45;&gt;Node60 -->
<g id="edge58" class="edge"><title>Node5&#45;&gt;Node60</title>
<path fill="none" stroke="midnightblue" d="M1320.81,-344.473C1446.38,-342.612 1803.69,-334.45 2098.5,-300 2101.22,-299.683 2104.01,-299.31 2106.82,-298.901"/>
<polygon fill="midnightblue" stroke="midnightblue" points="1320.73,-340.974 1310.78,-344.615 1320.83,-347.973 1320.73,-340.974"/>
</g>
<!-- Node61 -->
<g id="node48" class="node"><title>Node61</title>
<g id="a_node48"><a xlink:href="time_8h.html" target="_top" xlink:title="ODP time. ">
<polygon fill="white" stroke="red" points="1322,-280.5 1322,-299.5 1369,-299.5 1369,-280.5 1322,-280.5"/>
<text text-anchor="middle" x="1345.5" y="-287.5" font-family="Helvetica,sans-Serif" font-size="10.00">time.h</text>
</a>
</g>
</g>
<!-- Node5&#45;&gt;Node61 -->
<g id="edge59" class="edge"><title>Node5&#45;&gt;Node61</title>
<path fill="none" stroke="midnightblue" d="M1294.09,-330.101C1306.87,-320.382 1323.11,-308.027 1333.89,-299.834"/>
<polygon fill="midnightblue" stroke="midnightblue" points="1291.75,-327.484 1285.91,-336.324 1295.99,-333.056 1291.75,-327.484"/>
</g>
<!-- Node63 -->
<g id="node49" class="node"><title>Node63</title>
<g id="a_node49"><a xlink:href="timer_8h.html" target="_top" xlink:title="ODP timer service. ">
<polygon fill="white" stroke="black" points="2208.5,-280.5 2208.5,-299.5 2258.5,-299.5 2258.5,-280.5 2208.5,-280.5"/>
<text text-anchor="middle" x="2233.5" y="-287.5" font-family="Helvetica,sans-Serif" font-size="10.00">timer.h</text>
</a>
</g>
</g>
<!-- Node5&#45;&gt;Node63 -->
<g id="edge61" class="edge"><title>Node5&#45;&gt;Node63</title>
<path fill="none" stroke="midnightblue" d="M1320.67,-344.038C1483.03,-340.453 2027.22,-326.689 2199.5,-300 2202.4,-299.551 2205.4,-298.954 2208.37,-298.281"/>
<polygon fill="midnightblue" stroke="midnightblue" points="1320.45,-340.541 1310.53,-344.259 1320.61,-347.54 1320.45,-340.541"/>
</g>
<!-- Node64 -->
<g id="node50" class="node"><title>Node64</title>
<g id="a_node50"><a xlink:href="strong__types_8h.html" target="_top" xlink:title="ODP Strong Types. ">
<polygon fill="white" stroke="black" points="2276.5,-280.5 2276.5,-299.5 2364.5,-299.5 2364.5,-280.5 2276.5,-280.5"/>
<text text-anchor="middle" x="2320.5" y="-287.5" font-family="Helvetica,sans-Serif" font-size="10.00">strong_types.h</text>
</a>
</g>
</g>
<!-- Node5&#45;&gt;Node64 -->
<g id="edge62" class="edge"><title>Node5&#45;&gt;Node64</title>
<path fill="none" stroke="midnightblue" d="M1320.78,-344.921C1462.71,-344.245 1904.24,-338.925 2267.5,-300 2270.38,-299.692 2273.33,-299.326 2276.31,-298.922"/>
<polygon fill="midnightblue" stroke="midnightblue" points="1320.68,-341.421 1310.69,-344.963 1320.71,-348.421 1320.68,-341.421"/>
</g>
<!-- Node20 -->
<g id="node17" class="node"><title>Node20</title>
<g id="a_node17"><a xlink:href="spec_2ipsec_8h.html" target="_top" xlink:title="ODP IPSEC API. ">
<polygon fill="white" stroke="red" points="1112.5,-0.5 1112.5,-19.5 1162.5,-19.5 1162.5,-0.5 1112.5,-0.5"/>
<text text-anchor="middle" x="1137.5" y="-7.5" font-family="Helvetica,sans-Serif" font-size="10.00">ipsec.h</text>
</a>
</g>
</g>
<!-- Node19&#45;&gt;Node20 -->
<g id="edge16" class="edge"><title>Node19&#45;&gt;Node20</title>
<path fill="none" stroke="midnightblue" d="M1054.26,-51.8622C1074.66,-41.8492 1102.17,-28.3458 1119.87,-19.6545"/>
<polygon fill="midnightblue" stroke="midnightblue" points="1052.61,-48.7753 1045.17,-56.324 1055.69,-55.059 1052.61,-48.7753"/>
</g>
<!-- Node22&#45;&gt;Node20 -->
<g id="edge18" class="edge"><title>Node22&#45;&gt;Node20</title>
<path fill="none" stroke="midnightblue" d="M1417.64,-163.47C1357.06,-130.497 1203.12,-46.7144 1153.31,-19.6051"/>
<polygon fill="midnightblue" stroke="midnightblue" points="1416.07,-166.603 1426.53,-168.309 1419.42,-160.454 1416.07,-166.603"/>
</g>
<!-- Node24 -->
<g id="node20" class="node"><title>Node24</title>
<g id="a_node20"><a xlink:href="spec_2comp_8h.html" target="_top" xlink:title="ODP Compression. ">
<polygon fill="white" stroke="red" points="1022,-224.5 1022,-243.5 1075,-243.5 1075,-224.5 1022,-224.5"/>
<text text-anchor="middle" x="1048.5" y="-231.5" font-family="Helvetica,sans-Serif" font-size="10.00">comp.h</text>
</a>
</g>
</g>
<!-- Node23&#45;&gt;Node24 -->
<g id="edge20" class="edge"><title>Node23&#45;&gt;Node24</title>
<path fill="none" stroke="midnightblue" d="M1235.42,-279.894C1196.98,-270.902 1136.66,-256.695 1084.5,-244 1081.5,-243.269 1078.35,-242.495 1075.23,-241.721"/>
<polygon fill="midnightblue" stroke="midnightblue" points="1234.64,-283.307 1245.18,-282.175 1236.24,-276.49 1234.64,-283.307"/>
</g>
<!-- Node26 -->
<g id="node21" class="node"><title>Node26</title>
<g id="a_node21"><a xlink:href="spec_2crypto_8h.html" target="_top" xlink:title="ODP crypto. ">
<polygon fill="white" stroke="black" points="1164.5,-224.5 1164.5,-243.5 1220.5,-243.5 1220.5,-224.5 1164.5,-224.5"/>
<text text-anchor="middle" x="1192.5" y="-231.5" font-family="Helvetica,sans-Serif" font-size="10.00">crypto.h</text>
</a>
</g>
</g>
<!-- Node23&#45;&gt;Node26 -->
<g id="edge21" class="edge"><title>Node23&#45;&gt;Node26</title>
<path fill="none" stroke="midnightblue" d="M1252.67,-274.622C1237.69,-264.757 1218.3,-251.992 1205.64,-243.655"/>
<polygon fill="midnightblue" stroke="midnightblue" points="1251.05,-277.747 1261.33,-280.324 1254.9,-271.901 1251.05,-277.747"/>
</g>
<!-- Node27 -->
<g id="node22" class="node"><title>Node27</title>
<g id="a_node22"><a xlink:href="spec_2event_8h.html" target="_top" xlink:title="ODP event. ">
<polygon fill="white" stroke="red" points="1093,-224.5 1093,-243.5 1146,-243.5 1146,-224.5 1093,-224.5"/>
<text text-anchor="middle" x="1119.5" y="-231.5" font-family="Helvetica,sans-Serif" font-size="10.00">event.h</text>
</a>
</g>
</g>
<!-- Node23&#45;&gt;Node27 -->
<g id="edge23" class="edge"><title>Node23&#45;&gt;Node27</title>
<path fill="none" stroke="midnightblue" d="M1240.17,-277.039C1211,-266.879 1169.86,-252.546 1143.95,-243.516"/>
<polygon fill="midnightblue" stroke="midnightblue" points="1239.34,-280.459 1249.94,-280.444 1241.65,-273.848 1239.34,-280.459"/>
</g>
<!-- Node23&#45;&gt;Node38 -->
<g id="edge24" class="edge"><title>Node23&#45;&gt;Node38</title>
<path fill="none" stroke="midnightblue" d="M1298.84,-275.453C1316.74,-265.483 1340.55,-252.228 1355.95,-243.655"/>
<polygon fill="midnightblue" stroke="midnightblue" points="1297.12,-272.402 1290.08,-280.324 1300.52,-278.518 1297.12,-272.402"/>
</g>
<!-- Node31 -->
<g id="node25" class="node"><title>Node31</title>
<g id="a_node25"><a xlink:href="spec_2packet__io_8h.html" target="_top" xlink:title="ODP Packet IO. ">
<polygon fill="white" stroke="black" points="1239,-224.5 1239,-243.5 1310,-243.5 1310,-224.5 1239,-224.5"/>
<text text-anchor="middle" x="1274.5" y="-231.5" font-family="Helvetica,sans-Serif" font-size="10.00">packet_io.h</text>
</a>
</g>
</g>
<!-- Node23&#45;&gt;Node31 -->
<g id="edge26" class="edge"><title>Node23&#45;&gt;Node31</title>
<path fill="none" stroke="midnightblue" d="M1274.5,-269.805C1274.5,-260.91 1274.5,-250.78 1274.5,-243.751"/>
<polygon fill="midnightblue" stroke="midnightblue" points="1271,-270.083 1274.5,-280.083 1278,-270.083 1271,-270.083"/>
</g>
<!-- Node26&#45;&gt;Node22 -->
<g id="edge22" class="edge"><title>Node26&#45;&gt;Node22</title>
<path fill="none" stroke="midnightblue" d="M1230.2,-224.066C1230.3,-224.044 1230.4,-224.022 1230.5,-224 1308.03,-206.848 1328.02,-205.387 1405.5,-188 1408.34,-187.363 1411.29,-186.679 1414.24,-185.983"/>
<polygon fill="midnightblue" stroke="midnightblue" points="1229.68,-220.596 1220.7,-226.223 1231.23,-227.422 1229.68,-220.596"/>
</g>
<!-- Node39 -->
<g id="node24" class="node"><title>Node39</title>
<g id="a_node24"><a xlink:href="packet__flags_8h.html" target="_top" xlink:title="ODP packet flags. ">
<polygon fill="white" stroke="black" points="1310.5,-168.5 1310.5,-187.5 1396.5,-187.5 1396.5,-168.5 1310.5,-168.5"/>
<text text-anchor="middle" x="1353.5" y="-175.5" font-family="Helvetica,sans-Serif" font-size="10.00">packet_flags.h</text>
</a>
</g>
</g>
<!-- Node38&#45;&gt;Node39 -->
<g id="edge25" class="edge"><title>Node38&#45;&gt;Node39</title>
<path fill="none" stroke="midnightblue" d="M1365.3,-214.396C1362.29,-205.362 1358.81,-194.936 1356.42,-187.751"/>
<polygon fill="midnightblue" stroke="midnightblue" points="1362.04,-215.703 1368.53,-224.083 1368.69,-213.489 1362.04,-215.703"/>
</g>
<!-- Node31&#45;&gt;Node32 -->
<g id="edge27" class="edge"><title>Node31&#45;&gt;Node32</title>
<path fill="none" stroke="midnightblue" d="M1243.48,-220.772C1217.74,-210.629 1181.81,-196.467 1159.11,-187.516"/>
<polygon fill="midnightblue" stroke="midnightblue" points="1242.21,-224.033 1252.79,-224.444 1244.77,-217.52 1242.21,-224.033"/>
</g>
<!-- Node32&#45;&gt;Node20 -->
<g id="edge30" class="edge"><title>Node32&#45;&gt;Node20</title>
<path fill="none" stroke="midnightblue" d="M1137.5,-157.93C1137.5,-121.92 1137.5,-45.2312 1137.5,-19.5681"/>
<polygon fill="midnightblue" stroke="midnightblue" points="1134,-158.075 1137.5,-168.075 1141,-158.075 1134,-158.075"/>
</g>
<!-- Node33 -->
<g id="node27" class="node"><title>Node33</title>
<g id="a_node27"><a xlink:href="spec_2classification_8h.html" target="_top" xlink:title="ODP classification descriptor. ">
<polygon fill="white" stroke="black" points="984.5,-112.5 984.5,-131.5 1070.5,-131.5 1070.5,-112.5 984.5,-112.5"/>
<text text-anchor="middle" x="1027.5" y="-119.5" font-family="Helvetica,sans-Serif" font-size="10.00">classification.h</text>
</a>
</g>
</g>
<!-- Node32&#45;&gt;Node33 -->
<g id="edge28" class="edge"><title>Node32&#45;&gt;Node33</title>
<path fill="none" stroke="midnightblue" d="M1110.74,-163.862C1090.34,-153.849 1062.83,-140.346 1045.13,-131.655"/>
<polygon fill="midnightblue" stroke="midnightblue" points="1109.31,-167.059 1119.83,-168.324 1112.39,-160.775 1109.31,-167.059"/>
</g>
<!-- Node32&#45;&gt;Node34 -->
<g id="edge31" class="edge"><title>Node32&#45;&gt;Node34</title>
<path fill="none" stroke="midnightblue" d="M1164.75,-163.862C1185.52,-153.849 1213.52,-140.346 1231.55,-131.655"/>
<polygon fill="midnightblue" stroke="midnightblue" points="1162.98,-160.828 1155.49,-168.324 1166.02,-167.134 1162.98,-160.828"/>
</g>
<!-- Node33&#45;&gt;Node19 -->
<g id="edge29" class="edge"><title>Node33&#45;&gt;Node19</title>
<path fill="none" stroke="midnightblue" d="M1027.5,-101.805C1027.5,-92.9102 1027.5,-82.7798 1027.5,-75.7511"/>
<polygon fill="midnightblue" stroke="midnightblue" points="1024,-102.083 1027.5,-112.083 1031,-102.083 1024,-102.083"/>
</g>
<!-- Node30&#45;&gt;Node22 -->
<g id="edge34" class="edge"><title>Node30&#45;&gt;Node22</title>
<path fill="none" stroke="midnightblue" d="M1483.48,-270.998C1472.79,-246.997 1454.29,-205.468 1446.33,-187.591"/>
<polygon fill="midnightblue" stroke="midnightblue" points="1480.39,-272.658 1487.66,-280.368 1486.78,-269.81 1480.39,-272.658"/>
</g>
<!-- Node30&#45;&gt;Node31 -->
<g id="edge35" class="edge"><title>Node30&#45;&gt;Node31</title>
<path fill="none" stroke="midnightblue" d="M1453.28,-279.489C1412.45,-269.327 1348.3,-253.364 1308.96,-243.576"/>
<polygon fill="midnightblue" stroke="midnightblue" points="1452.58,-282.922 1463.13,-281.94 1454.27,-276.129 1452.58,-282.922"/>
</g>
<!-- Node30&#45;&gt;Node36 -->
<g id="edge36" class="edge"><title>Node30&#45;&gt;Node36</title>
<path fill="none" stroke="midnightblue" d="M1506.88,-272.718C1515.87,-263.2 1526.86,-251.561 1534.24,-243.751"/>
<polygon fill="midnightblue" stroke="midnightblue" points="1504.24,-270.41 1499.92,-280.083 1509.33,-275.216 1504.24,-270.41"/>
</g>
<!-- Node37 -->
<g id="node31" class="node"><title>Node37</title>
<g id="a_node31"><a xlink:href="schedule_8h.html" target="_top" xlink:title="ODP schedule. ">
<polygon fill="white" stroke="black" points="1508.5,-168.5 1508.5,-187.5 1576.5,-187.5 1576.5,-168.5 1508.5,-168.5"/>
<text text-anchor="middle" x="1542.5" y="-175.5" font-family="Helvetica,sans-Serif" font-size="10.00">schedule.h</text>
</a>
</g>
</g>
<!-- Node36&#45;&gt;Node37 -->
<g id="edge37" class="edge"><title>Node36&#45;&gt;Node37</title>
<path fill="none" stroke="midnightblue" d="M1542.5,-213.805C1542.5,-204.91 1542.5,-194.78 1542.5,-187.751"/>
<polygon fill="midnightblue" stroke="midnightblue" points="1539,-214.083 1542.5,-224.083 1546,-214.083 1539,-214.083"/>
</g>
<!-- Node41 -->
<g id="node33" class="node"><title>Node41</title>
<g id="a_node33"><a xlink:href="chksum_8h.html" target="_top" xlink:title="ODP checksum functions. ">
<polygon fill="white" stroke="black" points="1633,-224.5 1633,-243.5 1696,-243.5 1696,-224.5 1633,-224.5"/>
<text text-anchor="middle" x="1664.5" y="-231.5" font-family="Helvetica,sans-Serif" font-size="10.00">chksum.h</text>
</a>
</g>
</g>
<!-- Node40&#45;&gt;Node41 -->
<g id="edge39" class="edge"><title>Node40&#45;&gt;Node41</title>
<path fill="none" stroke="midnightblue" d="M1664.5,-269.805C1664.5,-260.91 1664.5,-250.78 1664.5,-243.751"/>
<polygon fill="midnightblue" stroke="midnightblue" points="1661,-270.083 1664.5,-280.083 1668,-270.083 1661,-270.083"/>
</g>
<!-- Node43 -->
<g id="node35" class="node"><title>Node43</title>
<g id="a_node35"><a xlink:href="cpu_8h.html" target="_top" xlink:title="ODP CPU. ">
<polygon fill="white" stroke="red" points="1714,-224.5 1714,-243.5 1757,-243.5 1757,-224.5 1714,-224.5"/>
<text text-anchor="middle" x="1735.5" y="-231.5" font-family="Helvetica,sans-Serif" font-size="10.00">cpu.h</text>
</a>
</g>
</g>
<!-- Node42&#45;&gt;Node43 -->
<g id="edge41" class="edge"><title>Node42&#45;&gt;Node43</title>
<path fill="none" stroke="midnightblue" d="M1735.5,-269.805C1735.5,-260.91 1735.5,-250.78 1735.5,-243.751"/>
<polygon fill="midnightblue" stroke="midnightblue" points="1732,-270.083 1735.5,-280.083 1739,-270.083 1732,-270.083"/>
</g>
<!-- Node46 -->
<g id="node37" class="node"><title>Node46</title>
<g id="a_node37"><a xlink:href="feature_8h.html" target="_top" xlink:title="ODP features. ">
<polygon fill="white" stroke="black" points="1813.5,-224.5 1813.5,-243.5 1873.5,-243.5 1873.5,-224.5 1813.5,-224.5"/>
<text text-anchor="middle" x="1843.5" y="-231.5" font-family="Helvetica,sans-Serif" font-size="10.00">feature.h</text>
</a>
</g>
</g>
<!-- Node45&#45;&gt;Node46 -->
<g id="edge43" class="edge"><title>Node45&#45;&gt;Node46</title>
<path fill="none" stroke="midnightblue" d="M1843.5,-269.805C1843.5,-260.91 1843.5,-250.78 1843.5,-243.751"/>
<polygon fill="midnightblue" stroke="midnightblue" points="1840,-270.083 1843.5,-280.083 1847,-270.083 1840,-270.083"/>
</g>
<!-- Node46&#45;&gt;Node47 -->
<g id="edge44" class="edge"><title>Node46&#45;&gt;Node47</title>
<path fill="none" stroke="midnightblue" d="M1833.82,-214.983C1828.9,-205.817 1823.14,-195.092 1819.2,-187.751"/>
<polygon fill="midnightblue" stroke="midnightblue" points="1830.9,-216.929 1838.71,-224.083 1837.06,-213.617 1830.9,-216.929"/>
</g>
<!-- Node48 -->
<g id="node39" class="node"><title>Node48</title>
<g id="a_node39"><a xlink:href="init_8h.html" target="_top" xlink:title="ODP initialization. ">
<polygon fill="white" stroke="red" points="1794.5,-112.5 1794.5,-131.5 1834.5,-131.5 1834.5,-112.5 1794.5,-112.5"/>
<text text-anchor="middle" x="1814.5" y="-119.5" font-family="Helvetica,sans-Serif" font-size="10.00">init.h</text>
</a>
</g>
</g>
<!-- Node47&#45;&gt;Node48 -->
<g id="edge45" class="edge"><title>Node47&#45;&gt;Node48</title>
<path fill="none" stroke="midnightblue" d="M1814.5,-157.805C1814.5,-148.91 1814.5,-138.78 1814.5,-131.751"/>
<polygon fill="midnightblue" stroke="midnightblue" points="1811,-158.083 1814.5,-168.083 1818,-158.083 1811,-158.083"/>
</g>
<!-- Node52 -->
<g id="node41" class="node"><title>Node52</title>
<g id="a_node41"><a xlink:href="hash_8h.html" target="_top" xlink:title="ODP Hash function. ">
<polygon fill="white" stroke="black" points="1892,-224.5 1892,-243.5 1941,-243.5 1941,-224.5 1892,-224.5"/>
<text text-anchor="middle" x="1916.5" y="-231.5" font-family="Helvetica,sans-Serif" font-size="10.00">hash.h</text>
</a>
</g>
</g>
<!-- Node51&#45;&gt;Node52 -->
<g id="edge47" class="edge"><title>Node51&#45;&gt;Node52</title>
<path fill="none" stroke="midnightblue" d="M1916.5,-269.805C1916.5,-260.91 1916.5,-250.78 1916.5,-243.751"/>
<polygon fill="midnightblue" stroke="midnightblue" points="1913,-270.083 1916.5,-280.083 1920,-270.083 1913,-270.083"/>
</g>
<!-- Node54 -->
<g id="node43" class="node"><title>Node54</title>
<g id="a_node43"><a xlink:href="pool_8h.html" target="_top" xlink:title="ODP pool. ">
<polygon fill="white" stroke="red" points="1959.5,-224.5 1959.5,-243.5 2005.5,-243.5 2005.5,-224.5 1959.5,-224.5"/>
<text text-anchor="middle" x="1982.5" y="-231.5" font-family="Helvetica,sans-Serif" font-size="10.00">pool.h</text>
</a>
</g>
</g>
<!-- Node53&#45;&gt;Node54 -->
<g id="edge51" class="edge"><title>Node53&#45;&gt;Node54</title>
<path fill="none" stroke="midnightblue" d="M1982.5,-269.805C1982.5,-260.91 1982.5,-250.78 1982.5,-243.751"/>
<polygon fill="midnightblue" stroke="midnightblue" points="1979,-270.083 1982.5,-280.083 1986,-270.083 1979,-270.083"/>
</g>
<!-- Node57 -->
<g id="node45" class="node"><title>Node57</title>
<g id="a_node45"><a xlink:href="threshold_8h.html" target="_top" xlink:title="ODP threshold API &#45; platform specific header. ">
<polygon fill="white" stroke="black" points="953,-168.5 953,-187.5 1024,-187.5 1024,-168.5 953,-168.5"/>
<text text-anchor="middle" x="988.5" y="-175.5" font-family="Helvetica,sans-Serif" font-size="10.00">threshold.h</text>
</a>
</g>
</g>
<!-- Node56&#45;&gt;Node57 -->
<g id="edge54" class="edge"><title>Node56&#45;&gt;Node57</title>
<path fill="none" stroke="midnightblue" d="M946.395,-217.537C956.915,-207.909 970.069,-195.869 978.848,-187.834"/>
<polygon fill="midnightblue" stroke="midnightblue" points="943.993,-214.99 938.979,-224.324 948.719,-220.154 943.993,-214.99"/>
</g>
<!-- Node57&#45;&gt;Node33 -->
<g id="edge55" class="edge"><title>Node57&#45;&gt;Node33</title>
<path fill="none" stroke="midnightblue" d="M1000.88,-159.855C1007.64,-150.505 1015.71,-139.327 1021.18,-131.751"/>
<polygon fill="midnightblue" stroke="midnightblue" points="997.958,-157.927 994.94,-168.083 1003.63,-162.025 997.958,-157.927"/>
</g>
<!-- Node61&#45;&gt;Node31 -->
<g id="edge60" class="edge"><title>Node61&#45;&gt;Node31</title>
<path fill="none" stroke="midnightblue" d="M1325.91,-274.101C1313.13,-264.382 1296.89,-252.027 1286.11,-243.834"/>
<polygon fill="midnightblue" stroke="midnightblue" points="1324.01,-277.056 1334.09,-280.324 1328.25,-271.484 1324.01,-277.056"/>
</g>
</g>
</svg>
