<?xml version="1.0" encoding="UTF-8" standalone="no"?>
<!DOCTYPE svg PUBLIC "-//W3C//DTD SVG 1.1//EN"
 "http://www.w3.org/Graphics/SVG/1.1/DTD/svg11.dtd">
<!-- Generated by graphviz version 2.38.0 (20140413.2041)
 -->
<!-- Title: std_types.h Pages: 1 -->
<svg width="2453pt" height="364pt"
 viewBox="0.00 0.00 2452.50 364.00" xmlns="http://www.w3.org/2000/svg" xmlns:xlink="http://www.w3.org/1999/xlink">
<g id="graph0" class="graph" transform="scale(1 1) rotate(0) translate(4 360)">
<title>std_types.h</title>
<polygon fill="white" stroke="none" points="-4,4 -4,-360 2448.5,-360 2448.5,4 -4,4"/>
<!-- Node6 -->
<g id="node1" class="node"><title>Node6</title>
<polygon fill="#bfbfbf" stroke="black" points="1219.5,-336.5 1219.5,-355.5 1291.5,-355.5 1291.5,-336.5 1219.5,-336.5"/>
<text text-anchor="middle" x="1255.5" y="-343.5" font-family="Helvetica,sans-Serif" font-size="10.00">std_types.h</text>
</g>
<!-- Node7 -->
<g id="node2" class="node"><title>Node7</title>
<g id="a_node2"><a xlink:href="abi-default_2atomic_8h.html" target="_top" xlink:title="ODP atomic operations. ">
<polygon fill="white" stroke="black" points="0,-280.5 0,-299.5 59,-299.5 59,-280.5 0,-280.5"/>
<text text-anchor="middle" x="29.5" y="-287.5" font-family="Helvetica,sans-Serif" font-size="10.00">atomic.h</text>
</a>
</g>
</g>
<!-- Node6&#45;&gt;Node7 -->
<g id="edge1" class="edge"><title>Node6&#45;&gt;Node7</title>
<path fill="none" stroke="midnightblue" d="M1209.13,-344.413C1018.55,-341.818 294.959,-330.147 68.5,-300 65.4693,-299.597 62.3283,-299.066 59.2044,-298.464"/>
<polygon fill="midnightblue" stroke="midnightblue" points="1209.31,-347.915 1219.36,-344.55 1209.41,-340.916 1209.31,-347.915"/>
</g>
<!-- Node8 -->
<g id="node3" class="node"><title>Node8</title>
<g id="a_node3"><a xlink:href="abi-default_2barrier_8h.html" target="_top" xlink:title="ODP barrier. ">
<polygon fill="white" stroke="black" points="77.5,-280.5 77.5,-299.5 133.5,-299.5 133.5,-280.5 77.5,-280.5"/>
<text text-anchor="middle" x="105.5" y="-287.5" font-family="Helvetica,sans-Serif" font-size="10.00">barrier.h</text>
</a>
</g>
</g>
<!-- Node6&#45;&gt;Node8 -->
<g id="edge2" class="edge"><title>Node6&#45;&gt;Node8</title>
<path fill="none" stroke="midnightblue" d="M1209.33,-344.353C1026.59,-341.604 353.609,-329.644 142.5,-300 139.619,-299.596 136.636,-299.064 133.67,-298.462"/>
<polygon fill="midnightblue" stroke="midnightblue" points="1209.36,-347.854 1219.41,-344.503 1209.47,-340.855 1209.36,-347.854"/>
</g>
<!-- Node9 -->
<g id="node4" class="node"><title>Node9</title>
<g id="a_node4"><a xlink:href="abi-default_2byteorder_8h.html" target="_top" xlink:title="ODP byteorder. ">
<polygon fill="white" stroke="black" points="152,-280.5 152,-299.5 223,-299.5 223,-280.5 152,-280.5"/>
<text text-anchor="middle" x="187.5" y="-287.5" font-family="Helvetica,sans-Serif" font-size="10.00">byteorder.h</text>
</a>
</g>
</g>
<!-- Node6&#45;&gt;Node9 -->
<g id="edge3" class="edge"><title>Node6&#45;&gt;Node9</title>
<path fill="none" stroke="midnightblue" d="M1208.78,-345.487C1063.49,-346.459 606.979,-345.412 232.5,-300 229.494,-299.636 226.39,-299.181 223.281,-298.671"/>
<polygon fill="midnightblue" stroke="midnightblue" points="1209.12,-348.985 1219.09,-345.411 1209.07,-341.985 1209.12,-348.985"/>
</g>
<!-- Node10 -->
<g id="node5" class="node"><title>Node10</title>
<g id="a_node5"><a xlink:href="abi-default_2cpumask_8h.html" target="_top" xlink:title="ODP CPU masks and enumeration. ">
<polygon fill="white" stroke="black" points="241,-280.5 241,-299.5 310,-299.5 310,-280.5 241,-280.5"/>
<text text-anchor="middle" x="275.5" y="-287.5" font-family="Helvetica,sans-Serif" font-size="10.00">cpumask.h</text>
</a>
</g>
</g>
<!-- Node6&#45;&gt;Node10 -->
<g id="edge4" class="edge"><title>Node6&#45;&gt;Node10</title>
<path fill="none" stroke="midnightblue" d="M1209.06,-345.285C1072.24,-345.584 658.922,-342.616 319.5,-300 316.405,-299.611 313.204,-299.125 310.004,-298.58"/>
<polygon fill="midnightblue" stroke="midnightblue" points="1209.2,-348.784 1219.19,-345.255 1209.18,-341.784 1209.2,-348.784"/>
</g>
<!-- Node11 -->
<g id="node6" class="node"><title>Node11</title>
<g id="a_node6"><a xlink:href="abi-default_2init_8h.html" target="_top" xlink:title="ODP initialization. ">
<polygon fill="white" stroke="black" points="328.5,-280.5 328.5,-299.5 368.5,-299.5 368.5,-280.5 328.5,-280.5"/>
<text text-anchor="middle" x="348.5" y="-287.5" font-family="Helvetica,sans-Serif" font-size="10.00">init.h</text>
</a>
</g>
</g>
<!-- Node6&#45;&gt;Node11 -->
<g id="edge5" class="edge"><title>Node6&#45;&gt;Node11</title>
<path fill="none" stroke="midnightblue" d="M1208.79,-344.143C1051.13,-341.008 539.453,-328.812 377.5,-300 374.594,-299.483 371.571,-298.761 368.622,-297.95"/>
<polygon fill="midnightblue" stroke="midnightblue" points="1209.02,-347.648 1219.09,-344.344 1209.16,-340.649 1209.02,-347.648"/>
</g>
<!-- Node12 -->
<g id="node7" class="node"><title>Node12</title>
<g id="a_node7"><a xlink:href="abi-default_2ipsec_8h.html" target="_top" xlink:title="ODP IPSEC API &#45; platform specific types. ">
<polygon fill="white" stroke="black" points="386.5,-280.5 386.5,-299.5 436.5,-299.5 436.5,-280.5 386.5,-280.5"/>
<text text-anchor="middle" x="411.5" y="-287.5" font-family="Helvetica,sans-Serif" font-size="10.00">ipsec.h</text>
</a>
</g>
</g>
<!-- Node6&#45;&gt;Node12 -->
<g id="edge6" class="edge"><title>Node6&#45;&gt;Node12</title>
<path fill="none" stroke="midnightblue" d="M1209.06,-345.586C1084.67,-346.474 733.872,-344.499 446.5,-300 443.276,-299.501 439.918,-298.833 436.612,-298.086"/>
<polygon fill="midnightblue" stroke="midnightblue" points="1209.38,-349.084 1219.35,-345.502 1209.33,-342.084 1209.38,-349.084"/>
</g>
<!-- Node13 -->
<g id="node8" class="node"><title>Node13</title>
<g id="a_node8"><a xlink:href="abi-default_2packet__io_8h.html" target="_top" xlink:title="ODP Packet IO. ">
<polygon fill="white" stroke="black" points="455,-280.5 455,-299.5 526,-299.5 526,-280.5 455,-280.5"/>
<text text-anchor="middle" x="490.5" y="-287.5" font-family="Helvetica,sans-Serif" font-size="10.00">packet_io.h</text>
</a>
</g>
</g>
<!-- Node6&#45;&gt;Node13 -->
<g id="edge7" class="edge"><title>Node6&#45;&gt;Node13</title>
<path fill="none" stroke="midnightblue" d="M1209.2,-344.269C1094.55,-341.99 788.401,-333.04 535.5,-300 532.498,-299.608 529.396,-299.134 526.289,-298.611"/>
<polygon fill="midnightblue" stroke="midnightblue" points="1209.31,-347.772 1219.37,-344.464 1209.44,-340.773 1209.31,-347.772"/>
</g>
<!-- Node14 -->
<g id="node9" class="node"><title>Node14</title>
<g id="a_node9"><a xlink:href="abi-default_2rwlock__recursive_8h.html" target="_top" xlink:title="ODP recursive read/write lock. ">
<polygon fill="white" stroke="black" points="544.5,-280.5 544.5,-299.5 648.5,-299.5 648.5,-280.5 544.5,-280.5"/>
<text text-anchor="middle" x="596.5" y="-287.5" font-family="Helvetica,sans-Serif" font-size="10.00">rwlock_recursive.h</text>
</a>
</g>
</g>
<!-- Node6&#45;&gt;Node14 -->
<g id="edge8" class="edge"><title>Node6&#45;&gt;Node14</title>
<path fill="none" stroke="midnightblue" d="M1209.23,-342.646C1108.65,-337.282 862.622,-322.82 657.5,-300 654.627,-299.68 651.682,-299.328 648.712,-298.954"/>
<polygon fill="midnightblue" stroke="midnightblue" points="1209.18,-346.148 1219.35,-343.181 1209.55,-339.158 1209.18,-346.148"/>
</g>
<!-- Node15 -->
<g id="node10" class="node"><title>Node15</title>
<g id="a_node10"><a xlink:href="abi-default_2schedule_8h.html" target="_top" xlink:title="ODP schedule. ">
<polygon fill="white" stroke="black" points="666.5,-280.5 666.5,-299.5 734.5,-299.5 734.5,-280.5 666.5,-280.5"/>
<text text-anchor="middle" x="700.5" y="-287.5" font-family="Helvetica,sans-Serif" font-size="10.00">schedule.h</text>
</a>
</g>
</g>
<!-- Node6&#45;&gt;Node15 -->
<g id="edge9" class="edge"><title>Node6&#45;&gt;Node15</title>
<path fill="none" stroke="midnightblue" d="M1209.27,-342.698C1119.38,-337.83 914.888,-324.846 744.5,-300 741.26,-299.527 737.898,-298.968 734.542,-298.362"/>
<polygon fill="midnightblue" stroke="midnightblue" points="1209.23,-346.2 1219.4,-343.238 1209.6,-339.21 1209.23,-346.2"/>
</g>
<!-- Node16 -->
<g id="node11" class="node"><title>Node16</title>
<g id="a_node11"><a xlink:href="abi-default_2spinlock__recursive_8h.html" target="_top" xlink:title="ODP recursive spinlock. ">
<polygon fill="white" stroke="black" points="753,-280.5 753,-299.5 866,-299.5 866,-280.5 753,-280.5"/>
<text text-anchor="middle" x="809.5" y="-287.5" font-family="Helvetica,sans-Serif" font-size="10.00">spinlock_recursive.h</text>
</a>
</g>
</g>
<!-- Node6&#45;&gt;Node16 -->
<g id="edge10" class="edge"><title>Node6&#45;&gt;Node16</title>
<path fill="none" stroke="midnightblue" d="M1209.28,-339.793C1137.72,-331.671 995.784,-315.322 875.5,-300 872.403,-299.605 869.224,-299.194 866.017,-298.774"/>
<polygon fill="midnightblue" stroke="midnightblue" points="1208.99,-343.283 1219.32,-340.931 1209.78,-336.327 1208.99,-343.283"/>
</g>
<!-- Node17 -->
<g id="node12" class="node"><title>Node17</title>
<g id="a_node12"><a xlink:href="abi-default_2traffic__mngr_8h.html" target="_top" xlink:title="ODP traffic mngr. ">
<polygon fill="white" stroke="black" points="884,-280.5 884,-299.5 967,-299.5 967,-280.5 884,-280.5"/>
<text text-anchor="middle" x="925.5" y="-287.5" font-family="Helvetica,sans-Serif" font-size="10.00">traffic_mngr.h</text>
</a>
</g>
</g>
<!-- Node6&#45;&gt;Node17 -->
<g id="edge11" class="edge"><title>Node6&#45;&gt;Node17</title>
<path fill="none" stroke="midnightblue" d="M1209.16,-337.74C1153.78,-329.014 1058.31,-313.815 976.5,-300 973.486,-299.491 970.373,-298.958 967.24,-298.418"/>
<polygon fill="midnightblue" stroke="midnightblue" points="1208.93,-341.248 1219.36,-339.345 1210.02,-334.333 1208.93,-341.248"/>
</g>
<!-- Node18 -->
<g id="node13" class="node"><title>Node18</title>
<g id="a_node13"><a xlink:href="barrier_8h.html" target="_top" xlink:title="ODP execution barriers. ">
<polygon fill="white" stroke="black" points="985.5,-280.5 985.5,-299.5 1041.5,-299.5 1041.5,-280.5 985.5,-280.5"/>
<text text-anchor="middle" x="1013.5" y="-287.5" font-family="Helvetica,sans-Serif" font-size="10.00">barrier.h</text>
</a>
</g>
</g>
<!-- Node6&#45;&gt;Node18 -->
<g id="edge12" class="edge"><title>Node6&#45;&gt;Node18</title>
<path fill="none" stroke="midnightblue" d="M1209.56,-335.079C1168.19,-326.092 1105.72,-312.4 1051.5,-300 1048.33,-299.274 1045.01,-298.505 1041.71,-297.733"/>
<polygon fill="midnightblue" stroke="midnightblue" points="1208.83,-338.502 1219.35,-337.202 1210.32,-331.661 1208.83,-338.502"/>
</g>
<!-- Node19 -->
<g id="node14" class="node"><title>Node19</title>
<g id="a_node14"><a xlink:href="buffer_8h.html" target="_top" xlink:title="ODP buffer descriptor. ">
<polygon fill="white" stroke="black" points="1060,-280.5 1060,-299.5 1113,-299.5 1113,-280.5 1060,-280.5"/>
<text text-anchor="middle" x="1086.5" y="-287.5" font-family="Helvetica,sans-Serif" font-size="10.00">buffer.h</text>
</a>
</g>
</g>
<!-- Node6&#45;&gt;Node19 -->
<g id="edge13" class="edge"><title>Node6&#45;&gt;Node19</title>
<path fill="none" stroke="midnightblue" d="M1218.9,-333.304C1187.05,-323.129 1141.66,-308.625 1113.15,-299.516"/>
<polygon fill="midnightblue" stroke="midnightblue" points="1218.13,-336.734 1228.72,-336.444 1220.26,-330.066 1218.13,-336.734"/>
</g>
<!-- Node20 -->
<g id="node15" class="node"><title>Node20</title>
<g id="a_node15"><a xlink:href="classification_8h.html" target="_top" xlink:title="ODP classification descriptor. ">
<polygon fill="white" stroke="black" points="995.5,-56.5 995.5,-75.5 1081.5,-75.5 1081.5,-56.5 995.5,-56.5"/>
<text text-anchor="middle" x="1038.5" y="-63.5" font-family="Helvetica,sans-Serif" font-size="10.00">classification.h</text>
</a>
</g>
</g>
<!-- Node6&#45;&gt;Node20 -->
<g id="edge14" class="edge"><title>Node6&#45;&gt;Node20</title>
<path fill="none" stroke="midnightblue" d="M1225.19,-332.505C1205.12,-323.954 1178.38,-312.025 1155.5,-300 1140.32,-292.022 1138.35,-286.548 1122.5,-280 1059.93,-254.154 1016.33,-297.225 974.5,-244 938.099,-197.684 956.503,-162.699 986.5,-112 995.741,-96.3819 1012.34,-83.446 1024.3,-75.5132"/>
<polygon fill="midnightblue" stroke="midnightblue" points="1223.89,-335.754 1234.46,-336.417 1226.61,-329.304 1223.89,-335.754"/>
</g>
<!-- Node23 -->
<g id="node17" class="node"><title>Node23</title>
<g id="a_node17"><a xlink:href="crypto_8h.html" target="_top" xlink:title="ODP crypto. ">
<polygon fill="white" stroke="black" points="1468.5,-168.5 1468.5,-187.5 1524.5,-187.5 1524.5,-168.5 1468.5,-168.5"/>
<text text-anchor="middle" x="1496.5" y="-175.5" font-family="Helvetica,sans-Serif" font-size="10.00">crypto.h</text>
</a>
</g>
</g>
<!-- Node6&#45;&gt;Node23 -->
<g id="edge16" class="edge"><title>Node6&#45;&gt;Node23</title>
<path fill="none" stroke="midnightblue" d="M1302.02,-345.542C1381.67,-345.367 1538.9,-339.837 1573.5,-300 1584.13,-287.763 1583.64,-252.457 1565.5,-224 1554.59,-206.874 1534.55,-194.902 1518.87,-187.635"/>
<polygon fill="midnightblue" stroke="midnightblue" points="1301.79,-342.042 1291.79,-345.536 1301.78,-349.042 1301.79,-342.042"/>
</g>
<!-- Node24 -->
<g id="node18" class="node"><title>Node24</title>
<g id="a_node18"><a xlink:href="packet_8h.html" target="_top" xlink:title="ODP packet descriptor. ">
<polygon fill="white" stroke="black" points="1321.5,-280.5 1321.5,-299.5 1379.5,-299.5 1379.5,-280.5 1321.5,-280.5"/>
<text text-anchor="middle" x="1350.5" y="-287.5" font-family="Helvetica,sans-Serif" font-size="10.00">packet.h</text>
</a>
</g>
</g>
<!-- Node6&#45;&gt;Node24 -->
<g id="edge18" class="edge"><title>Node6&#45;&gt;Node24</title>
<path fill="none" stroke="midnightblue" d="M1279.82,-331.177C1297.3,-321.241 1320.33,-308.149 1335.27,-299.655"/>
<polygon fill="midnightblue" stroke="midnightblue" points="1277.73,-328.339 1270.76,-336.324 1281.19,-334.425 1277.73,-328.339"/>
</g>
<!-- Node39 -->
<g id="node22" class="node"><title>Node39</title>
<g id="a_node22"><a xlink:href="spec_2packet__flags_8h.html" target="_top" xlink:title="ODP packet flags. ">
<polygon fill="white" stroke="black" points="1110.5,-224.5 1110.5,-243.5 1196.5,-243.5 1196.5,-224.5 1110.5,-224.5"/>
<text text-anchor="middle" x="1153.5" y="-231.5" font-family="Helvetica,sans-Serif" font-size="10.00">packet_flags.h</text>
</a>
</g>
</g>
<!-- Node6&#45;&gt;Node39 -->
<g id="edge48" class="edge"><title>Node6&#45;&gt;Node39</title>
<path fill="none" stroke="midnightblue" d="M1252.23,-326.511C1248.97,-312.465 1242.76,-293.351 1231.5,-280 1217.09,-262.91 1194.44,-250.871 1177.25,-243.574"/>
<polygon fill="midnightblue" stroke="midnightblue" points="1248.84,-327.38 1254.26,-336.483 1255.7,-325.986 1248.84,-327.38"/>
</g>
<!-- Node33 -->
<g id="node25" class="node"><title>Node33</title>
<g id="a_node25"><a xlink:href="packet__io_8h.html" target="_top" xlink:title="ODP Packet IO. ">
<polygon fill="white" stroke="black" points="1215,-168.5 1215,-187.5 1286,-187.5 1286,-168.5 1215,-168.5"/>
<text text-anchor="middle" x="1250.5" y="-175.5" font-family="Helvetica,sans-Serif" font-size="10.00">packet_io.h</text>
</a>
</g>
</g>
<!-- Node6&#45;&gt;Node33 -->
<g id="edge31" class="edge"><title>Node6&#45;&gt;Node33</title>
<path fill="none" stroke="midnightblue" d="M1254.49,-326.091C1253.68,-313.098 1252.38,-295.468 1250.5,-280 1248.54,-263.898 1245.84,-260.165 1244.5,-244 1243.77,-235.141 1243.91,-232.869 1244.5,-224 1245.35,-211.26 1247.52,-196.624 1249.01,-187.593"/>
<polygon fill="midnightblue" stroke="midnightblue" points="1251,-326.362 1255.07,-336.144 1257.99,-325.959 1251,-326.362"/>
</g>
<!-- Node35 -->
<g id="node27" class="node"><title>Node35</title>
<g id="a_node27"><a xlink:href="spec_2traffic__mngr_8h.html" target="_top" xlink:title="Copyright (c) 2015&#45;2018, Linaro Limited All rights reserved. ">
<polygon fill="white" stroke="red" points="1126,-112.5 1126,-131.5 1209,-131.5 1209,-112.5 1126,-112.5"/>
<text text-anchor="middle" x="1167.5" y="-119.5" font-family="Helvetica,sans-Serif" font-size="10.00">traffic_mngr.h</text>
</a>
</g>
</g>
<!-- Node6&#45;&gt;Node35 -->
<g id="edge58" class="edge"><title>Node6&#45;&gt;Node35</title>
<path fill="none" stroke="midnightblue" d="M1241.43,-328.809C1228.33,-314.507 1207.7,-293.832 1186.5,-280 1152.14,-257.582 1124.16,-278.202 1101.5,-244 1082.85,-215.841 1085.72,-197.864 1101.5,-168 1110.64,-150.712 1129.73,-138.816 1145.04,-131.618"/>
<polygon fill="midnightblue" stroke="midnightblue" points="1238.94,-331.275 1248.21,-336.394 1244.15,-326.608 1238.94,-331.275"/>
</g>
<!-- Node31 -->
<g id="node28" class="node"><title>Node31</title>
<g id="a_node28"><a xlink:href="queue_8h.html" target="_top" xlink:title="ODP queue. ">
<polygon fill="white" stroke="black" points="1508.5,-280.5 1508.5,-299.5 1564.5,-299.5 1564.5,-280.5 1508.5,-280.5"/>
<text text-anchor="middle" x="1536.5" y="-287.5" font-family="Helvetica,sans-Serif" font-size="10.00">queue.h</text>
</a>
</g>
</g>
<!-- Node6&#45;&gt;Node31 -->
<g id="edge32" class="edge"><title>Node6&#45;&gt;Node31</title>
<path fill="none" stroke="midnightblue" d="M1301.76,-336.11C1360.38,-324.844 1459.62,-305.774 1508.11,-296.455"/>
<polygon fill="midnightblue" stroke="midnightblue" points="1300.82,-332.727 1291.66,-338.051 1302.14,-339.601 1300.82,-332.727"/>
</g>
<!-- Node37 -->
<g id="node29" class="node"><title>Node37</title>
<g id="a_node29"><a xlink:href="spec_2schedule_8h.html" target="_top" xlink:title="ODP schedule. ">
<polygon fill="white" stroke="black" points="1672.5,-168.5 1672.5,-187.5 1740.5,-187.5 1740.5,-168.5 1672.5,-168.5"/>
<text text-anchor="middle" x="1706.5" y="-175.5" font-family="Helvetica,sans-Serif" font-size="10.00">schedule.h</text>
</a>
</g>
</g>
<!-- Node6&#45;&gt;Node37 -->
<g id="edge51" class="edge"><title>Node6&#45;&gt;Node37</title>
<path fill="none" stroke="midnightblue" d="M1301.92,-343.429C1414.72,-339.216 1696.41,-326.168 1729.5,-300 1756.81,-278.401 1761.27,-256.392 1748.5,-224 1742.54,-208.888 1728.85,-195.857 1718.71,-187.764"/>
<polygon fill="midnightblue" stroke="midnightblue" points="1301.73,-339.934 1291.86,-343.798 1301.99,-346.929 1301.73,-339.934"/>
</g>
<!-- Node41 -->
<g id="node31" class="node"><title>Node41</title>
<g id="a_node31"><a xlink:href="spec_2chksum_8h.html" target="_top" xlink:title="ODP Hash functions. ">
<polygon fill="white" stroke="black" points="1796,-280.5 1796,-299.5 1859,-299.5 1859,-280.5 1796,-280.5"/>
<text text-anchor="middle" x="1827.5" y="-287.5" font-family="Helvetica,sans-Serif" font-size="10.00">chksum.h</text>
</a>
</g>
</g>
<!-- Node6&#45;&gt;Node41 -->
<g id="edge37" class="edge"><title>Node6&#45;&gt;Node41</title>
<path fill="none" stroke="midnightblue" d="M1301.75,-342.724C1393.56,-337.835 1605.18,-324.718 1781.5,-300 1786.17,-299.345 1791.09,-298.524 1795.9,-297.648"/>
<polygon fill="midnightblue" stroke="midnightblue" points="1301.49,-339.233 1291.68,-343.252 1301.85,-346.223 1301.49,-339.233"/>
</g>
<!-- Node43 -->
<g id="node33" class="node"><title>Node43</title>
<g id="a_node33"><a xlink:href="spec_2cpu_8h.html" target="_top" xlink:title="ODP CPU API. ">
<polygon fill="white" stroke="black" points="1877,-280.5 1877,-299.5 1920,-299.5 1920,-280.5 1877,-280.5"/>
<text text-anchor="middle" x="1898.5" y="-287.5" font-family="Helvetica,sans-Serif" font-size="10.00">cpu.h</text>
</a>
</g>
</g>
<!-- Node6&#45;&gt;Node43 -->
<g id="edge39" class="edge"><title>Node6&#45;&gt;Node43</title>
<path fill="none" stroke="midnightblue" d="M1301.83,-345.03C1404.68,-344.351 1659.5,-338.543 1868.5,-300 1871.17,-299.507 1873.95,-298.863 1876.68,-298.146"/>
<polygon fill="midnightblue" stroke="midnightblue" points="1301.76,-341.53 1291.78,-345.083 1301.8,-348.53 1301.76,-341.53"/>
</g>
<!-- Node46 -->
<g id="node35" class="node"><title>Node46</title>
<g id="a_node35"><a xlink:href="spec_2feature_8h.html" target="_top" xlink:title="ODP features. ">
<polygon fill="white" stroke="black" points="1976.5,-280.5 1976.5,-299.5 2036.5,-299.5 2036.5,-280.5 1976.5,-280.5"/>
<text text-anchor="middle" x="2006.5" y="-287.5" font-family="Helvetica,sans-Serif" font-size="10.00">feature.h</text>
</a>
</g>
</g>
<!-- Node6&#45;&gt;Node46 -->
<g id="edge41" class="edge"><title>Node6&#45;&gt;Node46</title>
<path fill="none" stroke="midnightblue" d="M1301.78,-344.264C1415,-341.984 1714.83,-333.051 1962.5,-300 1966.98,-299.402 1971.69,-298.613 1976.3,-297.75"/>
<polygon fill="midnightblue" stroke="midnightblue" points="1301.66,-340.766 1291.73,-344.459 1301.79,-347.764 1301.66,-340.766"/>
</g>
<!-- Node48 -->
<g id="node37" class="node"><title>Node48</title>
<g id="a_node37"><a xlink:href="spec_2init_8h.html" target="_top" xlink:title="init.h">
<polygon fill="white" stroke="black" points="1957.5,-168.5 1957.5,-187.5 1997.5,-187.5 1997.5,-168.5 1957.5,-168.5"/>
<text text-anchor="middle" x="1977.5" y="-175.5" font-family="Helvetica,sans-Serif" font-size="10.00">init.h</text>
</a>
</g>
</g>
<!-- Node6&#45;&gt;Node48 -->
<g id="edge47" class="edge"><title>Node6&#45;&gt;Node48</title>
<path fill="none" stroke="midnightblue" d="M1302.05,-344.73C1446.27,-343.505 1879.05,-336.773 1929.5,-300 1948.77,-285.955 1968.88,-212.863 1975.36,-187.6"/>
<polygon fill="midnightblue" stroke="midnightblue" points="1301.74,-341.232 1291.77,-344.812 1301.8,-348.232 1301.74,-341.232"/>
</g>
<!-- Node52 -->
<g id="node39" class="node"><title>Node52</title>
<g id="a_node39"><a xlink:href="spec_2hash_8h.html" target="_top" xlink:title="ODP Hash functions. ">
<polygon fill="white" stroke="black" points="2055,-280.5 2055,-299.5 2104,-299.5 2104,-280.5 2055,-280.5"/>
<text text-anchor="middle" x="2079.5" y="-287.5" font-family="Helvetica,sans-Serif" font-size="10.00">hash.h</text>
</a>
</g>
</g>
<!-- Node6&#45;&gt;Node52 -->
<g id="edge45" class="edge"><title>Node6&#45;&gt;Node52</title>
<path fill="none" stroke="midnightblue" d="M1301.73,-345.608C1424,-346.519 1765.7,-344.533 2045.5,-300 2048.52,-299.52 2051.65,-298.884 2054.74,-298.172"/>
<polygon fill="midnightblue" stroke="midnightblue" points="1301.63,-342.107 1291.6,-345.522 1301.57,-349.107 1301.63,-342.107"/>
</g>
<!-- Node54 -->
<g id="node41" class="node"><title>Node54</title>
<g id="a_node41"><a xlink:href="spec_2pool_8h.html" target="_top" xlink:title="ODP pool. ">
<polygon fill="white" stroke="black" points="2122.5,-280.5 2122.5,-299.5 2168.5,-299.5 2168.5,-280.5 2122.5,-280.5"/>
<text text-anchor="middle" x="2145.5" y="-287.5" font-family="Helvetica,sans-Serif" font-size="10.00">pool.h</text>
</a>
</g>
</g>
<!-- Node6&#45;&gt;Node54 -->
<g id="edge49" class="edge"><title>Node6&#45;&gt;Node54</title>
<path fill="none" stroke="midnightblue" d="M1301.64,-343.929C1456.24,-340.129 1955.06,-326.103 2113.5,-300 2116.35,-299.531 2119.3,-298.902 2122.22,-298.193"/>
<polygon fill="midnightblue" stroke="midnightblue" points="1301.45,-340.432 1291.54,-344.175 1301.62,-347.43 1301.45,-340.432"/>
</g>
<!-- Node57 -->
<g id="node43" class="node"><title>Node57</title>
<g id="a_node43"><a xlink:href="spec_2threshold_8h.html" target="_top" xlink:title="ODP threshold descriptor. ">
<polygon fill="white" stroke="black" points="983,-224.5 983,-243.5 1054,-243.5 1054,-224.5 983,-224.5"/>
<text text-anchor="middle" x="1018.5" y="-231.5" font-family="Helvetica,sans-Serif" font-size="10.00">threshold.h</text>
</a>
</g>
</g>
<!-- Node6&#45;&gt;Node57 -->
<g id="edge52" class="edge"><title>Node6&#45;&gt;Node57</title>
<path fill="none" stroke="midnightblue" d="M1236.3,-330.356C1216.8,-316.009 1185.3,-294.278 1155.5,-280 1121.86,-263.88 1080.97,-251.281 1052.66,-243.564"/>
<polygon fill="midnightblue" stroke="midnightblue" points="1234.26,-333.201 1244.37,-336.374 1238.45,-327.59 1234.26,-333.201"/>
</g>
<!-- Node59 -->
<g id="node45" class="node"><title>Node59</title>
<g id="a_node45"><a xlink:href="spec_2thrmask_8h.html" target="_top" xlink:title="ODP thread masks. ">
<polygon fill="white" stroke="black" points="1655,-280.5 1655,-299.5 1720,-299.5 1720,-280.5 1655,-280.5"/>
<text text-anchor="middle" x="1687.5" y="-287.5" font-family="Helvetica,sans-Serif" font-size="10.00">thrmask.h</text>
</a>
</g>
</g>
<!-- Node6&#45;&gt;Node59 -->
<g id="edge55" class="edge"><title>Node6&#45;&gt;Node59</title>
<path fill="none" stroke="midnightblue" d="M1301.79,-339.507C1371.27,-331.218 1506.61,-314.896 1621.5,-300 1632.39,-298.587 1644.29,-296.984 1654.95,-295.526"/>
<polygon fill="midnightblue" stroke="midnightblue" points="1301.14,-336.06 1291.62,-340.719 1301.97,-343.01 1301.14,-336.06"/>
</g>
<!-- Node61 -->
<g id="node47" class="node"><title>Node61</title>
<g id="a_node47"><a xlink:href="system__info_8h.html" target="_top" xlink:title="ODP system information. ">
<polygon fill="white" stroke="black" points="2187,-280.5 2187,-299.5 2270,-299.5 2270,-280.5 2187,-280.5"/>
<text text-anchor="middle" x="2228.5" y="-287.5" font-family="Helvetica,sans-Serif" font-size="10.00">system_info.h</text>
</a>
</g>
</g>
<!-- Node6&#45;&gt;Node61 -->
<g id="edge59" class="edge"><title>Node6&#45;&gt;Node61</title>
<path fill="none" stroke="midnightblue" d="M1301.66,-344.798C1436.77,-343.767 1843.01,-337.526 2177.5,-300 2180.54,-299.659 2183.67,-299.25 2186.81,-298.797"/>
<polygon fill="midnightblue" stroke="midnightblue" points="1301.63,-341.298 1291.66,-344.869 1301.68,-348.298 1301.63,-341.298"/>
</g>
<!-- Node62 -->
<g id="node48" class="node"><title>Node62</title>
<g id="a_node48"><a xlink:href="time_8h.html" target="_top" xlink:title="ODP time. ">
<polygon fill="white" stroke="red" points="1413,-280.5 1413,-299.5 1460,-299.5 1460,-280.5 1413,-280.5"/>
<text text-anchor="middle" x="1436.5" y="-287.5" font-family="Helvetica,sans-Serif" font-size="10.00">time.h</text>
</a>
</g>
</g>
<!-- Node6&#45;&gt;Node62 -->
<g id="edge60" class="edge"><title>Node6&#45;&gt;Node62</title>
<path fill="none" stroke="midnightblue" d="M1293.86,-333.555C1329.88,-322.809 1382.62,-307.074 1412.86,-298.054"/>
<polygon fill="midnightblue" stroke="midnightblue" points="1292.76,-330.231 1284.18,-336.444 1294.76,-336.938 1292.76,-330.231"/>
</g>
<!-- Node64 -->
<g id="node49" class="node"><title>Node64</title>
<g id="a_node49"><a xlink:href="timer_8h.html" target="_top" xlink:title="ODP timer service. ">
<polygon fill="white" stroke="black" points="2288.5,-280.5 2288.5,-299.5 2338.5,-299.5 2338.5,-280.5 2288.5,-280.5"/>
<text text-anchor="middle" x="2313.5" y="-287.5" font-family="Helvetica,sans-Serif" font-size="10.00">timer.h</text>
</a>
</g>
</g>
<!-- Node6&#45;&gt;Node64 -->
<g id="edge62" class="edge"><title>Node6&#45;&gt;Node64</title>
<path fill="none" stroke="midnightblue" d="M1301.65,-344.289C1474.97,-341.414 2086.96,-329.365 2279.5,-300 2282.4,-299.558 2285.4,-298.966 2288.38,-298.294"/>
<polygon fill="midnightblue" stroke="midnightblue" points="1301.52,-340.79 1291.58,-344.454 1301.64,-347.789 1301.52,-340.79"/>
</g>
<!-- Node65 -->
<g id="node50" class="node"><title>Node65</title>
<g id="a_node50"><a xlink:href="strong__types_8h.html" target="_top" xlink:title="ODP Strong Types. ">
<polygon fill="white" stroke="black" points="2356.5,-280.5 2356.5,-299.5 2444.5,-299.5 2444.5,-280.5 2356.5,-280.5"/>
<text text-anchor="middle" x="2400.5" y="-287.5" font-family="Helvetica,sans-Serif" font-size="10.00">strong_types.h</text>
</a>
</g>
</g>
<!-- Node6&#45;&gt;Node65 -->
<g id="edge63" class="edge"><title>Node6&#45;&gt;Node65</title>
<path fill="none" stroke="midnightblue" d="M1302.22,-345.191C1453.65,-345.359 1944.38,-342.36 2347.5,-300 2350.38,-299.698 2353.34,-299.337 2356.31,-298.935"/>
<polygon fill="midnightblue" stroke="midnightblue" points="1301.92,-341.691 1291.91,-345.174 1301.91,-348.691 1301.92,-341.691"/>
</g>
<!-- Node21 -->
<g id="node16" class="node"><title>Node21</title>
<g id="a_node16"><a xlink:href="spec_2ipsec_8h.html" target="_top" xlink:title="ODP IPSEC API. ">
<polygon fill="white" stroke="red" points="1225.5,-0.5 1225.5,-19.5 1275.5,-19.5 1275.5,-0.5 1225.5,-0.5"/>
<text text-anchor="middle" x="1250.5" y="-7.5" font-family="Helvetica,sans-Serif" font-size="10.00">ipsec.h</text>
</a>
</g>
</g>
<!-- Node20&#45;&gt;Node21 -->
<g id="edge15" class="edge"><title>Node20&#45;&gt;Node21</title>
<path fill="none" stroke="midnightblue" d="M1082.05,-53.9074C1125.28,-42.8948 1190.06,-26.3946 1225.36,-17.4026"/>
<polygon fill="midnightblue" stroke="midnightblue" points="1080.92,-50.5834 1072.09,-56.4435 1082.65,-57.3668 1080.92,-50.5834"/>
</g>
<!-- Node23&#45;&gt;Node21 -->
<g id="edge17" class="edge"><title>Node23&#45;&gt;Node21</title>
<path fill="none" stroke="midnightblue" d="M1475.23,-162.645C1425.55,-129.121 1303.1,-46.4913 1263.25,-19.6051"/>
<polygon fill="midnightblue" stroke="midnightblue" points="1473.37,-165.616 1483.62,-168.309 1477.29,-159.814 1473.37,-165.616"/>
</g>
<!-- Node25 -->
<g id="node19" class="node"><title>Node25</title>
<g id="a_node19"><a xlink:href="spec_2comp_8h.html" target="_top" xlink:title="ODP Compression. ">
<polygon fill="white" stroke="red" points="1253,-224.5 1253,-243.5 1306,-243.5 1306,-224.5 1253,-224.5"/>
<text text-anchor="middle" x="1279.5" y="-231.5" font-family="Helvetica,sans-Serif" font-size="10.00">comp.h</text>
</a>
</g>
</g>
<!-- Node24&#45;&gt;Node25 -->
<g id="edge19" class="edge"><title>Node24&#45;&gt;Node25</title>
<path fill="none" stroke="midnightblue" d="M1330.91,-274.101C1318.13,-264.382 1301.89,-252.027 1291.11,-243.834"/>
<polygon fill="midnightblue" stroke="midnightblue" points="1329.01,-277.056 1339.09,-280.324 1333.25,-271.484 1329.01,-277.056"/>
</g>
<!-- Node27 -->
<g id="node20" class="node"><title>Node27</title>
<g id="a_node20"><a xlink:href="spec_2crypto_8h.html" target="_top" xlink:title="ODP crypto. ">
<polygon fill="white" stroke="black" points="1395.5,-224.5 1395.5,-243.5 1451.5,-243.5 1451.5,-224.5 1395.5,-224.5"/>
<text text-anchor="middle" x="1423.5" y="-231.5" font-family="Helvetica,sans-Serif" font-size="10.00">crypto.h</text>
</a>
</g>
</g>
<!-- Node24&#45;&gt;Node27 -->
<g id="edge20" class="edge"><title>Node24&#45;&gt;Node27</title>
<path fill="none" stroke="midnightblue" d="M1370.64,-274.101C1383.78,-264.382 1400.48,-252.027 1411.56,-243.834"/>
<polygon fill="midnightblue" stroke="midnightblue" points="1368.19,-271.563 1362.23,-280.324 1372.35,-277.191 1368.19,-271.563"/>
</g>
<!-- Node28 -->
<g id="node21" class="node"><title>Node28</title>
<g id="a_node21"><a xlink:href="spec_2event_8h.html" target="_top" xlink:title="ODP event. ">
<polygon fill="white" stroke="red" points="1324,-224.5 1324,-243.5 1377,-243.5 1377,-224.5 1324,-224.5"/>
<text text-anchor="middle" x="1350.5" y="-231.5" font-family="Helvetica,sans-Serif" font-size="10.00">event.h</text>
</a>
</g>
</g>
<!-- Node24&#45;&gt;Node28 -->
<g id="edge22" class="edge"><title>Node24&#45;&gt;Node28</title>
<path fill="none" stroke="midnightblue" d="M1350.5,-269.805C1350.5,-260.91 1350.5,-250.78 1350.5,-243.751"/>
<polygon fill="midnightblue" stroke="midnightblue" points="1347,-270.083 1350.5,-280.083 1354,-270.083 1347,-270.083"/>
</g>
<!-- Node24&#45;&gt;Node39 -->
<g id="edge23" class="edge"><title>Node24&#45;&gt;Node39</title>
<path fill="none" stroke="midnightblue" d="M1311.45,-278.296C1274.25,-268.099 1218.97,-252.946 1184.64,-243.536"/>
<polygon fill="midnightblue" stroke="midnightblue" points="1310.86,-281.764 1321.43,-281.032 1312.71,-275.013 1310.86,-281.764"/>
</g>
<!-- Node32 -->
<g id="node24" class="node"><title>Node32</title>
<g id="a_node24"><a xlink:href="spec_2packet__io_8h.html" target="_top" xlink:title="ODP Packet IO. ">
<polygon fill="white" stroke="black" points="1470,-224.5 1470,-243.5 1541,-243.5 1541,-224.5 1470,-224.5"/>
<text text-anchor="middle" x="1505.5" y="-231.5" font-family="Helvetica,sans-Serif" font-size="10.00">packet_io.h</text>
</a>
</g>
</g>
<!-- Node24&#45;&gt;Node32 -->
<g id="edge25" class="edge"><title>Node24&#45;&gt;Node32</title>
<path fill="none" stroke="midnightblue" d="M1384.83,-277.039C1414,-266.879 1455.14,-252.546 1481.05,-243.516"/>
<polygon fill="midnightblue" stroke="midnightblue" points="1383.35,-273.848 1375.06,-280.444 1385.66,-280.459 1383.35,-273.848"/>
</g>
<!-- Node27&#45;&gt;Node23 -->
<g id="edge21" class="edge"><title>Node27&#45;&gt;Node23</title>
<path fill="none" stroke="midnightblue" d="M1443.64,-218.101C1456.78,-208.382 1473.48,-196.027 1484.56,-187.834"/>
<polygon fill="midnightblue" stroke="midnightblue" points="1441.19,-215.563 1435.23,-224.324 1445.35,-221.191 1441.19,-215.563"/>
</g>
<!-- Node40 -->
<g id="node23" class="node"><title>Node40</title>
<g id="a_node23"><a xlink:href="packet__flags_8h.html" target="_top" xlink:title="ODP packet flags. ">
<polygon fill="white" stroke="black" points="1110.5,-168.5 1110.5,-187.5 1196.5,-187.5 1196.5,-168.5 1110.5,-168.5"/>
<text text-anchor="middle" x="1153.5" y="-175.5" font-family="Helvetica,sans-Serif" font-size="10.00">packet_flags.h</text>
</a>
</g>
</g>
<!-- Node39&#45;&gt;Node40 -->
<g id="edge24" class="edge"><title>Node39&#45;&gt;Node40</title>
<path fill="none" stroke="midnightblue" d="M1153.5,-213.805C1153.5,-204.91 1153.5,-194.78 1153.5,-187.751"/>
<polygon fill="midnightblue" stroke="midnightblue" points="1150,-214.083 1153.5,-224.083 1157,-214.083 1150,-214.083"/>
</g>
<!-- Node32&#45;&gt;Node33 -->
<g id="edge26" class="edge"><title>Node32&#45;&gt;Node33</title>
<path fill="none" stroke="midnightblue" d="M1459.94,-223.353C1410.29,-212.838 1331.87,-196.232 1286.39,-186.601"/>
<polygon fill="midnightblue" stroke="midnightblue" points="1459.27,-226.787 1469.77,-225.435 1460.72,-219.939 1459.27,-226.787"/>
</g>
<!-- Node33&#45;&gt;Node21 -->
<g id="edge29" class="edge"><title>Node33&#45;&gt;Node21</title>
<path fill="none" stroke="midnightblue" d="M1250.5,-157.93C1250.5,-121.92 1250.5,-45.2312 1250.5,-19.5681"/>
<polygon fill="midnightblue" stroke="midnightblue" points="1247,-158.075 1250.5,-168.075 1254,-158.075 1247,-158.075"/>
</g>
<!-- Node34 -->
<g id="node26" class="node"><title>Node34</title>
<g id="a_node26"><a xlink:href="spec_2classification_8h.html" target="_top" xlink:title="ODP classification descriptor. ">
<polygon fill="white" stroke="black" points="995.5,-112.5 995.5,-131.5 1081.5,-131.5 1081.5,-112.5 995.5,-112.5"/>
<text text-anchor="middle" x="1038.5" y="-119.5" font-family="Helvetica,sans-Serif" font-size="10.00">classification.h</text>
</a>
</g>
</g>
<!-- Node33&#45;&gt;Node34 -->
<g id="edge27" class="edge"><title>Node33&#45;&gt;Node34</title>
<path fill="none" stroke="midnightblue" d="M1207.15,-165.959C1167.11,-155.76 1108.47,-140.822 1071.93,-131.516"/>
<polygon fill="midnightblue" stroke="midnightblue" points="1206.35,-169.367 1216.91,-168.444 1208.08,-162.583 1206.35,-169.367"/>
</g>
<!-- Node33&#45;&gt;Node35 -->
<g id="edge30" class="edge"><title>Node33&#45;&gt;Node35</title>
<path fill="none" stroke="midnightblue" d="M1228.4,-162.622C1213.24,-152.757 1193.62,-139.992 1180.8,-131.655"/>
<polygon fill="midnightblue" stroke="midnightblue" points="1226.87,-165.804 1237.16,-168.324 1230.69,-159.937 1226.87,-165.804"/>
</g>
<!-- Node34&#45;&gt;Node20 -->
<g id="edge28" class="edge"><title>Node34&#45;&gt;Node20</title>
<path fill="none" stroke="midnightblue" d="M1038.5,-101.805C1038.5,-92.9102 1038.5,-82.7798 1038.5,-75.7511"/>
<polygon fill="midnightblue" stroke="midnightblue" points="1035,-102.083 1038.5,-112.083 1042,-102.083 1035,-102.083"/>
</g>
<!-- Node31&#45;&gt;Node23 -->
<g id="edge33" class="edge"><title>Node31&#45;&gt;Node23</title>
<path fill="none" stroke="midnightblue" d="M1546.31,-271.048C1552.28,-257.592 1557.52,-238.994 1550.5,-224 1542.84,-207.644 1525.99,-195.159 1513.13,-187.536"/>
<polygon fill="midnightblue" stroke="midnightblue" points="1543.09,-269.674 1541.8,-280.19 1549.36,-272.773 1543.09,-269.674"/>
</g>
<!-- Node31&#45;&gt;Node32 -->
<g id="edge34" class="edge"><title>Node31&#45;&gt;Node32</title>
<path fill="none" stroke="midnightblue" d="M1526.32,-271.275C1521.03,-262.045 1514.78,-251.17 1510.52,-243.751"/>
<polygon fill="midnightblue" stroke="midnightblue" points="1523.37,-273.153 1531.38,-280.083 1529.44,-269.668 1523.37,-273.153"/>
</g>
<!-- Node31&#45;&gt;Node37 -->
<g id="edge35" class="edge"><title>Node31&#45;&gt;Node37</title>
<path fill="none" stroke="midnightblue" d="M1558.58,-274.714C1594.4,-251.535 1664.11,-206.43 1693.22,-187.591"/>
<polygon fill="midnightblue" stroke="midnightblue" points="1556.33,-271.997 1549.84,-280.368 1560.14,-277.874 1556.33,-271.997"/>
</g>
<!-- Node38 -->
<g id="node30" class="node"><title>Node38</title>
<g id="a_node30"><a xlink:href="schedule_8h.html" target="_top" xlink:title="ODP schedule. ">
<polygon fill="white" stroke="black" points="1672.5,-112.5 1672.5,-131.5 1740.5,-131.5 1740.5,-112.5 1672.5,-112.5"/>
<text text-anchor="middle" x="1706.5" y="-119.5" font-family="Helvetica,sans-Serif" font-size="10.00">schedule.h</text>
</a>
</g>
</g>
<!-- Node37&#45;&gt;Node38 -->
<g id="edge36" class="edge"><title>Node37&#45;&gt;Node38</title>
<path fill="none" stroke="midnightblue" d="M1706.5,-157.805C1706.5,-148.91 1706.5,-138.78 1706.5,-131.751"/>
<polygon fill="midnightblue" stroke="midnightblue" points="1703,-158.083 1706.5,-168.083 1710,-158.083 1703,-158.083"/>
</g>
<!-- Node42 -->
<g id="node32" class="node"><title>Node42</title>
<g id="a_node32"><a xlink:href="chksum_8h.html" target="_top" xlink:title="ODP checksum functions. ">
<polygon fill="white" stroke="black" points="1796,-224.5 1796,-243.5 1859,-243.5 1859,-224.5 1796,-224.5"/>
<text text-anchor="middle" x="1827.5" y="-231.5" font-family="Helvetica,sans-Serif" font-size="10.00">chksum.h</text>
</a>
</g>
</g>
<!-- Node41&#45;&gt;Node42 -->
<g id="edge38" class="edge"><title>Node41&#45;&gt;Node42</title>
<path fill="none" stroke="midnightblue" d="M1827.5,-269.805C1827.5,-260.91 1827.5,-250.78 1827.5,-243.751"/>
<polygon fill="midnightblue" stroke="midnightblue" points="1824,-270.083 1827.5,-280.083 1831,-270.083 1824,-270.083"/>
</g>
<!-- Node44 -->
<g id="node34" class="node"><title>Node44</title>
<g id="a_node34"><a xlink:href="cpu_8h.html" target="_top" xlink:title="ODP CPU. ">
<polygon fill="white" stroke="red" points="1877,-224.5 1877,-243.5 1920,-243.5 1920,-224.5 1877,-224.5"/>
<text text-anchor="middle" x="1898.5" y="-231.5" font-family="Helvetica,sans-Serif" font-size="10.00">cpu.h</text>
</a>
</g>
</g>
<!-- Node43&#45;&gt;Node44 -->
<g id="edge40" class="edge"><title>Node43&#45;&gt;Node44</title>
<path fill="none" stroke="midnightblue" d="M1898.5,-269.805C1898.5,-260.91 1898.5,-250.78 1898.5,-243.751"/>
<polygon fill="midnightblue" stroke="midnightblue" points="1895,-270.083 1898.5,-280.083 1902,-270.083 1895,-270.083"/>
</g>
<!-- Node47 -->
<g id="node36" class="node"><title>Node47</title>
<g id="a_node36"><a xlink:href="feature_8h.html" target="_top" xlink:title="ODP features. ">
<polygon fill="white" stroke="black" points="1976.5,-224.5 1976.5,-243.5 2036.5,-243.5 2036.5,-224.5 1976.5,-224.5"/>
<text text-anchor="middle" x="2006.5" y="-231.5" font-family="Helvetica,sans-Serif" font-size="10.00">feature.h</text>
</a>
</g>
</g>
<!-- Node46&#45;&gt;Node47 -->
<g id="edge42" class="edge"><title>Node46&#45;&gt;Node47</title>
<path fill="none" stroke="midnightblue" d="M2006.5,-269.805C2006.5,-260.91 2006.5,-250.78 2006.5,-243.751"/>
<polygon fill="midnightblue" stroke="midnightblue" points="2003,-270.083 2006.5,-280.083 2010,-270.083 2003,-270.083"/>
</g>
<!-- Node47&#45;&gt;Node48 -->
<g id="edge43" class="edge"><title>Node47&#45;&gt;Node48</title>
<path fill="none" stroke="midnightblue" d="M1996.82,-214.983C1991.9,-205.817 1986.14,-195.092 1982.2,-187.751"/>
<polygon fill="midnightblue" stroke="midnightblue" points="1993.9,-216.929 2001.71,-224.083 2000.06,-213.617 1993.9,-216.929"/>
</g>
<!-- Node49 -->
<g id="node38" class="node"><title>Node49</title>
<g id="a_node38"><a xlink:href="init_8h.html" target="_top" xlink:title="ODP initialization. ">
<polygon fill="white" stroke="red" points="1957.5,-112.5 1957.5,-131.5 1997.5,-131.5 1997.5,-112.5 1957.5,-112.5"/>
<text text-anchor="middle" x="1977.5" y="-119.5" font-family="Helvetica,sans-Serif" font-size="10.00">init.h</text>
</a>
</g>
</g>
<!-- Node48&#45;&gt;Node49 -->
<g id="edge44" class="edge"><title>Node48&#45;&gt;Node49</title>
<path fill="none" stroke="midnightblue" d="M1977.5,-157.805C1977.5,-148.91 1977.5,-138.78 1977.5,-131.751"/>
<polygon fill="midnightblue" stroke="midnightblue" points="1974,-158.083 1977.5,-168.083 1981,-158.083 1974,-158.083"/>
</g>
<!-- Node53 -->
<g id="node40" class="node"><title>Node53</title>
<g id="a_node40"><a xlink:href="hash_8h.html" target="_top" xlink:title="ODP Hash function. ">
<polygon fill="white" stroke="black" points="2055,-224.5 2055,-243.5 2104,-243.5 2104,-224.5 2055,-224.5"/>
<text text-anchor="middle" x="2079.5" y="-231.5" font-family="Helvetica,sans-Serif" font-size="10.00">hash.h</text>
</a>
</g>
</g>
<!-- Node52&#45;&gt;Node53 -->
<g id="edge46" class="edge"><title>Node52&#45;&gt;Node53</title>
<path fill="none" stroke="midnightblue" d="M2079.5,-269.805C2079.5,-260.91 2079.5,-250.78 2079.5,-243.751"/>
<polygon fill="midnightblue" stroke="midnightblue" points="2076,-270.083 2079.5,-280.083 2083,-270.083 2076,-270.083"/>
</g>
<!-- Node55 -->
<g id="node42" class="node"><title>Node55</title>
<g id="a_node42"><a xlink:href="pool_8h.html" target="_top" xlink:title="ODP pool. ">
<polygon fill="white" stroke="red" points="2122.5,-224.5 2122.5,-243.5 2168.5,-243.5 2168.5,-224.5 2122.5,-224.5"/>
<text text-anchor="middle" x="2145.5" y="-231.5" font-family="Helvetica,sans-Serif" font-size="10.00">pool.h</text>
</a>
</g>
</g>
<!-- Node54&#45;&gt;Node55 -->
<g id="edge50" class="edge"><title>Node54&#45;&gt;Node55</title>
<path fill="none" stroke="midnightblue" d="M2145.5,-269.805C2145.5,-260.91 2145.5,-250.78 2145.5,-243.751"/>
<polygon fill="midnightblue" stroke="midnightblue" points="2142,-270.083 2145.5,-280.083 2149,-270.083 2142,-270.083"/>
</g>
<!-- Node58 -->
<g id="node44" class="node"><title>Node58</title>
<g id="a_node44"><a xlink:href="threshold_8h.html" target="_top" xlink:title="ODP threshold API &#45; platform specific header. ">
<polygon fill="white" stroke="black" points="983,-168.5 983,-187.5 1054,-187.5 1054,-168.5 983,-168.5"/>
<text text-anchor="middle" x="1018.5" y="-175.5" font-family="Helvetica,sans-Serif" font-size="10.00">threshold.h</text>
</a>
</g>
</g>
<!-- Node57&#45;&gt;Node58 -->
<g id="edge53" class="edge"><title>Node57&#45;&gt;Node58</title>
<path fill="none" stroke="midnightblue" d="M1018.5,-213.805C1018.5,-204.91 1018.5,-194.78 1018.5,-187.751"/>
<polygon fill="midnightblue" stroke="midnightblue" points="1015,-214.083 1018.5,-224.083 1022,-214.083 1015,-214.083"/>
</g>
<!-- Node58&#45;&gt;Node34 -->
<g id="edge54" class="edge"><title>Node58&#45;&gt;Node34</title>
<path fill="none" stroke="midnightblue" d="M1025.28,-158.69C1028.65,-149.589 1032.57,-139.014 1035.26,-131.751"/>
<polygon fill="midnightblue" stroke="midnightblue" points="1021.99,-157.49 1021.8,-168.083 1028.56,-159.921 1021.99,-157.49"/>
</g>
<!-- Node60 -->
<g id="node46" class="node"><title>Node60</title>
<g id="a_node46"><a xlink:href="thrmask_8h.html" target="_top" xlink:title="ODP thread masks. ">
<polygon fill="white" stroke="black" points="1674,-224.5 1674,-243.5 1739,-243.5 1739,-224.5 1674,-224.5"/>
<text text-anchor="middle" x="1706.5" y="-231.5" font-family="Helvetica,sans-Serif" font-size="10.00">thrmask.h</text>
</a>
</g>
</g>
<!-- Node59&#45;&gt;Node60 -->
<g id="edge56" class="edge"><title>Node59&#45;&gt;Node60</title>
<path fill="none" stroke="midnightblue" d="M1694.05,-270.396C1697.22,-261.362 1700.89,-250.936 1703.42,-243.751"/>
<polygon fill="midnightblue" stroke="midnightblue" points="1690.65,-269.488 1690.64,-280.083 1697.26,-271.812 1690.65,-269.488"/>
</g>
<!-- Node60&#45;&gt;Node37 -->
<g id="edge57" class="edge"><title>Node60&#45;&gt;Node37</title>
<path fill="none" stroke="midnightblue" d="M1706.5,-213.805C1706.5,-204.91 1706.5,-194.78 1706.5,-187.751"/>
<polygon fill="midnightblue" stroke="midnightblue" points="1703,-214.083 1706.5,-224.083 1710,-214.083 1703,-214.083"/>
</g>
<!-- Node62&#45;&gt;Node32 -->
<g id="edge61" class="edge"><title>Node62&#45;&gt;Node32</title>
<path fill="none" stroke="midnightblue" d="M1455.54,-274.101C1467.96,-264.382 1483.74,-252.027 1494.21,-243.834"/>
<polygon fill="midnightblue" stroke="midnightblue" points="1453.3,-271.405 1447.59,-280.324 1457.62,-276.917 1453.3,-271.405"/>
</g>
</g>
</svg>
